<?xml version="1.0" encoding="UTF-8" standalone="no"?>
<svg
   width="720pt"
   height="432pt"
   viewBox="0 0 720 432"
   version="1.1"
   id="svg93"
   sodipodi:docname="ofdm_psd_mod.svg"
   inkscape:version="1.3.2 (091e20e, 2023-11-25, custom)"
   inkscape:export-filename="ofdm_psd_mod.png"
   inkscape:export-xdpi="150"
   inkscape:export-ydpi="150"
   xmlns:inkscape="http://www.inkscape.org/namespaces/inkscape"
   xmlns:sodipodi="http://sodipodi.sourceforge.net/DTD/sodipodi-0.dtd"
   xmlns:xlink="http://www.w3.org/1999/xlink"
   xmlns="http://www.w3.org/2000/svg"
   xmlns:svg="http://www.w3.org/2000/svg"
   xmlns:rdf="http://www.w3.org/1999/02/22-rdf-syntax-ns#"
   xmlns:cc="http://creativecommons.org/ns#"
   xmlns:dc="http://purl.org/dc/elements/1.1/">
  <sodipodi:namedview
     id="namedview93"
     pagecolor="#505050"
     bordercolor="#eeeeee"
     borderopacity="1"
     inkscape:showpageshadow="0"
     inkscape:pageopacity="0"
     inkscape:pagecheckerboard="0"
     inkscape:deskcolor="#505050"
     inkscape:document-units="pt"
     inkscape:zoom="1.3243521"
     inkscape:cx="453.80682"
     inkscape:cy="298.6366"
     inkscape:window-width="2560"
     inkscape:window-height="1377"
     inkscape:window-x="-8"
     inkscape:window-y="-8"
     inkscape:window-maximized="1"
     inkscape:current-layer="svg93" />
  <metadata
     id="metadata1">
    <rdf:RDF>
      <cc:Work>
        <dc:type
           rdf:resource="http://purl.org/dc/dcmitype/StillImage" />
        <dc:date>2024-01-11T13:36:50.604992</dc:date>
        <dc:format>image/svg+xml</dc:format>
        <dc:creator>
          <cc:Agent>
            <dc:title>Matplotlib v3.7.1, https://matplotlib.org/</dc:title>
          </cc:Agent>
        </dc:creator>
      </cc:Work>
    </rdf:RDF>
  </metadata>
  <defs
     id="defs1">
    <marker
       style="overflow:visible"
       id="marker98"
       refX="0"
       refY="0"
       orient="auto-start-reverse"
       inkscape:stockid="Concave triangle arrow"
       markerWidth="1"
       markerHeight="1"
       viewBox="0 0 1 1"
       inkscape:isstock="true"
       inkscape:collect="always"
       preserveAspectRatio="xMidYMid">
      <path
         transform="scale(0.7)"
         d="M -2,-4 9,0 -2,4 c 2,-2.33 2,-5.66 0,-8 z"
         style="fill:context-stroke;fill-rule:evenodd;stroke:none"
         id="path98" />
    </marker>
    <marker
       style="overflow:visible"
       id="ConcaveTriangle"
       refX="0"
       refY="0"
       orient="auto-start-reverse"
       inkscape:stockid="Concave triangle arrow"
       markerWidth="1"
       markerHeight="1"
       viewBox="0 0 1 1"
       inkscape:isstock="true"
       inkscape:collect="always"
       preserveAspectRatio="xMidYMid">
      <path
         transform="scale(0.7)"
         d="M -2,-4 9,0 -2,4 c 2,-2.33 2,-5.66 0,-8 z"
         style="fill:context-stroke;fill-rule:evenodd;stroke:none"
         id="path97" />
    </marker>
    <style
       type="text/css"
       id="style1">*{stroke-linejoin: round; stroke-linecap: butt}</style>
  </defs>
  <g
     id="figure_1">
    <g
       id="patch_1">
      <path
         d="M 0 432  L 720 432  L 720 0  L 0 0  z "
         style="fill: #ffffff"
         id="path1" />
    </g>
    <g
       id="axes_1">
      <g
         id="patch_2">
        <path
           d="M 90 384.48  L 648 384.48  L 648 51.84  L 90 51.84  z "
           style="fill: #ffffff"
           id="path2" />
      </g>
      <g
         id="matplotlib.axis_1">
        <g
           id="xtick_1">
          <g
             id="line2d_1">
            <path
               d="M 145.8 384.48  L 145.8 51.84  "
               clip-path="url(#pf9c85deeb5)"
               style="fill: none; stroke: #b0b0b0; stroke-width: 0.8; stroke-linecap: square"
               id="path3" />
          </g>
          <g
             id="line2d_2">
            <defs
               id="defs3">
              <path
                 id="meb70c35ba1"
                 d="M 0 0  L 0 3.5  "
                 style="stroke: #000000; stroke-width: 0.8" />
            </defs>
            <g
               id="g3">
              <use
                 xlink:href="#meb70c35ba1"
                 x="145.8"
                 y="384.48"
                 style="stroke: #000000; stroke-width: 0.8"
                 id="use3" />
            </g>
          </g>
          <g
             id="text_1">
            <!-- $f_{n-2}$ -->
            <g
               transform="translate(133.02 400.598125) scale(0.12 -0.12)"
               id="g7">
              <defs
                 id="defs4">
                <path
                   id="DejaVuSans-Oblique-66"
                   d="M 3059 4863  L 2969 4384  L 2419 4384  Q 2106 4384 1964 4261  Q 1822 4138 1753 3809  L 1691 3500  L 2638 3500  L 2553 3053  L 1606 3053  L 1013 0  L 434 0  L 1031 3053  L 481 3053  L 563 3500  L 1113 3500  L 1159 3744  Q 1278 4363 1576 4613  Q 1875 4863 2516 4863  L 3059 4863  z "
                   transform="scale(0.015625)" />
                <path
                   id="DejaVuSans-Oblique-6e"
                   d="M 3566 2113  L 3156 0  L 2578 0  L 2988 2091  Q 3016 2238 3031 2350  Q 3047 2463 3047 2528  Q 3047 2791 2881 2937  Q 2716 3084 2419 3084  Q 1956 3084 1622 2776  Q 1288 2469 1184 1941  L 800 0  L 225 0  L 903 3500  L 1478 3500  L 1363 2950  Q 1603 3253 1940 3418  Q 2278 3584 2650 3584  Q 3113 3584 3367 3334  Q 3622 3084 3622 2631  Q 3622 2519 3608 2391  Q 3594 2263 3566 2113  z "
                   transform="scale(0.015625)" />
                <path
                   id="DejaVuSans-2212"
                   d="M 678 2272  L 4684 2272  L 4684 1741  L 678 1741  L 678 2272  z "
                   transform="scale(0.015625)" />
                <path
                   id="DejaVuSans-32"
                   d="M 1228 531  L 3431 531  L 3431 0  L 469 0  L 469 531  Q 828 903 1448 1529  Q 2069 2156 2228 2338  Q 2531 2678 2651 2914  Q 2772 3150 2772 3378  Q 2772 3750 2511 3984  Q 2250 4219 1831 4219  Q 1534 4219 1204 4116  Q 875 4013 500 3803  L 500 4441  Q 881 4594 1212 4672  Q 1544 4750 1819 4750  Q 2544 4750 2975 4387  Q 3406 4025 3406 3419  Q 3406 3131 3298 2873  Q 3191 2616 2906 2266  Q 2828 2175 2409 1742  Q 1991 1309 1228 531  z "
                   transform="scale(0.015625)" />
              </defs>
              <use
                 xlink:href="#DejaVuSans-Oblique-66"
                 transform="translate(0 0.015625)"
                 id="use4" />
              <use
                 xlink:href="#DejaVuSans-Oblique-6e"
                 transform="translate(35.205078 -16.390625) scale(0.7)"
                 id="use5" />
              <use
                 xlink:href="#DejaVuSans-2212"
                 transform="translate(93.208008 -16.390625) scale(0.7)"
                 id="use6" />
              <use
                 xlink:href="#DejaVuSans-32"
                 transform="translate(165.498047 -16.390625) scale(0.7)"
                 id="use7" />
            </g>
          </g>
        </g>
        <g
           id="xtick_2">
          <g
             id="line2d_3">
            <path
               d="M 257.4 384.48  L 257.4 51.84  "
               clip-path="url(#pf9c85deeb5)"
               style="fill: none; stroke: #b0b0b0; stroke-width: 0.8; stroke-linecap: square"
               id="path7" />
          </g>
          <g
             id="line2d_4">
            <g
               id="g8">
              <use
                 xlink:href="#meb70c35ba1"
                 x="257.4"
                 y="384.48"
                 style="stroke: #000000; stroke-width: 0.8"
                 id="use8" />
            </g>
          </g>
          <g
             id="text_2">
            <!-- $f_{n-1}$ -->
            <g
               transform="translate(244.62 400.598125) scale(0.12 -0.12)"
               id="g12">
              <defs
                 id="defs8">
                <path
                   id="DejaVuSans-31"
                   d="M 794 531  L 1825 531  L 1825 4091  L 703 3866  L 703 4441  L 1819 4666  L 2450 4666  L 2450 531  L 3481 531  L 3481 0  L 794 0  L 794 531  z "
                   transform="scale(0.015625)" />
              </defs>
              <use
                 xlink:href="#DejaVuSans-Oblique-66"
                 transform="translate(0 0.015625)"
                 id="use9" />
              <use
                 xlink:href="#DejaVuSans-Oblique-6e"
                 transform="translate(35.205078 -16.390625) scale(0.7)"
                 id="use10" />
              <use
                 xlink:href="#DejaVuSans-2212"
                 transform="translate(93.208008 -16.390625) scale(0.7)"
                 id="use11" />
              <use
                 xlink:href="#DejaVuSans-31"
                 transform="translate(165.498047 -16.390625) scale(0.7)"
                 id="use12" />
            </g>
          </g>
        </g>
        <g
           id="xtick_3">
          <g
             id="line2d_5">
            <path
               d="M 369 384.48  L 369 51.84  "
               clip-path="url(#pf9c85deeb5)"
               style="fill: none; stroke: #b0b0b0; stroke-width: 0.8; stroke-linecap: square"
               id="path12" />
          </g>
          <g
             id="line2d_6">
            <g
               id="g13">
              <use
                 xlink:href="#meb70c35ba1"
                 x="369"
                 y="384.48"
                 style="stroke: #000000; stroke-width: 0.8"
                 id="use13" />
            </g>
          </g>
          <g
             id="text_3">
            <!-- $f_{n}$ -->
            <g
               transform="translate(364.02 400.598125) scale(0.12 -0.12)"
               id="g15">
              <use
                 xlink:href="#DejaVuSans-Oblique-66"
                 transform="translate(0 0.015625)"
                 id="use14" />
              <use
                 xlink:href="#DejaVuSans-Oblique-6e"
                 transform="translate(35.205078 -16.390625) scale(0.7)"
                 id="use15" />
            </g>
          </g>
        </g>
        <g
           id="xtick_4">
          <g
             id="line2d_7">
            <path
               d="M 480.6 384.48  L 480.6 51.84  "
               clip-path="url(#pf9c85deeb5)"
               style="fill: none; stroke: #b0b0b0; stroke-width: 0.8; stroke-linecap: square"
               id="path15" />
          </g>
          <g
             id="line2d_8">
            <g
               id="g16">
              <use
                 xlink:href="#meb70c35ba1"
                 x="480.6"
                 y="384.48"
                 style="stroke: #000000; stroke-width: 0.8"
                 id="use16" />
            </g>
          </g>
          <g
             id="text_4">
            <!-- $f_{n+1}$ -->
            <g
               transform="translate(467.82 400.598125) scale(0.12 -0.12)"
               id="g20">
              <defs
                 id="defs16">
                <path
                   id="DejaVuSans-2b"
                   d="M 2944 4013  L 2944 2272  L 4684 2272  L 4684 1741  L 2944 1741  L 2944 0  L 2419 0  L 2419 1741  L 678 1741  L 678 2272  L 2419 2272  L 2419 4013  L 2944 4013  z "
                   transform="scale(0.015625)" />
              </defs>
              <use
                 xlink:href="#DejaVuSans-Oblique-66"
                 transform="translate(0 0.015625)"
                 id="use17" />
              <use
                 xlink:href="#DejaVuSans-Oblique-6e"
                 transform="translate(35.205078 -16.390625) scale(0.7)"
                 id="use18" />
              <use
                 xlink:href="#DejaVuSans-2b"
                 transform="translate(93.208008 -16.390625) scale(0.7)"
                 id="use19" />
              <use
                 xlink:href="#DejaVuSans-31"
                 transform="translate(165.498047 -16.390625) scale(0.7)"
                 id="use20" />
            </g>
          </g>
        </g>
        <g
           id="xtick_5">
          <g
             id="line2d_9">
            <path
               d="M 592.2 384.48  L 592.2 51.84  "
               clip-path="url(#pf9c85deeb5)"
               style="fill: none; stroke: #b0b0b0; stroke-width: 0.8; stroke-linecap: square"
               id="path20" />
          </g>
          <g
             id="line2d_10">
            <g
               id="g21">
              <use
                 xlink:href="#meb70c35ba1"
                 x="592.2"
                 y="384.48"
                 style="stroke: #000000; stroke-width: 0.8"
                 id="use21" />
            </g>
          </g>
          <g
             id="text_5">
            <!-- $f_{n+2}$ -->
            <g
               transform="translate(579.42 400.598125) scale(0.12 -0.12)"
               id="g25">
              <use
                 xlink:href="#DejaVuSans-Oblique-66"
                 transform="translate(0 0.015625)"
                 id="use22" />
              <use
                 xlink:href="#DejaVuSans-Oblique-6e"
                 transform="translate(35.205078 -16.390625) scale(0.7)"
                 id="use23" />
              <use
                 xlink:href="#DejaVuSans-2b"
                 transform="translate(93.208008 -16.390625) scale(0.7)"
                 id="use24" />
              <use
                 xlink:href="#DejaVuSans-32"
                 transform="translate(165.498047 -16.390625) scale(0.7)"
                 id="use25" />
            </g>
          </g>
        </g>
        <g
           id="text_6">
          <!-- Frequency -->
          <g
             transform="translate(338.004375 416.211875) scale(0.12 -0.12)"
             id="g34">
            <defs
               id="defs25">
              <path
                 id="DejaVuSans-46"
                 d="M 628 4666  L 3309 4666  L 3309 4134  L 1259 4134  L 1259 2759  L 3109 2759  L 3109 2228  L 1259 2228  L 1259 0  L 628 0  L 628 4666  z "
                 transform="scale(0.015625)" />
              <path
                 id="DejaVuSans-72"
                 d="M 2631 2963  Q 2534 3019 2420 3045  Q 2306 3072 2169 3072  Q 1681 3072 1420 2755  Q 1159 2438 1159 1844  L 1159 0  L 581 0  L 581 3500  L 1159 3500  L 1159 2956  Q 1341 3275 1631 3429  Q 1922 3584 2338 3584  Q 2397 3584 2469 3576  Q 2541 3569 2628 3553  L 2631 2963  z "
                 transform="scale(0.015625)" />
              <path
                 id="DejaVuSans-65"
                 d="M 3597 1894  L 3597 1613  L 953 1613  Q 991 1019 1311 708  Q 1631 397 2203 397  Q 2534 397 2845 478  Q 3156 559 3463 722  L 3463 178  Q 3153 47 2828 -22  Q 2503 -91 2169 -91  Q 1331 -91 842 396  Q 353 884 353 1716  Q 353 2575 817 3079  Q 1281 3584 2069 3584  Q 2775 3584 3186 3129  Q 3597 2675 3597 1894  z M 3022 2063  Q 3016 2534 2758 2815  Q 2500 3097 2075 3097  Q 1594 3097 1305 2825  Q 1016 2553 972 2059  L 3022 2063  z "
                 transform="scale(0.015625)" />
              <path
                 id="DejaVuSans-71"
                 d="M 947 1747  Q 947 1113 1208 752  Q 1469 391 1925 391  Q 2381 391 2643 752  Q 2906 1113 2906 1747  Q 2906 2381 2643 2742  Q 2381 3103 1925 3103  Q 1469 3103 1208 2742  Q 947 2381 947 1747  z M 2906 525  Q 2725 213 2448 61  Q 2172 -91 1784 -91  Q 1150 -91 751 415  Q 353 922 353 1747  Q 353 2572 751 3078  Q 1150 3584 1784 3584  Q 2172 3584 2448 3432  Q 2725 3281 2906 2969  L 2906 3500  L 3481 3500  L 3481 -1331  L 2906 -1331  L 2906 525  z "
                 transform="scale(0.015625)" />
              <path
                 id="DejaVuSans-75"
                 d="M 544 1381  L 544 3500  L 1119 3500  L 1119 1403  Q 1119 906 1312 657  Q 1506 409 1894 409  Q 2359 409 2629 706  Q 2900 1003 2900 1516  L 2900 3500  L 3475 3500  L 3475 0  L 2900 0  L 2900 538  Q 2691 219 2414 64  Q 2138 -91 1772 -91  Q 1169 -91 856 284  Q 544 659 544 1381  z M 1991 3584  L 1991 3584  z "
                 transform="scale(0.015625)" />
              <path
                 id="DejaVuSans-6e"
                 d="M 3513 2113  L 3513 0  L 2938 0  L 2938 2094  Q 2938 2591 2744 2837  Q 2550 3084 2163 3084  Q 1697 3084 1428 2787  Q 1159 2491 1159 1978  L 1159 0  L 581 0  L 581 3500  L 1159 3500  L 1159 2956  Q 1366 3272 1645 3428  Q 1925 3584 2291 3584  Q 2894 3584 3203 3211  Q 3513 2838 3513 2113  z "
                 transform="scale(0.015625)" />
              <path
                 id="DejaVuSans-63"
                 d="M 3122 3366  L 3122 2828  Q 2878 2963 2633 3030  Q 2388 3097 2138 3097  Q 1578 3097 1268 2742  Q 959 2388 959 1747  Q 959 1106 1268 751  Q 1578 397 2138 397  Q 2388 397 2633 464  Q 2878 531 3122 666  L 3122 134  Q 2881 22 2623 -34  Q 2366 -91 2075 -91  Q 1284 -91 818 406  Q 353 903 353 1747  Q 353 2603 823 3093  Q 1294 3584 2113 3584  Q 2378 3584 2631 3529  Q 2884 3475 3122 3366  z "
                 transform="scale(0.015625)" />
              <path
                 id="DejaVuSans-79"
                 d="M 2059 -325  Q 1816 -950 1584 -1140  Q 1353 -1331 966 -1331  L 506 -1331  L 506 -850  L 844 -850  Q 1081 -850 1212 -737  Q 1344 -625 1503 -206  L 1606 56  L 191 3500  L 800 3500  L 1894 763  L 2988 3500  L 3597 3500  L 2059 -325  z "
                 transform="scale(0.015625)" />
            </defs>
            <use
               xlink:href="#DejaVuSans-46"
               id="use26" />
            <use
               xlink:href="#DejaVuSans-72"
               x="50.269531"
               id="use27" />
            <use
               xlink:href="#DejaVuSans-65"
               x="89.132812"
               id="use28" />
            <use
               xlink:href="#DejaVuSans-71"
               x="150.65625"
               id="use29" />
            <use
               xlink:href="#DejaVuSans-75"
               x="214.132812"
               id="use30" />
            <use
               xlink:href="#DejaVuSans-65"
               x="277.511719"
               id="use31" />
            <use
               xlink:href="#DejaVuSans-6e"
               x="339.035156"
               id="use32" />
            <use
               xlink:href="#DejaVuSans-63"
               x="402.414062"
               id="use33" />
            <use
               xlink:href="#DejaVuSans-79"
               x="457.394531"
               id="use34" />
          </g>
        </g>
      </g>
      <g
         id="matplotlib.axis_2">
        <g
           id="ytick_1">
          <g
             id="line2d_11">
            <path
               d="M 90 363.69  L 648 363.69  "
               clip-path="url(#pf9c85deeb5)"
               style="fill: none; stroke: #b0b0b0; stroke-width: 0.8; stroke-linecap: square"
               id="path34" />
          </g>
          <g
             id="line2d_12">
            <defs
               id="defs34">
              <path
                 id="m51e381694c"
                 d="M 0 0  L -3.5 0  "
                 style="stroke: #000000; stroke-width: 0.8" />
            </defs>
            <g
               id="g35">
              <use
                 xlink:href="#m51e381694c"
                 x="90"
                 y="363.69"
                 style="stroke: #000000; stroke-width: 0.8"
                 id="use35" />
            </g>
          </g>
          <g
             id="text_7">
            <!-- 0.0 -->
            <g
               transform="translate(63.91625 368.249062) scale(0.12 -0.12)"
               id="g38">
              <defs
                 id="defs35">
                <path
                   id="DejaVuSans-30"
                   d="M 2034 4250  Q 1547 4250 1301 3770  Q 1056 3291 1056 2328  Q 1056 1369 1301 889  Q 1547 409 2034 409  Q 2525 409 2770 889  Q 3016 1369 3016 2328  Q 3016 3291 2770 3770  Q 2525 4250 2034 4250  z M 2034 4750  Q 2819 4750 3233 4129  Q 3647 3509 3647 2328  Q 3647 1150 3233 529  Q 2819 -91 2034 -91  Q 1250 -91 836 529  Q 422 1150 422 2328  Q 422 3509 836 4129  Q 1250 4750 2034 4750  z "
                   transform="scale(0.015625)" />
                <path
                   id="DejaVuSans-2e"
                   d="M 684 794  L 1344 794  L 1344 0  L 684 0  L 684 794  z "
                   transform="scale(0.015625)" />
              </defs>
              <use
                 xlink:href="#DejaVuSans-30"
                 id="use36" />
              <use
                 xlink:href="#DejaVuSans-2e"
                 x="63.623047"
                 id="use37" />
              <use
                 xlink:href="#DejaVuSans-30"
                 x="95.410156"
                 id="use38" />
            </g>
          </g>
        </g>
        <g
           id="ytick_2">
          <g
             id="line2d_13">
            <path
               d="M 90 259.74  L 648 259.74  "
               clip-path="url(#pf9c85deeb5)"
               style="fill: none; stroke: #b0b0b0; stroke-width: 0.8; stroke-linecap: square"
               id="path38" />
          </g>
          <g
             id="line2d_14">
            <g
               id="g39">
              <use
                 xlink:href="#m51e381694c"
                 x="90"
                 y="259.74"
                 style="stroke: #000000; stroke-width: 0.8"
                 id="use39" />
            </g>
          </g>
          <g
             id="text_8">
            <!-- 0.5 -->
            <g
               transform="translate(63.91625 264.299062) scale(0.12 -0.12)"
               id="g42">
              <defs
                 id="defs39">
                <path
                   id="DejaVuSans-35"
                   d="M 691 4666  L 3169 4666  L 3169 4134  L 1269 4134  L 1269 2991  Q 1406 3038 1543 3061  Q 1681 3084 1819 3084  Q 2600 3084 3056 2656  Q 3513 2228 3513 1497  Q 3513 744 3044 326  Q 2575 -91 1722 -91  Q 1428 -91 1123 -41  Q 819 9 494 109  L 494 744  Q 775 591 1075 516  Q 1375 441 1709 441  Q 2250 441 2565 725  Q 2881 1009 2881 1497  Q 2881 1984 2565 2268  Q 2250 2553 1709 2553  Q 1456 2553 1204 2497  Q 953 2441 691 2322  L 691 4666  z "
                   transform="scale(0.015625)" />
              </defs>
              <use
                 xlink:href="#DejaVuSans-30"
                 id="use40" />
              <use
                 xlink:href="#DejaVuSans-2e"
                 x="63.623047"
                 id="use41" />
              <use
                 xlink:href="#DejaVuSans-35"
                 x="95.410156"
                 id="use42" />
            </g>
          </g>
        </g>
        <g
           id="ytick_3">
          <g
             id="line2d_15">
            <path
               d="M 90 155.79  L 648 155.79  "
               clip-path="url(#pf9c85deeb5)"
               style="fill: none; stroke: #b0b0b0; stroke-width: 0.8; stroke-linecap: square"
               id="path42" />
          </g>
          <g
             id="line2d_16">
            <g
               id="g43">
              <use
                 xlink:href="#m51e381694c"
                 x="90"
                 y="155.79"
                 style="stroke: #000000; stroke-width: 0.8"
                 id="use43" />
            </g>
          </g>
          <g
             id="text_9">
            <!-- 1.0 -->
            <g
               transform="translate(63.91625 160.349062) scale(0.12 -0.12)"
               id="g46">
              <use
                 xlink:href="#DejaVuSans-31"
                 id="use44" />
              <use
                 xlink:href="#DejaVuSans-2e"
                 x="63.623047"
                 id="use45" />
              <use
                 xlink:href="#DejaVuSans-30"
                 x="95.410156"
                 id="use46" />
            </g>
          </g>
        </g>
        <g
           id="ytick_4">
          <g
             id="line2d_17">
            <path
               d="M 90 51.84  L 648 51.84  "
               clip-path="url(#pf9c85deeb5)"
               style="fill: none; stroke: #b0b0b0; stroke-width: 0.8; stroke-linecap: square"
               id="path46" />
          </g>
          <g
             id="line2d_18">
            <g
               id="g47">
              <use
                 xlink:href="#m51e381694c"
                 x="90"
                 y="51.84"
                 style="stroke: #000000; stroke-width: 0.8"
                 id="use47" />
            </g>
          </g>
          <g
             id="text_10">
            <!-- 1.5 -->
            <g
               transform="translate(63.91625 56.399062) scale(0.12 -0.12)"
               id="g50">
              <use
                 xlink:href="#DejaVuSans-31"
                 id="use48" />
              <use
                 xlink:href="#DejaVuSans-2e"
                 x="63.623047"
                 id="use49" />
              <use
                 xlink:href="#DejaVuSans-35"
                 x="95.410156"
                 id="use50" />
            </g>
          </g>
        </g>
        <g
           id="text_11">
          <!-- Amplitude -->
          <g
             transform="translate(57.420625 248.907187) rotate(-90) scale(0.12 -0.12)"
             id="g59">
            <defs
               id="defs50">
              <path
                 id="DejaVuSans-41"
                 d="M 2188 4044  L 1331 1722  L 3047 1722  L 2188 4044  z M 1831 4666  L 2547 4666  L 4325 0  L 3669 0  L 3244 1197  L 1141 1197  L 716 0  L 50 0  L 1831 4666  z "
                 transform="scale(0.015625)" />
              <path
                 id="DejaVuSans-6d"
                 d="M 3328 2828  Q 3544 3216 3844 3400  Q 4144 3584 4550 3584  Q 5097 3584 5394 3201  Q 5691 2819 5691 2113  L 5691 0  L 5113 0  L 5113 2094  Q 5113 2597 4934 2840  Q 4756 3084 4391 3084  Q 3944 3084 3684 2787  Q 3425 2491 3425 1978  L 3425 0  L 2847 0  L 2847 2094  Q 2847 2600 2669 2842  Q 2491 3084 2119 3084  Q 1678 3084 1418 2786  Q 1159 2488 1159 1978  L 1159 0  L 581 0  L 581 3500  L 1159 3500  L 1159 2956  Q 1356 3278 1631 3431  Q 1906 3584 2284 3584  Q 2666 3584 2933 3390  Q 3200 3197 3328 2828  z "
                 transform="scale(0.015625)" />
              <path
                 id="DejaVuSans-70"
                 d="M 1159 525  L 1159 -1331  L 581 -1331  L 581 3500  L 1159 3500  L 1159 2969  Q 1341 3281 1617 3432  Q 1894 3584 2278 3584  Q 2916 3584 3314 3078  Q 3713 2572 3713 1747  Q 3713 922 3314 415  Q 2916 -91 2278 -91  Q 1894 -91 1617 61  Q 1341 213 1159 525  z M 3116 1747  Q 3116 2381 2855 2742  Q 2594 3103 2138 3103  Q 1681 3103 1420 2742  Q 1159 2381 1159 1747  Q 1159 1113 1420 752  Q 1681 391 2138 391  Q 2594 391 2855 752  Q 3116 1113 3116 1747  z "
                 transform="scale(0.015625)" />
              <path
                 id="DejaVuSans-6c"
                 d="M 603 4863  L 1178 4863  L 1178 0  L 603 0  L 603 4863  z "
                 transform="scale(0.015625)" />
              <path
                 id="DejaVuSans-69"
                 d="M 603 3500  L 1178 3500  L 1178 0  L 603 0  L 603 3500  z M 603 4863  L 1178 4863  L 1178 4134  L 603 4134  L 603 4863  z "
                 transform="scale(0.015625)" />
              <path
                 id="DejaVuSans-74"
                 d="M 1172 4494  L 1172 3500  L 2356 3500  L 2356 3053  L 1172 3053  L 1172 1153  Q 1172 725 1289 603  Q 1406 481 1766 481  L 2356 481  L 2356 0  L 1766 0  Q 1100 0 847 248  Q 594 497 594 1153  L 594 3053  L 172 3053  L 172 3500  L 594 3500  L 594 4494  L 1172 4494  z "
                 transform="scale(0.015625)" />
              <path
                 id="DejaVuSans-64"
                 d="M 2906 2969  L 2906 4863  L 3481 4863  L 3481 0  L 2906 0  L 2906 525  Q 2725 213 2448 61  Q 2172 -91 1784 -91  Q 1150 -91 751 415  Q 353 922 353 1747  Q 353 2572 751 3078  Q 1150 3584 1784 3584  Q 2172 3584 2448 3432  Q 2725 3281 2906 2969  z M 947 1747  Q 947 1113 1208 752  Q 1469 391 1925 391  Q 2381 391 2643 752  Q 2906 1113 2906 1747  Q 2906 2381 2643 2742  Q 2381 3103 1925 3103  Q 1469 3103 1208 2742  Q 947 2381 947 1747  z "
                 transform="scale(0.015625)" />
            </defs>
            <use
               xlink:href="#DejaVuSans-41"
               id="use51" />
            <use
               xlink:href="#DejaVuSans-6d"
               x="68.408203"
               id="use52" />
            <use
               xlink:href="#DejaVuSans-70"
               x="165.820312"
               id="use53" />
            <use
               xlink:href="#DejaVuSans-6c"
               x="229.296875"
               id="use54" />
            <use
               xlink:href="#DejaVuSans-69"
               x="257.080078"
               id="use55" />
            <use
               xlink:href="#DejaVuSans-74"
               x="284.863281"
               id="use56" />
            <use
               xlink:href="#DejaVuSans-75"
               x="324.072266"
               id="use57" />
            <use
               xlink:href="#DejaVuSans-64"
               x="387.451172"
               id="use58" />
            <use
               xlink:href="#DejaVuSans-65"
               x="450.927734"
               id="use59" />
          </g>
        </g>
      </g>
      <g
         id="line2d_19">
        <path
           d="M 90 363.69  L 91.117117 363.603348  L 92.234234 363.330213  L 93.351351 362.851186  L 94.468468 362.147513  L 95.585586 361.201307  L 96.702703 359.995761  L 97.81982 358.515354  L 98.936937 356.746054  L 100.054054 354.675513  L 101.72973 350.982505  L 103.405405 346.562009  L 105.081081 341.398903  L 106.756757 335.490499  L 108.432432 328.847288  L 110.666667 318.890389  L 112.900901 307.767335  L 115.693694 292.439196  L 119.045045 272.445119  L 130.216216 203.952529  L 132.45045 192.104472  L 134.684685 181.551686  L 136.36036 174.641348  L 138.036036 168.698554  L 139.711712 163.805953  L 140.828829 161.162145  L 141.945946 159.032458  L 143.063063 157.430285  L 144.18018 156.365727  L 144.738739 156.037288  L 145.297297 155.845506  L 145.855856 155.790685  L 146.414414 155.872912  L 146.972973 156.092056  L 147.531532 156.447772  L 148.648649 157.56645  L 149.765766 159.221884  L 150.882883 161.403639  L 152 164.097999  L 153.117117 167.288081  L 154.792793 172.958349  L 156.468468 179.619494  L 158.144144 187.179523  L 160.378378 198.478024  L 162.612613 210.920432  L 165.963964 231.090819  L 176.018018 293.078863  L 178.810811 308.349211  L 181.045045 319.416903  L 183.279279 329.312619  L 184.954955 335.907441  L 186.630631 341.766336  L 188.306306 346.87971  L 189.981982 351.251103  L 191.657658 354.896437  L 193.333333 357.843032  L 194.45045 359.437403  L 195.567568 360.75111  L 196.684685 361.799102  L 197.801802 362.597697  L 198.918919 363.164376  L 200.036036 363.517571  L 201.153153 363.676454  L 202.27027 363.660724  L 203.945946 363.353547  L 205.621622 362.766353  L 207.855856 361.663115  L 210.648649 359.980479  L 215.675676 356.878486  L 217.90991 355.727053  L 220.144144 354.822359  L 222.378378 354.209379  L 224.054054 353.955249  L 225.72973 353.879547  L 227.405405 353.977489  L 229.63964 354.35966  L 231.873874 354.9944  L 234.666667 356.068036  L 238.018018 357.619463  L 245.279279 361.053951  L 248.072072 362.113804  L 250.864865 362.921291  L 253.099099 363.362451  L 255.333333 363.616321  L 258.126126 363.681317  L 260.918919 363.49827  L 264.27027 363.02501  L 269.297297 362.032382  L 274.882883 360.959404  L 278.234234 360.511652  L 281.585586 360.286054  L 284.936937 360.303455  L 288.288288 360.550118  L 292.198198 361.068629  L 299.459459 362.333844  L 304.486486 363.111855  L 308.396396 363.512927  L 312.306306 363.684016  L 316.216216 363.625497  L 320.684685 363.331212  L 336.882883 361.99307  L 341.351351 361.975196  L 346.378378 362.199534  L 353.081081 362.758902  L 362.018018 363.484154  L 367.045045 363.673833  L 372.072072 363.652058  L 378.216216 363.391397  L 392.738739 362.67238  L 398.324324 362.66807  L 405.027027 362.904445  L 422.342342 363.673684  L 429.045045 363.644185  L 437.981982 363.339042  L 448.594595 363.012179  L 455.855856 363.029063  L 464.792793 363.300815  L 477.081081 363.666848  L 484.900901 363.657205  L 496.072072 363.377124  L 506.684685 363.191642  L 515.621622 363.283496  L 538.522523 363.683956  L 549.693694 363.503814  L 563.099099 363.315078  L 573.153153 363.412946  L 593.81982 363.68729  L 606.666667 363.526624  L 620.630631 363.399358  L 633.477477 363.543228  L 648 363.69  L 648 363.69  "
           clip-path="url(#pf9c85deeb5)"
           style="fill: none; stroke: #1f77b4; stroke-width: 1.5; stroke-linecap: square"
           id="path59" />
      </g>
      <g
         id="line2d_20">
        <path
           d="M 90 363.69  L 93.90991 363.573002  L 97.81982 363.222215  L 102.288288 362.580527  L 115.135135 360.527275  L 118.486486 360.294838  L 121.837838 360.293573  L 125.189189 360.535027  L 128.540541 360.995971  L 133.009009 361.846401  L 139.711712 363.155064  L 143.063063 363.571813  L 145.855856 363.689948  L 148.648649 363.548572  L 150.882883 363.229374  L 153.117117 362.72306  L 155.90991 361.840379  L 158.702703 360.719556  L 162.612613 358.883752  L 168.756757 355.972979  L 171.54955 354.920875  L 173.783784 354.30936  L 176.018018 353.954716  L 177.693694 353.879444  L 179.369369 353.978789  L 181.045045 354.256745  L 182.720721 354.711021  L 184.954955 355.574256  L 187.189189 356.692464  L 189.981982 358.347798  L 195.567568 361.786103  L 197.801802 362.858402  L 199.477477 363.412159  L 201.153153 363.676882  L 202.27027 363.659283  L 203.387387 363.4631  L 204.504505 363.068721  L 205.621622 362.457106  L 206.738739 361.609996  L 207.855856 360.510125  L 208.972973 359.141434  L 210.09009 357.489271  L 211.207207 355.540592  L 212.882883 352.037538  L 214.558559 347.81301  L 216.234234 342.848724  L 217.90991 337.138595  L 219.585586 330.689542  L 221.81982 320.978752  L 224.054054 310.079182  L 226.288288 298.121197  L 229.081081 281.951212  L 232.990991 257.804437  L 239.693694 216.153178  L 242.486486 200.278363  L 244.720721 188.790487  L 246.396396 181.062742  L 248.072072 174.214076  L 249.747748 168.338871  L 250.864865 165.003821  L 251.981982 162.158832  L 253.099099 159.821709  L 254.216216 158.007131  L 255.333333 156.72653  L 256.45045 155.987986  L 257.009009 155.823579  L 257.567568 155.796168  L 258.126126 155.905796  L 258.684685 156.152289  L 259.243243 156.535257  L 260.36036 157.707986  L 261.477477 159.416576  L 262.594595 161.650262  L 263.711712 164.395005  L 264.828829 167.633613  L 266.504505 173.37255  L 268.18018 180.096617  L 269.855856 187.713014  L 272.09009 199.07532  L 274.324324 211.567439  L 277.675676 231.78437  L 287.171171 290.508314  L 289.963964 306.006327  L 292.198198 317.293361  L 294.432432 327.432351  L 296.108108 334.220067  L 297.783784 340.276703  L 299.459459 345.589067  L 301.135135 350.157261  L 302.810811 353.99399  L 304.486486 357.123643  L 305.603604 358.834121  L 306.720721 360.258383  L 307.837838 361.410775  L 308.954955 362.307092  L 310.072072 362.964374  L 311.189189 363.400698  L 312.306306 363.634967  L 313.423423 363.686694  L 314.540541 363.575791  L 316.216216 363.14849  L 317.891892 362.468113  L 320.126126 361.281133  L 324.036036 358.841456  L 327.387387 356.816015  L 329.621622 355.675489  L 331.855856 354.784507  L 334.09009 354.18688  L 335.765766 353.944673  L 337.441441 353.88076  L 339.117117 353.989969  L 341.351351 354.385763  L 343.585586 355.031932  L 346.378378 356.116068  L 350.288288 357.947597  L 356.432432 360.864625  L 359.225225 361.959936  L 362.018018 362.810748  L 364.252252 363.289231  L 366.486486 363.580359  L 369.279279 363.688705  L 372.072072 363.542271  L 375.423423 363.100567  L 379.891892 362.242197  L 386.594595 360.941401  L 389.945946 360.500339  L 393.297297 360.282705  L 396.648649 360.308151  L 400 360.561854  L 403.90991 361.086181  L 411.72973 362.449296  L 416.756757 363.195594  L 420.666667 363.55914  L 424.576577 363.689629  L 428.486486 363.594851  L 433.513514 363.220612  L 446.918919 362.050642  L 451.387387 361.956587  L 455.855856 362.076711  L 461.441441 362.466365  L 475.405405 363.575289  L 480.432432 363.689883  L 486.018018 363.576812  L 493.837838 363.150368  L 502.774775 362.709977  L 508.918919 362.653808  L 515.063063 362.830943  L 536.288288 363.689967  L 542.990991 363.58426  L 565.333333 363.000651  L 573.153153 363.182493  L 590.468468 363.684399  L 598.288288 363.626241  L 623.423423 363.217381  L 634.594595 363.47363  L 646.324324 363.686152  L 648 363.69  L 648 363.69  "
           clip-path="url(#pf9c85deeb5)"
           style="fill: none; stroke: #ff7f0e; stroke-width: 1.5; stroke-linecap: square"
           id="path60" />
      </g>
      <g
         id="line2d_21">
        <path
           d="M 90 363.69  L 96.702703 363.569897  L 105.081081 363.159381  L 115.135135 362.696766  L 121.279279 362.659419  L 127.423423 362.859433  L 145.855856 363.689987  L 150.882883 363.580148  L 156.468468 363.226188  L 172.666667 361.99424  L 177.135135 361.974125  L 181.603604 362.168368  L 187.189189 362.646449  L 197.243243 363.558893  L 201.153153 363.688527  L 205.063063 363.598397  L 208.972973 363.273454  L 213.441441 362.653543  L 227.405405 360.463913  L 230.756757 360.275248  L 234.108108 360.322673  L 237.459459 360.611033  L 241.369369 361.209465  L 247.513514 362.44961  L 251.981982 363.257966  L 255.333333 363.621582  L 258.126126 363.681088  L 260.36036 363.537053  L 262.594595 363.208482  L 264.828829 362.692928  L 267.621622 361.799752  L 270.414414 360.670642  L 274.324324 358.828845  L 279.90991 356.164423  L 282.702703 355.069969  L 284.936937 354.412494  L 287.171171 354.003172  L 288.846847 353.882745  L 290.522523 353.934891  L 292.198198 354.16517  L 293.873874 354.573028  L 296.108108 355.379549  L 298.342342 356.4512  L 301.135135 358.069736  L 307.837838 362.13999  L 309.513514 362.902958  L 311.189189 363.439549  L 312.864865 363.682591  L 313.981982 363.648028  L 315.099099 363.4329  L 316.216216 363.017643  L 317.333333 362.383286  L 318.45045 361.511658  L 319.567568 360.385606  L 320.684685 358.989202  L 321.801802 357.307947  L 322.918919 355.328967  L 324.594595 351.778613  L 326.27027 347.505207  L 327.945946 342.491247  L 329.621622 336.731494  L 331.297297 330.233755  L 333.531532 320.461098  L 335.765766 309.505154  L 338 297.498432  L 340.792793 281.281305  L 344.702703 257.100245  L 351.405405 215.492262  L 354.198198 199.675445  L 356.432432 188.250013  L 358.108108 180.577709  L 359.783784 173.791134  L 361.459459 167.983883  L 362.576577 164.696952  L 363.693694 161.901998  L 364.810811 159.616522  L 365.927928 157.854883  L 367.045045 156.628179  L 368.162162 155.944154  L 368.720721 155.807133  L 369.279279 155.807133  L 369.837838 155.944154  L 370.396396 156.217981  L 371.513514 157.1741  L 372.630631 158.669451  L 373.747748 160.694603  L 374.864865 163.236812  L 375.981982 166.280133  L 377.657658 171.7423  L 379.333333 178.212237  L 381.009009 185.600414  L 383.243243 196.703461  L 385.477477 208.992379  L 388.27027 225.581615  L 393.855856 260.616785  L 397.765766 284.615036  L 400.558559 300.589785  L 402.792793 312.348558  L 405.027027 323.019424  L 407.261261 332.480629  L 408.936937 338.734071  L 410.612613 344.245437  L 412.288288 349.011339  L 413.963964 353.041204  L 415.63964 356.356408  L 416.756757 358.185026  L 417.873874 359.72214  L 418.990991 360.981462  L 420.108108 361.978229  L 421.225225 362.729009  L 422.342342 363.25149  L 423.459459 363.564269  L 424.576577 363.68664  L 425.693694 363.638383  L 427.369369 363.289958  L 429.045045 362.670517  L 431.279279 361.53786  L 434.630631 359.482773  L 439.099099 356.754004  L 441.333333 355.624555  L 443.567568 354.747393  L 445.801802 354.16517  L 447.477477 353.934891  L 449.153153 353.882745  L 450.828829 354.003172  L 453.063063 354.412494  L 455.297297 355.069969  L 458.09009 356.164423  L 462 358.002538  L 468.144144 360.912405  L 470.936937 361.999003  L 473.72973 362.83907  L 475.963964 363.308242  L 478.198198 363.590035  L 480.990991 363.687466  L 483.783784 363.531757  L 487.135135 363.081979  L 491.603604 362.218945  L 498.306306 360.923587  L 501.657658 360.489278  L 505.009009 360.279628  L 508.36036 360.313103  L 511.711712 360.573796  L 515.621622 361.103854  L 530.702703 363.440649  L 534.612613 363.665865  L 538.522523 363.657563  L 542.990991 363.405111  L 550.252252 362.702767  L 556.954955 362.133216  L 561.423423 361.964695  L 565.891892 362.011682  L 570.918919 362.294566  L 580.414414 363.133343  L 586.558559 363.554846  L 591.585586 363.688417  L 597.171171 363.593865  L 604.432432 363.212069  L 613.927928 362.723473  L 620.072072 362.64954  L 626.216216 362.811628  L 648 363.69  L 648 363.69  "
           clip-path="url(#pf9c85deeb5)"
           style="fill: none; stroke: #2ca02c; stroke-width: 1.5; stroke-linecap: square"
           id="path61" />
      </g>
      <g
         id="line2d_22">
        <path
           d="M 90 363.69  L 99.495495 363.572773  L 120.162162 363.193295  L 129.099099 363.343668  L 145.855856 363.689994  L 153.675676 363.57705  L 177.135135 363.004102  L 184.954955 363.202691  L 200.594595 363.687322  L 207.297297 363.602711  L 215.117117 363.247385  L 226.846847 362.693967  L 232.990991 362.661027  L 239.135135 362.8649  L 257.567568 363.689883  L 262.594595 363.575289  L 268.18018 363.217155  L 284.378378 361.991132  L 288.846847 361.976423  L 293.315315 362.175737  L 298.900901 362.657647  L 308.954955 363.565241  L 312.864865 363.68917  L 316.774775 363.59234  L 320.684685 363.260897  L 325.153153 362.635435  L 338.558559 360.505282  L 341.90991 360.287258  L 345.261261 360.302184  L 348.612613 360.55939  L 351.963964 361.033264  L 356.990991 362.009058  L 363.135135 363.190296  L 366.486486 363.589806  L 369.279279 363.688692  L 372.072072 363.52507  L 374.306306 363.187119  L 376.540541 362.662348  L 379.333333 361.758745  L 382.126126 360.621456  L 386.036036 358.773882  L 391.621622 356.116068  L 394.414414 355.031932  L 396.648649 354.385763  L 398.882883 353.989969  L 400.558559 353.88076  L 402.234234 353.944673  L 403.90991 354.18688  L 405.585586 354.606395  L 407.81982 355.42724  L 410.054054 356.510763  L 412.846847 358.138912  L 418.990991 361.906677  L 421.225225 362.946509  L 422.900901 363.465634  L 424.576577 363.686694  L 425.693694 363.634967  L 426.810811 363.400698  L 427.927928 362.964374  L 429.045045 362.307092  L 430.162162 361.410775  L 431.279279 360.258383  L 432.396396 358.834121  L 433.513514 357.123643  L 434.630631 355.114251  L 436.306306 351.51647  L 437.981982 347.194108  L 439.657658 342.130451  L 441.333333 336.321108  L 443.009009 329.774778  L 445.243243 319.940477  L 447.477477 308.928491  L 449.711712 296.873466  L 452.504505 280.609876  L 456.414414 256.39568  L 462.558559 218.146796  L 465.351351 202.10352  L 467.585586 190.432433  L 469.81982 180.096617  L 471.495495 173.37255  L 473.171171 167.633613  L 474.288288 164.395005  L 475.405405 161.650262  L 476.522523 159.416576  L 477.63964 157.707986  L 478.756757 156.535257  L 479.315315 156.152289  L 479.873874 155.905796  L 480.432432 155.796168  L 480.990991 155.823579  L 481.54955 155.987986  L 482.108108 156.289128  L 483.225225 157.299499  L 484.342342 158.84831  L 485.459459 160.925795  L 486.576577 163.518885  L 487.693694 166.61132  L 489.369369 172.143199  L 491.045045 178.677276  L 492.720721 186.123191  L 494.954955 197.29206  L 497.189189 209.632864  L 499.981982 226.266099  L 505.567568 261.318591  L 509.477477 285.276894  L 512.27027 301.201195  L 514.504505 312.909126  L 516.738739 323.522041  L 518.972973 332.920348  L 520.648649 339.124691  L 522.324324 344.586318  L 524 349.302721  L 525.675676 353.28415  L 527.351351 356.552743  L 528.468468 358.351642  L 529.585586 359.860333  L 530.702703 361.09269  L 531.81982 362.064093  L 532.936937 362.79123  L 534.054054 363.291891  L 535.171171 363.584751  L 536.288288 363.689163  L 537.405405 363.624943  L 539.081081 363.256347  L 540.756757 362.621229  L 542.990991 361.474428  L 546.342342 359.411434  L 550.252252 357.004771  L 552.486486 355.832037  L 554.720721 354.900261  L 556.954955 354.256745  L 558.630631 353.978789  L 560.306306 353.879444  L 561.981982 353.954716  L 564.216216 354.30936  L 566.45045 354.920875  L 569.243243 355.972979  L 572.594595 357.510842  L 579.855856 360.95989  L 582.648649 362.037673  L 585.441441 362.866935  L 587.675676 363.326782  L 589.90991 363.599253  L 592.702703 363.68582  L 595.495495 363.520917  L 598.846847 363.063187  L 603.873874 362.079053  L 610.018018 360.905967  L 613.369369 360.478469  L 616.720721 360.276826  L 620.072072 360.318311  L 623.423423 360.585943  L 627.333333 361.121643  L 641.855856 363.400029  L 645.765766 363.652157  L 648 363.69  L 648 363.69  "
           clip-path="url(#pf9c85deeb5)"
           style="fill: none; stroke: #d62728; stroke-width: 1.5; stroke-linecap: square"
           id="path62" />
      </g>
      <g
         id="line2d_23">
        <path
           d="M 90 363.69  L 102.288288 363.578783  L 120.162162 363.400395  L 133.009009 363.554713  L 147.531532 363.686858  L 158.702703 363.536022  L 174.900901 363.315078  L 185.513514 363.444481  L 202.27027 363.689386  L 211.765766 363.557069  L 231.315315 363.191642  L 240.252252 363.331967  L 257.567568 363.689948  L 265.387387 363.573964  L 288.846847 363.005314  L 296.666667 363.206838  L 312.306306 363.687882  L 319.009009 363.599305  L 326.828829 363.241159  L 338.558559 362.691241  L 344.702703 362.662716  L 350.846847 362.870419  L 368.720721 363.689675  L 373.747748 363.594115  L 379.333333 363.252924  L 396.09009 361.988152  L 400.558559 361.978857  L 405.027027 362.183216  L 410.612613 362.66888  L 420.108108 363.539025  L 424.576577 363.689631  L 428.486486 363.586088  L 432.396396 363.248171  L 436.864865 362.617228  L 450.27027 360.49461  L 453.621622 360.283861  L 456.972973 360.306898  L 460.324324 360.571939  L 463.675676 361.052177  L 468.702703 362.032382  L 474.846847 363.207569  L 478.198198 363.598282  L 480.990991 363.687431  L 483.225225 363.570224  L 485.459459 363.269749  L 487.693694 362.781971  L 490.486486 361.920474  L 493.279279 360.816553  L 497.189189 358.993373  L 503.333333 356.068036  L 506.126126 354.9944  L 508.36036 354.35966  L 510.594595 353.977489  L 512.27027 353.879547  L 513.945946 353.955249  L 515.621622 354.209379  L 517.297297 354.640518  L 519.531532 355.475592  L 521.765766 356.570834  L 524.558559 358.208323  L 530.702703 361.966013  L 532.936937 362.989034  L 534.612613 363.490395  L 536.288288 363.68917  L 537.405405 363.620081  L 538.522523 363.366476  L 539.63964 362.908894  L 540.756757 362.228507  L 541.873874 361.30733  L 542.990991 360.12844  L 544.108108 358.676176  L 545.225225 356.93635  L 546.342342 354.896437  L 548.018018 351.251103  L 549.693694 346.87971  L 551.369369 341.766336  L 553.045045 335.907441  L 554.720721 329.312619  L 556.954955 319.416903  L 559.189189 308.349211  L 561.423423 296.246325  L 564.216216 279.936955  L 568.126126 255.69078  L 574.27027 217.480483  L 577.063063 201.492436  L 579.297297 189.88173  L 581.531532 179.619494  L 583.207207 172.958349  L 584.882883 167.288081  L 586 164.097999  L 587.117117 161.403639  L 588.234234 159.221884  L 589.351351 157.56645  L 590.468468 156.447772  L 591.027027 156.092056  L 591.585586 155.872912  L 592.144144 155.790685  L 592.702703 155.845506  L 593.261261 156.037288  L 593.81982 156.365727  L 594.936937 157.430285  L 596.054054 159.032458  L 597.171171 161.162145  L 598.288288 163.805953  L 599.405405 166.947309  L 601.081081 172.548557  L 602.756757 179.146371  L 604.432432 186.649571  L 606.666667 197.883592  L 608.900901 210.275561  L 612.252252 230.398269  L 622.306306 292.439196  L 625.099099 307.767335  L 627.333333 318.890389  L 629.567568 328.847288  L 631.243243 335.490499  L 632.918919 341.398903  L 634.594595 346.562009  L 636.27027 350.982505  L 637.945946 354.675513  L 639.621622 357.667629  L 640.738739 359.290829  L 641.855856 360.631954  L 642.972973 361.705805  L 644.09009 362.528571  L 645.207207 363.117626  L 646.324324 363.491317  L 647.441441 363.668752  L 648 363.69  L 648 363.69  "
           clip-path="url(#pf9c85deeb5)"
           style="fill: none; stroke: #9467bd; stroke-width: 1.5; stroke-linecap: square"
           id="path63" />
      </g>
      <g
         id="patch_3">
        <path
           d="M 90 384.48  L 90 51.84  "
           style="fill: none; stroke: #000000; stroke-width: 0.8; stroke-linejoin: miter; stroke-linecap: square"
           id="path64" />
      </g>
      <g
         id="patch_4">
        <path
           d="M 648 384.48  L 648 51.84  "
           style="fill: none; stroke: #000000; stroke-width: 0.8; stroke-linejoin: miter; stroke-linecap: square"
           id="path65" />
      </g>
      <g
         id="patch_5">
        <path
           d="M 90 384.48  L 648 384.48  "
           style="fill: none; stroke: #000000; stroke-width: 0.8; stroke-linejoin: miter; stroke-linecap: square"
           id="path66" />
      </g>
      <g
         id="patch_6">
        <path
           d="M 90 51.84  L 648 51.84  "
           style="fill: none; stroke: #000000; stroke-width: 0.8; stroke-linejoin: miter; stroke-linecap: square"
           id="path67" />
      </g>
      <g
         id="text_12">
        <!-- OFDM power spectral density -->
        <g
           transform="translate(263.010375 45.84) scale(0.144 -0.144)"
           id="g93">
          <defs
             id="defs67">
            <path
               id="DejaVuSans-4f"
               d="M 2522 4238  Q 1834 4238 1429 3725  Q 1025 3213 1025 2328  Q 1025 1447 1429 934  Q 1834 422 2522 422  Q 3209 422 3611 934  Q 4013 1447 4013 2328  Q 4013 3213 3611 3725  Q 3209 4238 2522 4238  z M 2522 4750  Q 3503 4750 4090 4092  Q 4678 3434 4678 2328  Q 4678 1225 4090 567  Q 3503 -91 2522 -91  Q 1538 -91 948 565  Q 359 1222 359 2328  Q 359 3434 948 4092  Q 1538 4750 2522 4750  z "
               transform="scale(0.015625)" />
            <path
               id="DejaVuSans-44"
               d="M 1259 4147  L 1259 519  L 2022 519  Q 2988 519 3436 956  Q 3884 1394 3884 2338  Q 3884 3275 3436 3711  Q 2988 4147 2022 4147  L 1259 4147  z M 628 4666  L 1925 4666  Q 3281 4666 3915 4102  Q 4550 3538 4550 2338  Q 4550 1131 3912 565  Q 3275 0 1925 0  L 628 0  L 628 4666  z "
               transform="scale(0.015625)" />
            <path
               id="DejaVuSans-4d"
               d="M 628 4666  L 1569 4666  L 2759 1491  L 3956 4666  L 4897 4666  L 4897 0  L 4281 0  L 4281 4097  L 3078 897  L 2444 897  L 1241 4097  L 1241 0  L 628 0  L 628 4666  z "
               transform="scale(0.015625)" />
            <path
               id="DejaVuSans-20"
               transform="scale(0.015625)" />
            <path
               id="DejaVuSans-6f"
               d="M 1959 3097  Q 1497 3097 1228 2736  Q 959 2375 959 1747  Q 959 1119 1226 758  Q 1494 397 1959 397  Q 2419 397 2687 759  Q 2956 1122 2956 1747  Q 2956 2369 2687 2733  Q 2419 3097 1959 3097  z M 1959 3584  Q 2709 3584 3137 3096  Q 3566 2609 3566 1747  Q 3566 888 3137 398  Q 2709 -91 1959 -91  Q 1206 -91 779 398  Q 353 888 353 1747  Q 353 2609 779 3096  Q 1206 3584 1959 3584  z "
               transform="scale(0.015625)" />
            <path
               id="DejaVuSans-77"
               d="M 269 3500  L 844 3500  L 1563 769  L 2278 3500  L 2956 3500  L 3675 769  L 4391 3500  L 4966 3500  L 4050 0  L 3372 0  L 2619 2869  L 1863 0  L 1184 0  L 269 3500  z "
               transform="scale(0.015625)" />
            <path
               id="DejaVuSans-73"
               d="M 2834 3397  L 2834 2853  Q 2591 2978 2328 3040  Q 2066 3103 1784 3103  Q 1356 3103 1142 2972  Q 928 2841 928 2578  Q 928 2378 1081 2264  Q 1234 2150 1697 2047  L 1894 2003  Q 2506 1872 2764 1633  Q 3022 1394 3022 966  Q 3022 478 2636 193  Q 2250 -91 1575 -91  Q 1294 -91 989 -36  Q 684 19 347 128  L 347 722  Q 666 556 975 473  Q 1284 391 1588 391  Q 1994 391 2212 530  Q 2431 669 2431 922  Q 2431 1156 2273 1281  Q 2116 1406 1581 1522  L 1381 1569  Q 847 1681 609 1914  Q 372 2147 372 2553  Q 372 3047 722 3315  Q 1072 3584 1716 3584  Q 2034 3584 2315 3537  Q 2597 3491 2834 3397  z "
               transform="scale(0.015625)" />
            <path
               id="DejaVuSans-61"
               d="M 2194 1759  Q 1497 1759 1228 1600  Q 959 1441 959 1056  Q 959 750 1161 570  Q 1363 391 1709 391  Q 2188 391 2477 730  Q 2766 1069 2766 1631  L 2766 1759  L 2194 1759  z M 3341 1997  L 3341 0  L 2766 0  L 2766 531  Q 2569 213 2275 61  Q 1981 -91 1556 -91  Q 1019 -91 701 211  Q 384 513 384 1019  Q 384 1609 779 1909  Q 1175 2209 1959 2209  L 2766 2209  L 2766 2266  Q 2766 2663 2505 2880  Q 2244 3097 1772 3097  Q 1472 3097 1187 3025  Q 903 2953 641 2809  L 641 3341  Q 956 3463 1253 3523  Q 1550 3584 1831 3584  Q 2591 3584 2966 3190  Q 3341 2797 3341 1997  z "
               transform="scale(0.015625)" />
          </defs>
          <use
             xlink:href="#DejaVuSans-4f"
             id="use67" />
          <use
             xlink:href="#DejaVuSans-46"
             x="78.710938"
             id="use68" />
          <use
             xlink:href="#DejaVuSans-44"
             x="136.230469"
             id="use69" />
          <use
             xlink:href="#DejaVuSans-4d"
             x="213.232422"
             id="use70" />
          <use
             xlink:href="#DejaVuSans-20"
             x="299.511719"
             id="use71" />
          <use
             xlink:href="#DejaVuSans-70"
             x="331.298828"
             id="use72" />
          <use
             xlink:href="#DejaVuSans-6f"
             x="394.775391"
             id="use73" />
          <use
             xlink:href="#DejaVuSans-77"
             x="455.957031"
             id="use74" />
          <use
             xlink:href="#DejaVuSans-65"
             x="537.744141"
             id="use75" />
          <use
             xlink:href="#DejaVuSans-72"
             x="599.267578"
             id="use76" />
          <use
             xlink:href="#DejaVuSans-20"
             x="640.380859"
             id="use77" />
          <use
             xlink:href="#DejaVuSans-73"
             x="672.167969"
             id="use78" />
          <use
             xlink:href="#DejaVuSans-70"
             x="724.267578"
             id="use79" />
          <use
             xlink:href="#DejaVuSans-65"
             x="787.744141"
             id="use80" />
          <use
             xlink:href="#DejaVuSans-63"
             x="849.267578"
             id="use81" />
          <use
             xlink:href="#DejaVuSans-74"
             x="904.248047"
             id="use82" />
          <use
             xlink:href="#DejaVuSans-72"
             x="943.457031"
             id="use83" />
          <use
             xlink:href="#DejaVuSans-61"
             x="984.570312"
             id="use84" />
          <use
             xlink:href="#DejaVuSans-6c"
             x="1045.849609"
             id="use85" />
          <use
             xlink:href="#DejaVuSans-20"
             x="1073.632812"
             id="use86" />
          <use
             xlink:href="#DejaVuSans-64"
             x="1105.419922"
             id="use87" />
          <use
             xlink:href="#DejaVuSans-65"
             x="1168.896484"
             id="use88" />
          <use
             xlink:href="#DejaVuSans-6e"
             x="1230.419922"
             id="use89" />
          <use
             xlink:href="#DejaVuSans-73"
             x="1293.798828"
             id="use90" />
          <use
             xlink:href="#DejaVuSans-69"
             x="1345.898438"
             id="use91" />
          <use
             xlink:href="#DejaVuSans-74"
             x="1373.681641"
             id="use92" />
          <use
             xlink:href="#DejaVuSans-79"
             x="1412.890625"
             id="use93" />
        </g>
      </g>
    </g>
  </g>
  <defs
     id="defs93">
    <clipPath
       id="pf9c85deeb5">
      <rect
         x="90"
         y="51.84"
         width="558"
         height="332.64"
         id="rect93" />
    </clipPath>
  </defs>
  <path
     style="fill:none;fill-opacity:1;stroke:#000000;stroke-width:1.4;stroke-dasharray:1.4, 1.4;stroke-dashoffset:0;stroke-opacity:1"
     d="M 257.38598,127.64182 V 378.32035"
     id="path93"
     sodipodi:nodetypes="cc" />
  <path
     style="fill:none;fill-opacity:1;stroke:#000000;stroke-width:1.5;stroke-linecap:butt;stroke-linejoin:round;stroke-dasharray:1.5,1.5;stroke-dashoffset:0;stroke-opacity:1"
     d="m 368.89696,127.0335 v 28.40002"
     id="path93-2"
     sodipodi:nodetypes="cc" />
  <path
     style="fill:none;fill-opacity:1;stroke:#000000;stroke-width:0.817;stroke-linecap:round;stroke-dasharray:none;stroke-dashoffset:0;stroke-opacity:1;marker-start:url(#ConcaveTriangle);marker-end:url(#marker98)"
     d="m 264.26766,128.32954 97.52554,-0.40169"
     id="path94" />
  <text
     xml:space="preserve"
     style="font-size:15.4497px;font-family:'Latin Modern Sans';-inkscape-font-specification:'Latin Modern Sans, Normal';fill:#000000;fill-opacity:1;stroke:#000000;stroke-width:0;stroke-linecap:round;stroke-dasharray:none;stroke-dashoffset:0;stroke-opacity:1"
     x="302.29855"
     y="139.81194"
     id="text98"
     transform="scale(0.99298247,1.0070671)"><tspan
       sodipodi:role="line"
       id="tspan98"
       style="fill:#000000;fill-opacity:1;stroke-width:0;stroke-dasharray:none"
       x="302.29855"
       y="139.81194">1/T</tspan></text>
</svg>
