<?xml version="1.0" encoding="UTF-8" standalone="no"?>
<!-- Created with Inkscape (http://www.inkscape.org/) -->

<svg
   width="190.68561mm"
   height="73.474319mm"
   viewBox="0 0 190.68561 73.474319"
   version="1.1"
   id="svg1"
   xml:space="preserve"
   inkscape:version="1.3.2 (091e20ef0f, 2023-11-25, custom)"
   sodipodi:docname="sensing_operation.svg"
   inkscape:export-filename="sensing_operation.png"
   inkscape:export-xdpi="250"
   inkscape:export-ydpi="250"
   xmlns:inkscape="http://www.inkscape.org/namespaces/inkscape"
   xmlns:sodipodi="http://sodipodi.sourceforge.net/DTD/sodipodi-0.dtd"
   xmlns:xlink="http://www.w3.org/1999/xlink"
   xmlns="http://www.w3.org/2000/svg"
   xmlns:svg="http://www.w3.org/2000/svg"><sodipodi:namedview
     id="namedview1"
     pagecolor="#ffffff"
     bordercolor="#000000"
     borderopacity="0.25"
     inkscape:showpageshadow="2"
     inkscape:pageopacity="0.0"
     inkscape:pagecheckerboard="0"
     inkscape:deskcolor="#d1d1d1"
     inkscape:document-units="mm"
     showgrid="true"
     inkscape:zoom="1.7499305"
     inkscape:cx="338.58488"
     inkscape:cy="205.15101"
     inkscape:window-width="1920"
     inkscape:window-height="1008"
     inkscape:window-x="0"
     inkscape:window-y="0"
     inkscape:window-maximized="1"
     inkscape:current-layer="g28"><inkscape:grid
       id="grid3"
       units="mm"
       originx="-9.728717"
       originy="-34.842206"
       spacingx="0.99999998"
       spacingy="1"
       empcolor="#0099e5"
       empopacity="0.30196078"
       color="#0099e5"
       opacity="0.14902"
       empspacing="5"
       dotted="false"
       gridanglex="30"
       gridanglez="30"
       visible="true" /></sodipodi:namedview><defs
     id="defs1"><marker
       style="overflow:visible"
       id="marker35"
       refX="0"
       refY="0"
       orient="auto-start-reverse"
       inkscape:stockid="Concave triangle arrow"
       markerWidth="1"
       markerHeight="1"
       viewBox="0 0 1 1"
       inkscape:isstock="true"
       inkscape:collect="always"
       preserveAspectRatio="xMidYMid"><path
         transform="scale(0.7)"
         d="M -2,-4 9,0 -2,4 c 2,-2.33 2,-5.66 0,-8 z"
         style="fill:context-stroke;fill-rule:evenodd;stroke:none"
         id="path35" /></marker><marker
       style="overflow:visible"
       id="marker30"
       refX="0"
       refY="0"
       orient="auto-start-reverse"
       inkscape:stockid="Concave triangle arrow"
       markerWidth="1"
       markerHeight="1"
       viewBox="0 0 1 1"
       inkscape:isstock="true"
       inkscape:collect="always"
       preserveAspectRatio="xMidYMid"><path
         transform="scale(0.7)"
         d="M -2,-4 9,0 -2,4 c 2,-2.33 2,-5.66 0,-8 z"
         style="fill:context-stroke;fill-rule:evenodd;stroke:none"
         id="path30" /></marker><marker
       style="overflow:visible"
       id="marker11"
       refX="0"
       refY="0"
       orient="auto-start-reverse"
       inkscape:stockid="Concave triangle arrow"
       markerWidth="1"
       markerHeight="1"
       viewBox="0 0 1 1"
       inkscape:isstock="true"
       inkscape:collect="always"
       preserveAspectRatio="xMidYMid"><path
         transform="scale(0.7)"
         d="M -2,-4 9,0 -2,4 c 2,-2.33 2,-5.66 0,-8 z"
         style="fill:context-stroke;fill-rule:evenodd;stroke:none"
         id="path11" /></marker><marker
       style="overflow:visible"
       id="marker10"
       refX="0"
       refY="0"
       orient="auto-start-reverse"
       inkscape:stockid="Concave triangle arrow"
       markerWidth="1"
       markerHeight="1"
       viewBox="0 0 1 1"
       inkscape:isstock="true"
       inkscape:collect="always"
       preserveAspectRatio="xMidYMid"><path
         transform="scale(0.7)"
         d="M -2,-4 9,0 -2,4 c 2,-2.33 2,-5.66 0,-8 z"
         style="fill:context-stroke;fill-rule:evenodd;stroke:none"
         id="path10" /></marker><marker
       style="overflow:visible"
       id="marker9"
       refX="0"
       refY="0"
       orient="auto-start-reverse"
       inkscape:stockid="Concave triangle arrow"
       markerWidth="1"
       markerHeight="1"
       viewBox="0 0 1 1"
       inkscape:isstock="true"
       inkscape:collect="always"
       preserveAspectRatio="xMidYMid"><path
         transform="scale(0.7)"
         d="M -2,-4 9,0 -2,4 c 2,-2.33 2,-5.66 0,-8 z"
         style="fill:context-stroke;fill-rule:evenodd;stroke:none"
         id="path9" /></marker><marker
       style="overflow:visible"
       id="ConcaveTriangle"
       refX="0"
       refY="0"
       orient="auto-start-reverse"
       inkscape:stockid="Concave triangle arrow"
       markerWidth="1"
       markerHeight="1"
       viewBox="0 0 1 1"
       inkscape:isstock="true"
       inkscape:collect="always"
       preserveAspectRatio="xMidYMid"><path
         transform="scale(0.7)"
         d="M -2,-4 9,0 -2,4 c 2,-2.33 2,-5.66 0,-8 z"
         style="fill:context-stroke;fill-rule:evenodd;stroke:none"
         id="path8" /></marker><style
       id="style6"
       type="text/css"><![CDATA[
    .str0 {stroke:#373435;stroke-width:20}
    .fil1 {fill:#4B4B4D}
    .fil2 {fill:#373435}
    .fil4 {fill:#ED3237}
    .fil0 {fill:#201E1E}
    .fil9 {fill:url(#id0)}
    .fil6 {fill:url(#id1)}
    .fil5 {fill:url(#id2)}
    .fil3 {fill:url(#id3)}
    .fil7 {fill:url(#id4)}
    .fil8 {fill:url(#id5)}
   ]]></style><linearGradient
       x1="1572.9"
       y1="4706.7998"
       x2="1558.6"
       gradientUnits="userSpaceOnUse"
       y2="5400.7998"
       id="id0"><stop
         id="stop9"
         offset="0"
         stop-color="#BDBFC1" /><stop
         id="stop11"
         offset="1"
         stop-color="#FEFEFE" /></linearGradient><linearGradient
       x1="9015"
       y1="2032"
       x2="8973"
       gradientUnits="userSpaceOnUse"
       xlink:href="#id0"
       y2="3641.3999"
       id="id1" /><linearGradient
       x1="13950"
       y1="1929.9"
       x2="13904"
       gradientUnits="userSpaceOnUse"
       xlink:href="#id0"
       y2="3292.7"
       id="id2" /><linearGradient
       x1="8832.2998"
       y1="1330"
       x2="8373.2002"
       gradientUnits="userSpaceOnUse"
       y2="7158"
       id="id3"><stop
         id="stop16"
         offset="0"
         stop-color="#E6E7E8" /><stop
         id="stop18"
         offset=".18039"
         stop-color="#F7F7F7" /><stop
         id="stop20"
         offset=".76078"
         stop-color="#FEFEFE" /><stop
         id="stop22"
         offset="1"
         stop-color="#E6E7E8" /></linearGradient><radialGradient
       r="1052.6"
       gradientTransform="matrix(-1.4142,0.0033016,-0.0033016,-1.4142,40442,16812)"
       cx="16742"
       cy="6986.6001"
       gradientUnits="userSpaceOnUse"
       id="id4"><stop
         id="stop25"
         offset="0"
         stop-color="#BDBFC1" /><stop
         id="stop27"
         offset="1"
         stop-color="#848688" /></radialGradient><radialGradient
       r="1052.6"
       gradientTransform="matrix(-1.4142,0.0032761,-0.0032761,-1.4142,8896,17289)"
       cx="3675"
       cy="7166.2002"
       gradientUnits="userSpaceOnUse"
       xlink:href="#id4"
       id="id5" /><radialGradient
       r="1052.6"
       cy="6986.6001"
       cx="16742"
       gradientTransform="matrix(-1.4142,0.0033016,-0.0033016,-1.4142,40442,16812)"
       gradientUnits="userSpaceOnUse"
       id="radialGradient4198"
       xlink:href="#id4" /><linearGradient
       y2="5400.7998"
       x2="1558.6"
       y1="4706.7998"
       x1="1572.9"
       gradientUnits="userSpaceOnUse"
       id="linearGradient4200"
       xlink:href="#id0" /><inkscape:path-effect
       is_visible="true"
       id="path-effect4623"
       effect="spiro"
       lpeversion="0" /><inkscape:path-effect
       is_visible="true"
       id="path-effect4590"
       effect="spiro"
       lpeversion="0" /><inkscape:path-effect
       is_visible="true"
       id="path-effect4539"
       effect="spiro"
       lpeversion="0" /></defs><g
     inkscape:label="Layer 1"
     inkscape:groupmode="layer"
     id="layer1"
     transform="translate(-9.7287173,-34.842205)"><g
       id="g3"
       transform="translate(-35.658418,-4.9734933)"><rect
         style="fill:#000000;stroke-width:0.264583"
         id="rect1"
         width="30.191467"
         height="21.87397"
         x="46.517391"
         y="66.259842" /><rect
         style="fill:#ffffff;fill-opacity:1;stroke:#000000;stroke-width:0.4;stroke-dasharray:none;stroke-opacity:1"
         id="rect2"
         width="30.191467"
         height="21.87397"
         x="45.587135"
         y="65.165154" /></g><g
       inkscape:groupmode="layer"
       id="layer2"
       inkscape:label="Layer 2"><text
         xml:space="preserve"
         style="font-style:normal;font-variant:normal;font-weight:normal;font-stretch:normal;font-size:6.35px;font-family:sans-serif;-inkscape-font-specification:'sans-serif, Normal';font-variant-ligatures:normal;font-variant-caps:normal;font-variant-numeric:normal;font-variant-east-asian:normal;fill:#000000;fill-opacity:1;stroke:none;stroke-width:0.4;stroke-dasharray:none;stroke-opacity:1"
         x="15.068728"
         y="68.745155"
         id="text2"><tspan
           sodipodi:role="line"
           id="tspan2"
           style="font-style:normal;font-variant:normal;font-weight:normal;font-stretch:normal;font-size:6.35px;font-family:sans-serif;-inkscape-font-specification:'sans-serif, Normal';font-variant-ligatures:normal;font-variant-caps:normal;font-variant-numeric:normal;font-variant-east-asian:normal;fill:#000000;fill-opacity:1;stroke:none;stroke-width:0.4"
           x="15.068728"
           y="68.745155">Sensing </tspan><tspan
           sodipodi:role="line"
           style="font-style:normal;font-variant:normal;font-weight:normal;font-stretch:normal;font-size:6.35px;font-family:sans-serif;-inkscape-font-specification:'sans-serif, Normal';font-variant-ligatures:normal;font-variant-caps:normal;font-variant-numeric:normal;font-variant-east-asian:normal;fill:#000000;fill-opacity:1;stroke:none;stroke-width:0.4"
           x="15.068728"
           y="76.682655"
           id="tspan3">System</tspan></text><path
         style="fill:none;fill-opacity:1;stroke:#a83534;stroke-width:0.4;stroke-dasharray:none;stroke-dashoffset:0;stroke-opacity:1;marker-end:url(#marker30)"
         d="m 106.59723,65.086225 38.5238,26.839148"
         id="path29" /><path
         style="fill:none;fill-opacity:1;stroke:#a83534;stroke-width:0.4;stroke-dasharray:none;stroke-dashoffset:0;stroke-opacity:1;marker-end:url(#marker30)"
         d="M 146.14017,92.821945 109.07487,78.531914"
         id="path31" /><text
         xml:space="preserve"
         style="font-style:normal;font-variant:normal;font-weight:normal;font-stretch:normal;font-size:6.34651px;font-family:'DejaVu Math TeX Gyre';-inkscape-font-specification:'DejaVu Math TeX Gyre, Normal';font-variant-ligatures:normal;font-variant-caps:normal;font-variant-numeric:normal;font-variant-east-asian:normal;fill:#a83534;fill-opacity:1;stroke:none;stroke-width:0.514002;stroke-dasharray:none;stroke-dashoffset:0;stroke-opacity:1"
         x="111.67963"
         y="93.309586"
         id="text31"
         transform="scale(1.056016,0.94695534)"><tspan
           sodipodi:role="line"
           id="tspan31"
           style="font-style:normal;font-variant:normal;font-weight:normal;font-stretch:normal;font-size:6.34651px;font-family:'DejaVu Math TeX Gyre';-inkscape-font-specification:'DejaVu Math TeX Gyre, Normal';font-variant-ligatures:normal;font-variant-caps:normal;font-variant-numeric:normal;font-variant-east-asian:normal;fill:#a83534;fill-opacity:1;stroke:none;stroke-width:0.514002"
           x="111.67963"
           y="93.309586">τ</tspan></text><path
         style="fill:none;fill-opacity:1;stroke:#000000;stroke-width:0.4;stroke-dasharray:none;stroke-dashoffset:0;stroke-opacity:1;marker-end:url(#marker35)"
         d="m 151.53507,95.855891 8.27151,-0.003"
         id="path33" /><text
         xml:space="preserve"
         style="font-style:normal;font-variant:normal;font-weight:normal;font-stretch:normal;font-size:4.9389px;font-family:'DejaVu Math TeX Gyre';-inkscape-font-specification:'DejaVu Math TeX Gyre, Normal';font-variant-ligatures:normal;font-variant-caps:normal;font-variant-numeric:normal;font-variant-east-asian:normal;fill:#000000;fill-opacity:1;stroke:none;stroke-width:0.4;stroke-dasharray:none;stroke-dashoffset:0;stroke-opacity:1"
         x="160.60649"
         y="100.50208"
         id="text35"><tspan
           sodipodi:role="line"
           id="tspan35"
           style="fill:#000000;fill-opacity:1;stroke:none;stroke-width:0.4"
           x="160.60649"
           y="100.50208">v</tspan></text><path
         style="fill:none;fill-opacity:1;stroke:#000000;stroke-width:0.122;stroke-dasharray:none;stroke-dashoffset:0;stroke-opacity:1;marker-end:url(#marker11)"
         d="m 160.60956,97.34017 2.45539,-9.61e-4"
         id="path36" /><text
         xml:space="preserve"
         style="font-style:normal;font-variant:normal;font-weight:normal;font-stretch:normal;font-size:4.9389px;font-family:'DejaVu Math TeX Gyre';-inkscape-font-specification:'DejaVu Math TeX Gyre, Normal';font-variant-ligatures:normal;font-variant-caps:normal;font-variant-numeric:normal;font-variant-east-asian:normal;fill:#3474a8;fill-opacity:0.94902;stroke:none;stroke-width:0.122;stroke-dasharray:none;stroke-dashoffset:0;stroke-opacity:1"
         x="138.59537"
         y="103.84687"
         id="text36"><tspan
           sodipodi:role="line"
           id="tspan36"
           style="fill:#3474a8;fill-opacity:0.94902;stroke-width:0.122"
           x="138.59537"
           y="103.84687">f<tspan
   style="font-size:65%;baseline-shift:sub;fill:#3474a8;fill-opacity:0.94902"
   id="tspan37">D</tspan></tspan></text></g><path
       style="fill:none;fill-opacity:1;stroke:#000000;stroke-width:0.401012;stroke-dasharray:none;stroke-opacity:1;marker-end:url(#marker11)"
       d="m 40.431401,65.039118 56.607206,0.02023"
       id="path3" /><path
       style="fill:none;fill-opacity:1;stroke:#000000;stroke-width:0.403181;stroke-dasharray:none;stroke-opacity:1;marker-start:url(#marker10)"
       d="m 43.093702,78.029014 21.48488,0.02234"
       id="path4" /><path
       style="fill:none;fill-opacity:1;stroke:#000000;stroke-width:0.402444;stroke-dasharray:none;stroke-opacity:1;marker-start:url(#marker9)"
       d="m 75.897502,77.953557 23.389415,0.02165"
       id="path5" /><ellipse
       style="fill:none;fill-opacity:1;stroke:#000000;stroke-width:0.4;stroke-dasharray:none;stroke-opacity:1"
       id="path6"
       cx="69.08905"
       cy="77.97686"
       rx="4.4614692"
       ry="4.3184476" /><text
       xml:space="preserve"
       style="font-style:normal;font-variant:normal;font-weight:normal;font-stretch:normal;font-size:6.35px;font-family:sans-serif;-inkscape-font-specification:'sans-serif, Normal';font-variant-ligatures:normal;font-variant-caps:normal;font-variant-numeric:normal;font-variant-east-asian:normal;fill:#000000;fill-opacity:1;stroke:none;stroke-width:0.4;stroke-dasharray:none;stroke-opacity:1"
       x="67.4412"
       y="80.318268"
       id="text6"><tspan
         sodipodi:role="line"
         id="tspan6"
         style="fill:#000000;fill-opacity:1;stroke:none;stroke-width:0.4;stroke-dasharray:none"
         x="67.4412"
         y="80.318268">+</tspan></text><path
       style="fill:none;fill-opacity:1;stroke:#000000;stroke-width:0.405163;stroke-dasharray:none;stroke-opacity:1;marker-start:url(#ConcaveTriangle)"
       d="m 69.203332,84.436836 0.12631,15.582844"
       id="path7" /><g
       id="g14"
       transform="matrix(0.79280059,0,0,0.84232622,-14.28724,8.07719)"><path
         id="rect12"
         style="stroke-width:0.4"
         d="m 143.99262,65.003594 8.99021,-3.096453 0.0481,12.115308 -9.03525,-2.993727 z"
         sodipodi:nodetypes="ccccc" /><path
         id="path13"
         style="fill:#ffffff;fill-opacity:1;stroke:#000000;stroke-width:0.4;stroke-opacity:1"
         d="m 143.52469,64.425499 8.99021,-3.096453 0.0481,12.115308 -9.03525,-2.993727 z"
         sodipodi:nodetypes="ccccc" /></g><g
       id="g15"
       transform="matrix(0.79280059,0,0,0.84232622,-14.300684,20.990695)"><path
         id="path14"
         style="stroke-width:0.4"
         d="m 143.99262,65.003594 8.99021,-3.096453 0.0481,12.115308 -9.03525,-2.993727 z"
         sodipodi:nodetypes="ccccc" /><path
         id="path15"
         style="fill:#ffffff;fill-opacity:1;stroke:#000000;stroke-width:0.4;stroke-opacity:1"
         d="m 143.52469,64.425499 8.99021,-3.096453 0.0481,12.115308 -9.03525,-2.993727 z"
         sodipodi:nodetypes="ccccc" /></g><text
       xml:space="preserve"
       style="font-style:normal;font-variant:normal;font-weight:normal;font-stretch:normal;font-size:4.93889px;font-family:sans-serif;-inkscape-font-specification:'sans-serif, Normal';font-variant-ligatures:normal;font-variant-caps:normal;font-variant-numeric:normal;font-variant-east-asian:normal;fill:#000000;fill-opacity:1;stroke:none;stroke-width:0.4;stroke-dasharray:none;stroke-opacity:1"
       x="53.946732"
       y="62.964672"
       id="text15"><tspan
         sodipodi:role="line"
         id="tspan15"
         style="font-style:normal;font-variant:normal;font-weight:normal;font-stretch:normal;font-size:4.93889px;font-family:sans-serif;-inkscape-font-specification:'sans-serif, Normal';font-variant-ligatures:normal;font-variant-caps:normal;font-variant-numeric:normal;font-variant-east-asian:normal;fill:#000000;fill-opacity:1;stroke:none;stroke-width:0.4"
         x="53.946732"
         y="62.964672">s(t)</tspan></text><text
       xml:space="preserve"
       style="font-style:normal;font-variant:normal;font-weight:normal;font-stretch:normal;font-size:4.93889px;font-family:sans-serif;-inkscape-font-specification:'sans-serif, Normal';font-variant-ligatures:normal;font-variant-caps:normal;font-variant-numeric:normal;font-variant-east-asian:normal;fill:#000000;fill-opacity:1;stroke:none;stroke-width:0.4;stroke-dasharray:none;stroke-opacity:1"
       x="45.722984"
       y="83.070145"
       id="text16"><tspan
         sodipodi:role="line"
         id="tspan16"
         style="font-style:normal;font-variant:normal;font-weight:normal;font-stretch:normal;font-size:4.93889px;font-family:sans-serif;-inkscape-font-specification:'sans-serif, Normal';font-variant-ligatures:normal;font-variant-caps:normal;font-variant-numeric:normal;font-variant-east-asian:normal;fill:#000000;fill-opacity:1;stroke:none;stroke-width:0.4"
         x="45.722984"
         y="83.070145">r(t)</tspan></text><text
       xml:space="preserve"
       style="font-style:normal;font-variant:normal;font-weight:normal;font-stretch:normal;font-size:4.93889px;font-family:sans-serif;-inkscape-font-specification:'sans-serif, Normal';font-variant-ligatures:normal;font-variant-caps:normal;font-variant-numeric:normal;font-variant-east-asian:normal;fill:#000000;fill-opacity:1;stroke:none;stroke-width:0.4;stroke-dasharray:none;stroke-opacity:1"
       x="70.56636"
       y="99.642021"
       id="text17"><tspan
         sodipodi:role="line"
         id="tspan17"
         style="font-style:normal;font-variant:normal;font-weight:normal;font-stretch:normal;font-size:4.93889px;font-family:sans-serif;-inkscape-font-specification:'sans-serif, Normal';font-variant-ligatures:normal;font-variant-caps:normal;font-variant-numeric:normal;font-variant-east-asian:normal;fill:#000000;fill-opacity:1;stroke:none;stroke-width:0.4"
         x="70.56636"
         y="99.642021">z(t)</tspan></text><g
       id="g21509"
       transform="matrix(0.35229271,0,0,0.35229271,77.270116,149.13682)"
       fill="#3d7ca6"><g
         id="g17"
         style="fill:none;fill-opacity:1;stroke:#000000;stroke-width:1.13542;stroke-dasharray:none;stroke-opacity:1"
         transform="matrix(1.0427264,0,0,0.8524814,-90.104144,-46.757823)"><path
           id="path14345"
           d="m 175.06,-236.91 c 0,0 4.07,4.17 4.07,12.1 m -4.07,12.05 c 0,0 4.07,-4.17 4.07,-12.1"
           fill-rule="evenodd"
           stroke="#3d7ca6"
           stroke-linecap="round"
           stroke-width="6.3702"
           style="fill:none;fill-opacity:1;stroke:#000000;stroke-width:1.13542;stroke-dasharray:none;stroke-opacity:1" /><path
           id="path14347"
           d="m 188.95,-248.99 c 0,0 8.14,8.35 8.14,24.21 m -8.14,24.1 c 0,0 8.14,-8.34 8.14,-24.2"
           fill-rule="evenodd"
           stroke="#3d7ca6"
           stroke-linecap="round"
           stroke-width="6.3702"
           style="fill:none;fill-opacity:1;stroke:#000000;stroke-width:1.13542;stroke-dasharray:none;stroke-opacity:1" /><path
           id="path14349"
           d="m 204.09,-261.06 c 0,0 12.22,12.51 12.22,36.3 m -12.22,36.16 c 0,0 12.22,-12.52 12.22,-36.31"
           fill-rule="evenodd"
           stroke="#3d7ca6"
           stroke-linecap="round"
           stroke-width="6.3702"
           style="fill:none;fill-opacity:1;stroke:#000000;stroke-width:1.13542;stroke-dasharray:none;stroke-opacity:1" /></g><g
         id="g20"
         style="fill:none;fill-opacity:1;stroke:#3474a8;stroke-width:1.13542;stroke-dasharray:4.54168, 4.54168;stroke-dashoffset:0;stroke-opacity:1"
         transform="matrix(-0.73401239,-0.28973354,-0.30926921,0.68764687,245.00535,52.854064)"><path
           id="path18"
           d="m 175.06,-236.91 c 0,0 4.07,4.17 4.07,12.1 m -4.07,12.05 c 0,0 4.07,-4.17 4.07,-12.1"
           fill-rule="evenodd"
           stroke="#3d7ca6"
           stroke-linecap="round"
           stroke-width="6.3702"
           style="fill:none;fill-opacity:1;stroke:#3474a8;stroke-width:1.13542;stroke-dasharray:4.54168, 4.54168;stroke-dashoffset:0;stroke-opacity:1" /><path
           id="path19"
           d="m 188.95,-248.99 c 0,0 8.14,8.35 8.14,24.21 m -8.14,24.1 c 0,0 8.14,-8.34 8.14,-24.2"
           fill-rule="evenodd"
           stroke="#3d7ca6"
           stroke-linecap="round"
           stroke-width="6.3702"
           style="fill:none;fill-opacity:1;stroke:#3474a8;stroke-width:1.13542;stroke-dasharray:4.54168, 4.54168;stroke-dashoffset:0;stroke-opacity:1" /><path
           id="path20"
           d="m 204.09,-261.06 c 0,0 12.22,12.51 12.22,36.3 m -12.22,36.16 c 0,0 12.22,-12.52 12.22,-36.31"
           fill-rule="evenodd"
           stroke="#3d7ca6"
           stroke-linecap="round"
           stroke-width="6.3702"
           style="fill:none;fill-opacity:1;stroke:#3474a8;stroke-width:1.13542;stroke-dasharray:4.54168, 4.54168;stroke-dashoffset:0;stroke-opacity:1" /></g><g
         style="clip-rule:evenodd;fill-rule:evenodd;image-rendering:optimizeQuality;shape-rendering:geometricPrecision;text-rendering:geometricPrecision"
         id="g21"
         transform="matrix(0.0010103,0,0,0.00112972,232.77872,-252.3437)"><g
           id="_225011403088"
           transform="matrix(6.0599223,0,0,6.0599223,-1559.1657,-5214.7285)"><path
             style="fill:#201e1e"
             id="path32"
             d="m 11849,1987 -123,1522 c 0,0 -22,3 -22,21 -1,19 0,34 0,34 0,0 -8,17 41,13 49,-4 1790,-123 1790,-123 l 1834,-115 643,-28 59,-4 c 0,0 96,6 118,-64 22,-69 58,-318 58,-318 0,0 -2,-153 -59,-234 -58,-82 -82,-137 -162,-222 -80,-86 -292,-263 -292,-263 l -354,-240 c 0,0 -149,-136 -653,-212 -504,-77 -671,-62 -928,-90 -258,-28 -908,-20 -908,-20 l -663,-3 c 0,0 -161,5 -235,76 -73,72 -99,100 -120,162 -20,61 -24,108 -24,108 z"
             class="fil0" /><path
             style="fill:#4b4b4d"
             id="path34"
             d="m 5559,7314 -333,-119 -3081,328 -91,3 -381,-691 418,-918 357,-218 85,-67 373,-284 726,-142 761,151 c 0,0 568,340 584,349 16,10 495,608 495,608 l 184,700 -9,281 z"
             class="fil1" /><polygon
             style="fill:#4b4b4d;stroke:#373435;stroke-width:20"
             id="polygon36"
             class="fil1 str0"
             points="18616,6876 18481,7183 18237,7270 15201,7214 14846,7053 14722,6571 15159,5780 16585,5076 17286,5055 17787,5481 17817,5499 18798,6047 " /><circle
             style="fill:#373435;stroke:#373435;stroke-width:20"
             cy="0"
             cx="0"
             id="circle38"
             transform="matrix(-0.82063,0.0018997,0.0018997,0.82063,16742,6986.6)"
             class="fil2 str0"
             r="1889" /><circle
             style="fill:#373435;stroke:#373435;stroke-width:20"
             cy="0"
             cx="0"
             id="circle40"
             transform="matrix(-0.82063,0.0018997,0.0018997,0.82063,3675,7166.2)"
             class="fil2 str0"
             r="1889" /><path
             style="fill:url(#id3);stroke:#373435;stroke-width:20"
             id="path42"
             d="m 17040,2010 c 358,283 716,567 1075,850 l 318,240 c 0,0 433,232 462,472 30,241 21,188 21,188 l -7,9 c -190,5 -366,18 -524,42 -135,19 -190,89 -134,228 l 309,519 c 0,0 32,41 113,77 l 11,89 c -10,32 -32,70 -51,95 -51,72 -122,126 -204,158 -54,22 -108,43 -161,65 -35,14 -69,29 -103,43 -35,14 -71,29 -105,44 l -262,117 -11,235 c -1256,-662 -2698,-13 -2941,1572 l -586,19 c 152,-67 256,-186 328,-338 34,-71 61,-144 86,-219 27,-81 52,-163 80,-244 32,-89 67,-175 111,-258 161,-307 369,-558 628,-787 223,-197 417,-422 581,-670 217,-328 346,-698 395,-1088 16,-125 43,-247 66,-371 36,-184 -4,-360 -105,-516 -165,-258 -480,-502 -728,-676 -358,-253 -814,-346 -1244,-380 -953,-74 -1910,-98 -2865,-65 l -16,-2 v -1 h -15 c -441,10 -886,40 -1324,92 -250,30 -500,67 -748,116 -226,44 -453,98 -672,169 -221,72 -437,170 -645,274 -197,99 -391,206 -584,313 -213,117 -423,241 -624,378 -174,117 -343,244 -495,387 -247,233 -457,515 -510,858 v 4 l -1266,136 80,-152 c 0,0 166,-304 205,-347 39,-43 18,-69 134,-102 117,-33 325,-107 671,-291 346,-185 1255,-791 1564,-951 310,-159 561,-331 1219,-582 658,-250 1407,-321 1659,-350 253,-29 942,-79 942,-79 0,0 1817,-74 2176,-36 359,38 551,1 1477,105 927,104 657,60 657,60 178,32 357,64 535,96 107,19 215,37 322,55 0,0 272,77 417,82 144,6 249,24 308,36 59,13 92,23 51,80 -41,57 -90,104 -90,104 0,0 -81,55 19,98 z m -2194,5075 c -15,69 -31,138 -46,207 -16,37 -58,55 -124,56 -2974,82 -5947,174 -8920,256 -113,7 -135,-25 -148,-62 -7,-39 -13,-78 -19,-117 -7,-36 9,-49 41,-48 3072,-94 6144,-198 9216,-292 z M 11101,6082 6050,6426 c 0,0 -96,13 -96,53 1,40 5,72 37,88 33,15 170,6 214,2 25,-2 2678,-173 4907,-315 z m -177,-1567 -208,18 c -31,-80 -109,-137 -199,-137 l -172,1 c -105,0 -193,105 -210,186 l -74,6 c -101,17 -88,144 0,144 l 76,-3 c 28,106 175,183 381,174 111,-5 203,-87 212,-196 l 194,-7 c 139,-7 123,-185 0,-186 z m 4792,-386 -179,14 c -31,-81 -109,-139 -201,-139 h -172 c -105,0 -193,106 -210,187 l -101,8 c -100,17 -87,154 0,155 l 107,-3 c 37,99 180,170 377,161 105,-5 193,-78 210,-178 l 170,-5 c 138,-6 122,-197 -1,-200 z M 4945,3616 c 56,-16 63,-1 34,36 -101,168 -201,336 -302,504 -16,26 -45,41 -86,46 -810,98 -1626,230 -2448,392 -355,64 -703,175 -1048,307 -32,27 -74,42 -69,5 202,-327 685,-512 1224,-669 882,-252 1774,-476 2695,-621 z M 1879,5213 c 207,166 427,321 632,488 -396,366 -631,860 -576,1582 17,96 56,184 134,257 -194,-35 -638,-19 -946,-139 -156,-79 -273,-205 -294,-406 98,62 172,83 197,22 33,-141 25,-303 -87,-516 -34,-50 -75,-90 -143,-89 -94,4 -120,-54 -115,-140 4,-85 23,-484 2,-484 -21,0 66,-226 206,-265 140,-38 615,-183 615,-183 0,0 183,-36 316,-124 25,-18 29,-27 59,-3 z m 9271,-3173 c -112,504 -223,1007 -335,1511 -2,22 -5,45 -7,68 0,35 -28,50 -83,44 -1289,103 -2578,205 -3867,308 -10,17 -36,25 -79,25 -186,13 -373,26 -559,40 63,-237 93,-329 231,-533 2,-27 4,-53 6,-80 -5,-34 11,-61 41,-84 67,-35 134,-71 202,-106 45,-37 90,-73 135,-110 74,-54 147,-108 221,-162 11,-8 22,-17 33,-25 17,-8 30,-6 40,2 813,-566 1649,-929 2506,-1104 388,-69 779,-110 1170,-137 347,-19 379,143 345,343 z m -386,1516 h -7 l -7,-1 -6,1 c -1239,98 -2500,232 -3740,334 258,-149 250,-577 72,-702 l 52,-164 41,-29 c 749,-522 1577,-922 2479,-1093 383,-73 772,-112 1162,-136 76,-5 219,-7 264,72 29,52 19,134 8,189 -100,507 -229,964 -312,1474 -2,19 -5,37 -6,55 z m 1085,-1569 -123,1522 c 0,0 -22,3 -22,21 -1,19 0,34 0,34 0,0 -8,17 41,13 49,-4 1790,-123 1790,-123 l 1834,-115 643,-28 59,-4 c 0,0 96,6 118,-64 22,-69 58,-318 58,-318 0,0 -2,-153 -59,-234 -58,-82 -82,-137 -162,-222 -80,-86 -292,-263 -292,-263 l -354,-240 c 0,0 -149,-136 -653,-212 -504,-77 -671,-62 -928,-90 -258,-28 -908,-20 -908,-20 l -663,-3 c 0,0 -161,5 -235,76 -73,72 -99,100 -120,162 -20,61 -24,108 -24,108 z m 69,6 c 3,-29 12,-64 21,-93 19,-57 61,-92 103,-133 38,-38 135,-55 187,-56 l 662,2 c 52,0 105,-1 158,-1 115,0 231,1 346,3 130,2 267,4 396,18 53,6 106,10 159,14 102,6 204,11 306,20 155,13 308,32 460,55 162,25 337,62 488,125 36,16 99,45 130,71 2,2 5,4 7,6 l 351,238 c 55,46 110,93 163,141 41,36 83,74 120,113 36,38 65,76 93,120 21,32 41,64 63,95 31,44 45,135 47,190 -8,54 -17,108 -26,161 -8,44 -16,99 -29,140 -4,13 -37,16 -49,16 h -8 l -58,4 -643,28 -1834,114 c -1,0 -1409,97 -1735,120 z m 2266,5081 -2939,97 c 0,-13 0,-27 -1,-40 l -3,-76 c -11,-269 -23,-538 -33,-808 1579,-101 2920,-187 2920,-187 0,0 57,-2 155,-47 98,-45 147,-78 147,-78 0,0 34,-37 15,-53 -19,-16 -18,-25 -45,-23 -26,2 -37,1 -37,1 l -3161,215 c -4,-117 -7,-233 -9,-350 -10,-442 -7,-884 24,-1325 19,-264 41,-527 72,-789 67,-565 177,-1124 254,-1687 13,-91 25,-181 35,-272 6,-54 9,-108 14,-162 h 2 c 954,-32 1910,-9 2861,66 424,34 876,125 1230,374 150,106 298,219 434,344 104,95 209,204 285,323 96,150 135,318 101,495 -24,124 -51,246 -66,372 -49,385 -176,751 -391,1075 -162,246 -355,469 -575,664 -262,231 -473,485 -635,795 -45,85 -81,172 -113,262 -28,82 -53,164 -81,246 -24,73 -51,145 -84,215 -74,158 -184,278 -350,338 h -2 l -1,1 z m -8192,-3030 1,-6 c 53,-331 259,-604 498,-829 151,-142 319,-269 491,-385 200,-136 410,-259 622,-376 193,-107 386,-213 583,-312 206,-104 421,-202 641,-273 218,-71 443,-124 668,-168 247,-48 496,-85 746,-115 423,-50 851,-80 1277,-91 l 42,-1 c -4,53 -7,107 -14,160 -76,656 -211,1304 -289,1959 -31,263 -52,527 -71,791 -28,389 -34,780 -28,1171 -5,415 6,841 43,1284 4,93 8,187 11,280 1,13 1,26 1,39 l -5126,168 -1,-4 c -164,-566 -279,-1154 -298,-1744 -17,-519 42,-1031 200,-1526 l 7,-22 z m 64,3297 -452,14 c -35,-2 -50,-28 -47,-75 C 5390,5628 3833,4753 2522,5674 c -205,-160 -409,-320 -613,-480 -24,-24 -15,-46 8,-68 252,-203 385,-384 404,-543 784,-151 1570,-276 2359,-373 l -9,1 8,4 4,2 4,-1 c 422,-45 844,-91 1266,-137 -154,492 -212,1000 -195,1514 19,591 134,1180 298,1748 z m 5103,-1772 3,156 c 2,126 6,251 10,377 9,250 19,501 30,751 -37,-443 -48,-869 -43,-1284 z m 7547,-922 c 61,22 145,40 256,40 0,10 1,15 1,15 0,0 27,12 35,74 9,61 14,143 14,143 0,0 53,157 121,224 67,68 166,127 180,331 14,203 7,473 -13,579 -20,106 -32,237 -32,237 0,0 -14,73 15,142 28,70 45,82 12,133 -32,51 -333,462 -333,462 0,0 -90,88 -190,106 -100,19 -291,50 -291,50 5,-27 11,-55 16,-82 56,-184 58,-363 25,-538 -97,-499 -348,-837 -705,-1064 l 11,-233 244,-108 c 50,-22 100,-43 150,-64 72,-30 146,-59 219,-88 88,-35 163,-92 218,-170 21,-29 45,-71 55,-106 l 1,-3 z"
             class="fil3 str0" /><path
             style="fill:#201e1e"
             id="path44"
             d="m 11150,2040 c -112,504 -223,1007 -335,1511 -2,22 -5,45 -7,68 0,35 -28,50 -83,44 -1289,103 -2578,205 -3867,308 -10,17 -37,25 -79,25 -186,13 -373,26 -559,40 63,-237 93,-329 231,-533 2,-27 4,-53 6,-80 -5,-34 11,-61 41,-84 67,-35 134,-71 202,-106 45,-37 90,-73 135,-110 74,-54 147,-108 221,-162 11,-8 22,-17 33,-25 17,-8 30,-6 40,2 813,-566 1649,-929 2506,-1104 388,-69 779,-110 1170,-137 347,-19 379,143 345,343 z"
             class="fil0" /><path
             style="fill:#ed3237;stroke:#373435;stroke-width:20"
             id="path46"
             d="m 18909,3769 -5,7 c 0,0 10,51 29,61 18,10 43,33 41,59 -2,27 10,448 10,448 v 194 c 0,0 -14,76 -20,109 -3,17 -3,31 -2,40 -303,-1 -402,-129 -402,-129 l -309,-519 c -56,-139 -1,-209 134,-228 157,-24 334,-37 524,-42 z"
             class="fil4 str0" /><path
             style="fill:url(#id2)"
             id="path48"
             d="m 11918,1993 c 3,-29 12,-64 21,-93 19,-57 61,-92 103,-133 38,-38 135,-55 187,-56 l 661,2 c 53,0 106,-1 159,-1 115,0 231,1 346,3 130,2 267,4 396,18 53,6 106,10 159,14 102,6 204,11 306,20 155,13 308,32 460,55 162,25 337,62 488,125 36,16 99,44 130,71 2,2 5,4 7,6 l 351,238 c 55,46 110,93 163,141 41,36 83,74 120,113 36,38 65,76 93,120 21,32 41,64 63,95 31,44 45,135 47,190 -8,54 -17,108 -26,162 -8,43 -16,98 -29,139 -4,13 -37,16 -49,16 h -8 l -58,4 -643,28 -1834,114 c -1,0 -1409,97 -1735,120 z"
             class="fil5" /><path
             style="fill:#373435"
             id="path50"
             d="m 11101,6082 -5051,344 c 0,0 -96,13 -96,53 1,40 5,72 37,88 33,15 170,6 214,2 25,-2 2678,-173 4907,-315 z"
             class="fil2" /><path
             style="fill:#373435"
             id="path52"
             d="m 14363,5860 -3170,216 11,172 c 1580,-102 2924,-188 2924,-188 0,0 57,-2 155,-47 98,-45 147,-78 147,-78 0,0 34,-37 15,-53 -19,-16 -18,-25 -45,-23 -26,2 -37,1 -37,1 z"
             class="fil2" /><path
             style="fill:url(#id1)"
             id="path54"
             d="m 10764,3556 h -7 l -7,-1 -6,1 c -1239,98 -2500,232 -3740,334 258,-149 250,-577 72,-702 l 52,-164 41,-29 c 749,-522 1577,-922 2479,-1093 383,-73 772,-112 1162,-136 76,-5 219,-7 264,72 29,52 19,134 8,189 -100,507 -229,964 -312,1474 -2,19 -5,37 -6,55 z"
             class="fil6" /><path
             style="fill:url(#radialGradient4198);stroke:#373435;stroke-width:20"
             id="path56"
             d="m 16740,5934 c -582,1 -1052,474 -1051,1055 2,581 474,1052 1055,1050 582,-1 1052,-473 1051,-1055 -2,-581 -474,-1051 -1055,-1050 z"
             class="fil7 str0" /><path
             style="fill:url(#id5);stroke:#373435;stroke-width:20"
             id="path58"
             d="m 3673,6114 c -582,1 -1052,473 -1051,1055 2,581 474,1051 1055,1050 582,-2 1052,-474 1051,-1055 -2,-582 -474,-1052 -1055,-1050 z"
             class="fil8 str0" /><path
             style="fill:#373435"
             id="path60"
             d="m 810,6438 c 34,-10 74,27 118,89 72,150 115,292 90,416 7,58 -18,77 -75,59 -14,-33 -32,-71 -51,-110 -44,-46 -51,-99 -48,-154 -17,-84 -25,-145 -29,-196 -2,-35 -4,-69 -5,-104 z"
             class="fil2" /><path
             style="fill:url(#linearGradient4200);stroke:#373435;stroke-width:20"
             id="path62"
             d="m 2298,4591 c -68,267 -497,677 -750,722 -187,61 -373,122 -559,183 -69,26 -111,8 -117,-63 -10,-142 60,-270 132,-399 16,-44 48,-72 94,-86 394,-175 797,-279 1200,-357 z"
             class="fil9 str0" /><path
             style="fill:#4b4b4d;stroke:#373435;stroke-width:20"
             id="path64"
             d="m 15716,4129 c -288,23 -575,47 -863,70 -100,17 -87,154 0,155 288,-8 576,-16 864,-25 138,-6 122,-197 -1,-200 z"
             class="fil1 str0" /><path
             style="fill:#4b4b4d;stroke:#373435;stroke-width:20"
             id="path66"
             d="m 10924,4515 c -288,25 -576,49 -863,74 -101,17 -88,144 0,144 288,-11 576,-21 863,-32 139,-7 123,-185 0,-186 z"
             class="fil1 str0" /></g></g><g
         id="g136684"
         transform="matrix(0.15539576,0,0,0.15017349,216.80005,-330.4343)"><path
           inkscape:connector-curvature="0"
           id="path136682"
           d="m 171.80694,168.5739 50.59346,8.43224 53.75555,-8.43224 -10.54031,49.53943 9.48628,42.16121 -23.18867,6.32418 -5.27015,7.37821 h -23.18867 -16.86448 l -15.81046,-10.5403 -7.37821,-73.78212 z"
           style="fill:#e6e6e6;fill-opacity:1;fill-rule:evenodd;stroke:none;stroke-width:1px;stroke-linecap:butt;stroke-linejoin:miter;stroke-opacity:1" /><path
           inkscape:connector-curvature="0"
           id="path2579"
           d="m 203.55243,39.976926 c -3.49396,0.499338 -0.57098,4.151765 1.23561,5.500535 2.09452,1.5623 4.79731,3.14335 7.27152,4.55263 2.94057,1.6721 5.94201,3.20945 8.9919,4.61088 2.28785,1.055924 4.63269,1.947494 6.96961,2.854194 2.29591,0.88898 3.90755,1.55342 6.92696,2.53862 3.01931,0.9885 7.54489,1.89774 11.21844,3.23251 3.81224,1.38594 7.79245,2.54624 11.18821,4.94076 2.12493,1.50101 5.83038,2.38482 5.53264,5.75409 0,0.001 0,0.001 0,0.001 -0.47259,0.56368 -0.86076,1.3632 -1.55396,2.11307 -1.41154,1.53186 -1.54099,3.68768 -1.54627,5.69557 -0.0969,2.68469 -2.87802,3.40621 -4.11063,5.30615 -1.80651,2.61679 -1.28845,4.51026 -3.59526,6.65507 -7.26912,6.753685 -17.06139,9.238065 -27.10441,13.800915 -10.04524,4.56357 -22.01602,9.36206 -33.18892,13.31269 -18.20016,6.32334 -38.01111,5.19935 -55.8556,-2.16583 -17.0877,-5.36292 -33.82946,-12.27406 -50.166848,-19.942215 -2.48773,-1.16712 -4.27073,-3.70447 -5.86203,-6.2169 -1.83646,-2.89886 -3.32354,-6.45245 -6.39065,-7.96343 -1.6914,-1.66477 -0.4286,-4.85992 -1.95368,-6.73383 -0.66894,-0.8326 -1.3433,-1.63895 -2.00673,-2.46002 0.20257,-2.50582 3.73184,-3.16371 5.47197,-4.04259 2.85026,-1.43995 5.91487,-2.26992 8.92928,-3.17547 3.63988,-1.09463 7.36338,-1.60043 11.02551,-2.50767 3.37399,-0.83742 6.754388,-1.65655 10.080208,-2.70611 2.58668,-0.81271 5.11546,-1.8504 7.66747,-2.78803 2.36142,-0.86484 4.77531,-1.57159 7.07656,-2.62195 3.90372,-1.78193 7.81392,-3.628954 11.3655,-6.212864 2.14019,-1.17536 2.05457,-5.1072 -0.53583,-5.06485 -0.0702,10e-4 -0.17061,0.006 -0.25837,0.0136 -2.18453,0.24263 -4.2691,1.15642 -6.38164,1.82755 -3.6914,1.17141 -7.35993,2.43684 -10.98755,3.83828 -3.47118,1.33738 -6.90599,2.7934 -10.30614,4.351134 -2.54975,1.16744 -5.023008,2.53634 -7.560718,3.74126 -3.98832,1.88764 -7.94919,3.86578 -12.03803,5.45783 -4.2391,1.6515 -8.4817,3.38908 -12.92293,4.23702 -1.30604,0.25005 -3.05012,1.14668 -4.26825,0.26457 -0.36667,-0.60438 -0.74661,-1.19774 -1.16521,-1.76076 -1.88462,-2.97583 -2.35789,-7.28741 -5.45434,-9.14292 -0.32369,-0.16615 -0.67315,-0.27827 -1.02929,-0.30056 -2.437,0.0238 -3.36944,3.17848 -3.72026,5.44577 -0.22155,2.01642 -0.86888,3.92483 -1.42778,5.73082 -2.68741,0.561 -5.7734,0.79589 -8.47386,1.21097 -6.436905,0.98697 -12.890891,2.10738 -19.05098,4.50167 -7.417014,2.87957 -14.97006,5.30007 -22.264151,8.56889 -4.774797,2.14204 -9.551114,4.27077 -14.209281,6.72882 -3.272276,1.72851 -6.673638,3.28777 -9.644978,5.60809 -2.710253,2.11458 -1.761808,7.260345 0.607651,9.145365 5.235282,0.73863 10.40113,-0.86897 15.565296,-1.61131 5.11137597,-0.7357 10.106615,-2.22312 15.058011,-3.82865 5.27863,-1.709425 10.219057,-4.502015 15.225562,-6.999215 7.029667,-3.50709 13.760489,-7.94294 21.23715,-10.20558 0.10089,-0.0306 0.36404,-0.0103 0.53108,0.0504 0.092,0.0405 0.24982,0.17056 0.35882,0.27799 2.07062,2.76014 -0.53094,5.26912 -1.74439,7.64254 -2.85233,5.99973 -0.32102,14.083965 4.92883,17.225125 3.5295,2.31591 7.72517,2.52994 11.53988,3.97725 1.97256,0.74704 2.88265,1.07567 3.40609,1.32056 12.02439,5.67432 21.98122,15.76786 29.99348,27.02203 6.091698,8.55579 13.363478,18.59477 12.869648,29.5586 -0.46235,10.19894 -8.4462,18.27541 -14.386848,25.97928 -12.62137,16.35934 -28.85999,28.64337 -44.22241,41.7517 -0.22944,0.19661 -0.7082,0.59577 -1.34717,1.13183 -2.04433,-0.43735 -4.16012,-0.59138 -6.14071,-1.89462 -0.70765,-0.46573 -2.325494,-0.82556 -3.682328,-1.1378 -1.022337,-2.28099 -2.094799,-4.57892 -3.334757,-6.62181 -1.70998,-2.81447 -3.354016,-6.70511 -6.75382,-6.97948 -3.271332,-0.26336 -4.638601,3.96464 -5.354902,7.01072 -0.192231,0.81228 -0.613543,1.77547 -1.100798,2.55441 -4.221153,-1.01798 -7.184126,-4.86679 -9.979633,-8.27951 -4.013995,-4.90026 -7.433401,-10.40295 -11.584854,-15.1522 -2.73768,-3.13409 -5.652288,-6.08831 -8.749518,-8.75912 -3.885123,-3.35041 -8.000015,-6.38453 -12.273575,-9.06316 -3.480905,-2.18346 -6.913197,-6.46411 -10.834364,-5.68059 -3.233405,0.64648 -6.559449,4.18085 -6.969817,7.86075 -0.333933,2.99185 2.421298,5.42722 4.089586,7.78393 2.490506,3.5187 5.609932,6.42723 8.694605,9.28488 3.37746,3.12703 6.986242,5.94306 10.694196,8.55088 2.55425,1.79502 5.254757,3.31498 7.932139,4.86467 2.475434,1.43677 5.034596,2.68499 7.516604,4.10827 3.245456,1.86076 6.50862,3.69562 9.638763,5.79544 2.220898,1.49122 4.329651,3.18083 6.471267,4.81911 0.706339,0.54014 1.579034,1.34898 2.345922,1.76592 -0.02347,0.0754 -0.04579,0.18052 -0.06937,0.27119 -0.836054,2.66563 -1.997389,5.61084 -2.422969,8.55963 -0.465215,3.23042 -0.577417,6.33595 -2.272482,9.22407 -2.656641,4.52054 -2.983902,10.42223 -1.628559,15.64632 0.909439,3.50602 2.242962,7.39061 5.057568,9.34994 2.808443,1.95538 5.857066,3.84831 9.147035,4.37365 3.739387,0.59652 7.729563,1.13686 11.372541,-0.21367 2.72357,-1.00808 5.46354,-1.9655 7.98229,-3.58818 2.84372,-1.8302 5.15767,-4.56649 7.28757,-7.30946 0.97216,-1.25416 3.36333,-2.98709 3.37004,-4.07622 0.10079,0.11055 0.23885,0.25729 0.35752,0.38781 2.28586,2.488 4.45785,5.1128 6.7939,7.54089 2.84868,2.96464 5.73368,5.89402 8.79693,8.56909 2.78357,2.43393 5.63471,4.79729 8.68172,6.78538 3.98899,2.6034 8.156,4.87993 12.43282,6.8195 -0.10262,3.57884 -0.13058,7.15674 0.0629,10.73306 0.18003,3.15236 4.75337,2.63346 6.808498,4.36707 2.61117,2.20534 5.19225,-1.98327 5.58828,-4.48299 0.31638,-2.01166 0.52709,-4.03539 0.6667,-6.07152 0.0115,-0.003 0.015,-0.007 0.023,-0.0103 3.0504,-1.48678 4.30543,-6.27633 4.53153,-10.01778 0.26089,-4.3083 -1.73236,-8.58196 -3.78007,-12.23149 0,-0.002 0,-0.007 0,-0.009 0.38741,-5.39923 0.42136,-10.83554 0.95727,-16.22181 0.59443,-5.95054 0.51373,-11.93652 1.12274,-17.86125 0.88563,-3.8376 5.43885,-5.45218 5.31837,-9.76269 -0.33773,-0.991 0.46619,-3.06579 0.21493,-3.99985 5.62646,-1.94038 8.13633,-4.8543 13.28967,-8.43442 7.34811,-5.10724 9.61256,3.97041 14.64322,4.77277 13.18984,2.10664 26.65306,0.67539 39.95926,0 7.86739,-0.39858 15.64511,-11.63213 23.52667,-2.38949 3.03702,2.15385 9.33167,3.69258 12.66947,4.91879 -0.0299,0.0562 -0.0587,0.11805 -0.0887,0.19883 1.45273,3.57215 2.2133,7.41978 2.57685,11.34255 0.69465,7.50621 0.82969,15.08092 1.80346,22.53681 0.60268,4.61547 1.3905,9.22044 1.71363,13.87027 0.37561,5.40221 0.91808,10.76582 1.50206,16.13732 0.46109,4.23456 0.31639,8.56542 1.46984,12.71751 0.66616,2.39678 2.0289,3.30177 6.26814,3.21731 1.84545,-0.0307 2.73036,-2.77927 3.50682,-4.60241 1.09514,-2.56963 1.11913,-5.15603 1.39824,-8.41213 0.40556,-4.73639 0.33198,-9.53779 0.21457,-14.30212 -0.22312,-9.0875 0.49104,-18.22956 -0.35258,-27.2928 -0.38331,-4.12256 -0.76248,-8.23497 -1.65594,-12.26903 -0.56829,-2.56651 -0.95737,-5.19616 -1.81129,-7.66388 l -0.0184,-0.42244 0.0725,-0.29138 c 8.98143,2.10081 16.53224,9.04509 24.94354,13.20333 4.26535,2.10747 8.67264,3.66255 12.93354,5.95419 -0.27244,0.32637 -0.54335,0.65707 -0.8121,0.99088 -1.35575,1.6833 -2.35367,3.69494 -3.54784,5.52796 -1.93946,2.98259 -3.95656,5.90085 -5.86919,8.90655 -4.00702,6.29579 -7.98013,12.62051 -11.74256,19.10722 -1.68947,2.91054 -3.62532,5.69635 -4.86054,8.88957 -1.247,3.216 -3.27401,6.03584 -2.49923,10.14744 0.73572,3.89113 3.2814,6.52521 5.56422,9.15883 1.92953,2.22516 4.23459,2.56565 6.69467,0.562 2.27065,-1.84905 4.55118,-3.67323 6.71039,-5.67591 2.36945,-2.20063 4.6486,-4.52752 6.83868,-6.95077 4.23919,-4.69679 8.52803,-9.39322 12.17046,-14.68533 2.0257,-2.94424 3.67902,-6.1972 5.33388,-9.41998 1.11609,-2.17064 1.832,-4.61822 3.09208,-6.67102 2.06666,1.12537 3.2643,2.37645 5.05522,3.1835 2.74145,1.24024 5.62949,2.31997 8.57755,2.49744 4.77641,0.2896 9.77568,-0.28604 14.19957,-2.33879 1.91551,-0.89188 3.90168,-1.4958 5.00183,-4.1666 0.90329,-2.19356 2.70557,-3.85485 3.22267,-6.16881 1.04722,-4.70579 1.02387,-9.884 -0.5168,-14.54138 -0.89336,-2.70745 -3.02912,-4.67772 -2.36189,-7.96476 0.52489,-2.58193 -0.66675,-5.06853 -1.00131,-7.68184 -0.25011,-1.95873 -2.17653,-3.16674 -2.68749,-5.0509 -0.069,-0.097 -0.16156,-0.23339 -0.23788,-0.35465 0.52011,-0.88787 1.40754,-1.77129 1.95889,-2.81886 2.78639,-5.29118 7.06583,-9.34989 10.8715,-13.73838 1.92337,-2.21501 4.08221,-4.15334 6.03076,-6.33832 5.78301,-6.48097 11.90059,-12.69968 16.78578,-20.06145 1.76868,-2.66468 3.16936,-5.63273 4.46402,-8.6222 1.12322,-2.59601 2.27939,-5.23477 2.84669,-8.05563 0.52915,-2.62902 2.34887,-5.87253 0.47947,-8.07344 -1.39726,-1.64409 -3.7424,-2.65103 -5.74353,-2.66229 -3.31751,-0.013 -5.37289,3.60031 -7.72183,5.89574 -4.55765,4.45102 -8.44933,9.73794 -12.17731,15.08138 -2.42838,3.4812 -4.61782,7.18047 -6.59934,11.00351 -1.3273,2.56301 -2.40624,5.27937 -3.52725,7.96624 -1.84273,4.42074 -3.09347,9.16982 -5.25374,13.40278 -1.34217,2.63285 -3.1819,5.2571 -4.76125,7.47945 0,-0.0214 0,-0.0431 -0.0115,-0.0645 -0.93951,-1.79841 -1.48902,-4.93924 -3.41645,-6.40177 -2.54394,-1.92899 -5.52507,0.44979 -7.06458,2.79308 -1.37676,2.09193 -1.65447,5.20881 -3.55603,6.6661 -1.73393,1.32535 -1.51687,3.36891 -2.57616,4.81348 -1.20957,1.64857 -1.85208,3.55895 -4.23695,4.28714 -11.82808,-3.78739 -23.14512,-16.50496 -32.80373,-24.59706 -16.15458,-14.91171 -46.4899,-34.07072 -46.56216,-47.32389 -0.0506,-11.25665 11.70058,-19.40213 18.20961,-27.38498 6.51014,-7.98277 13.63023,-13.56502 20.43204,-20.50156 2.5943,-2.61087 5.45085,-5.01321 8.28885,-6.8804 2.85412,-1.87675 6.19789,-2.53377 9.43479,-3.2699 4.0143,-1.15232 8.60308,-2.68952 10.60496,-7.19652 2.25982,-4.221155 2.0763,-9.928375 -0.74604,-13.774735 -1.62328,-1.34642 -1.7506,-3.38673 -1.29629,-5.30008 0.32134,-1.35593 6.60133,1.97372 7.89638,2.61992 4.46089,2.1531 8.43335,5.42052 12.73169,7.95728 5.26433,3.10897 10.45826,6.436955 15.98558,8.893185 2.91418,1.29693 5.96902,2.15338 8.99681,3.05976 2.66841,0.79819 5.36757,1.46172 8.07224,2.09353 3.87214,0.90503 7.70907,2.46583 11.66614,2.42638 3.16894,-0.0252 3.97781,-6.38819 1.83487,-8.77438 -2.25966,-2.218845 -4.76385,-4.021875 -7.32405,-5.719965 -4.71552,-3.12726 -9.75618,-5.59346 -14.72609,-8.17211 -4.58053,-2.37742 -9.24043,-4.55548 -13.90318,-6.72148 -4.18884,-1.94223 -8.31973,-4.09611 -12.6419,-5.62522 -5.52642,-1.95478 -11.22667,-3.24845 -16.91126,-4.49917 -1.93795,-0.42639 -3.91623,-0.62158 -5.85312,-1.02222 -1.03484,-1.08206 -0.31537,-3.10654 -1.29802,-4.37422 -0.40395,-2.55696 -0.89623,-5.33154 -2.43051,-7.35475 -0.45022,-0.50839 -1.0817,-0.84479 -1.72924,-0.76959 -2.82809,0.58025 -3.9537,3.95434 -4.9818,6.57864 -0.92547,1.66571 -1.83556,3.1625 -2.54227,5.02102 -2.79447,0.0419 -5.09589,-1.33092 -7.58327,-2.23137 -4.74002,-1.72114 -9.40449,-3.73708 -13.94064,-6.05401 -3.34507,-1.70651 -6.46812,-3.92446 -9.75819,-5.759024 -5.65242,-3.15856 -11.35168,-6.2119 -17.14223,-9.02958 -3.14669,-1.53234 -6.29247,-3.103463 -9.5562,-4.281533 -1.52381,-0.553941 -3.03483,-1.321045 -4.66307,-1.302369 z m -58.33894,92.870044 0.15214,0.0771 c -0.7223,1.51934 -13.63466,28.87292 -3.4588,79.12124 0.81606,4.0235 -5.31594,5.77928 -6.15707,1.57544 -9.1651,-45.88114 8.72521,-79.2378 9.46373,-80.78839 z m 41.46966,0 c 0.739,1.55057 18.62961,34.91039 9.46323,80.78797 -0.84046,4.20383 -6.97284,2.44795 -6.1562,-1.57257 10.17524,-50.25131 -2.7364,-77.60487 -3.45917,-79.12077 z m -21.51041,77.03714 c 2.67653,0.006 5.27915,0.25236 7.19176,0.95723 3.73819,1.37452 7.69579,3.97636 9.46471,7.93679 0.76967,1.72154 0.854,4.10553 0.0115,5.78119 -0.83583,1.66289 -2.21688,2.925 -4.37203,2.93321 -1.12464,0.003 -1.20441,-1.4487 0,-1.44111 1.77899,0.0103 2.79656,-0.74796 3.54634,-1.97159 0.8575,-1.40142 1.05649,-3.53657 0.4353,-5.08802 -1.56799,-3.92602 -5.64659,-6.22179 -9.26748,-7.5785 -6.05484,-2.26786 -19.13427,-0.29945 -19.13427,-0.29945 v -0.0763 c 0,0 6.23604,-1.15182 12.12217,-1.1401 z m 0.35051,6.67016 c 0.0426,0 0.0863,0.001 0.15394,0.002 1.14161,-0.002 2.27728,0.44483 3.16764,1.24694 2.66526,2.20857 2.50756,7.26476 -0.28882,9.25402 -2.65683,2.22145 -6.8882,0.55402 -7.7452,-3.04873 -1.07609,-3.46302 1.48146,-7.46592 4.71244,-7.45532 z m 0.14821,0.17866 c -0.0529,0 -0.11401,0 -0.19044,0.002 -0.50082,0 -1.00538,0.0803 -1.47868,0.28249 -1.99979,0.75482 -3.41072,3.10908 -3.25417,5.48408 0.038,1.71535 0.88532,3.30455 2.07686,4.33224 0.45114,0.3684 0.96931,0.65382 1.50988,0.82005 0.67994,0.29339 1.42152,0.25304 2.13559,0.18111 0.71607,-0.23027 1.53534,-0.36497 2.0668,-1.0105 0.33934,-0.2981 0.82625,-0.80363 0.96487,-1.10984 -0.22369,0.27481 -0.5415,0.63908 -0.7764,0.78556 -0.10677,-0.3584 0.0265,0.1818 -0.0679,0.0129 -0.015,0.10608 -0.25843,0.25299 -0.39453,0.34769 -0.0311,0.0175 -0.30605,0.34171 -0.41387,0.0924 -0.27319,-0.0189 0.29354,0.15311 -0.0598,0.20672 -0.15244,0.24242 -0.40077,-0.36975 -0.43565,-0.0815 0.023,-0.21692 0.37548,0.43099 0.0851,0.0436 -0.12805,0.15095 0.19327,0.0959 -0.061,0.22275 0.0334,-0.0462 -0.0541,-0.24102 -0.1078,-0.18975 -0.22609,0.0864 0.0253,-0.38344 0.26761,-0.23101 0.17265,-0.12171 0.33964,-0.267 0.62612,-0.4681 0.217,-0.11387 0.27513,-0.10277 0.36298,-0.26739 0.26542,-0.2132 0.33191,-0.55936 0.57373,-0.76881 0.16929,-0.25355 0.2078,-0.43995 0.34218,-0.55401 0.19172,-0.35922 0.23572,-0.77458 0.41197,-1.20792 0.1575,-0.0552 0,-0.74099 0.30117,-0.95833 0.046,-0.92789 -0.061,-1.87719 -0.47929,-2.69278 0.0115,0.22333 0.28234,0.76444 0.32379,1.12394 0.09,0.48193 0.18265,1.20896 0.0667,1.5753 -0.10378,-0.28674 -0.038,-0.89947 -0.14357,-1.30856 -0.0288,-0.51929 -0.2552,-0.7111 -0.32119,-1.09577 -0.32967,-0.57554 0.16085,0.42431 0.061,0.54315 -0.21322,-0.24134 -0.31079,-0.74172 -0.57099,-1.09228 -0.59135,-1.02383 -1.58281,-1.67339 -2.62592,-1.94502 -0.20904,-0.1038 0.52751,0.0743 0.65589,0.11767 -0.0299,-0.0817 -0.70816,-0.24206 -0.97968,-0.30219 0.2309,-0.0561 0.53095,0.0555 0.8223,0.12169 0.45542,0.089 0.0357,-0.18061 -0.19456,-0.23137 1.10142,0.29337 2.11328,1.0721 2.69558,2.1776 0.26235,0.4602 0.069,-0.0335 -0.0621,-0.19544 -0.22205,-0.45289 -0.58463,-0.79051 -0.91248,-1.13729 -0.33276,-0.24456 -0.72149,-0.576 -1.13916,-0.73183 -0.28052,-0.0855 -0.55797,-0.2659 -0.7801,-0.24693 -0.40126,-0.0103 -0.24778,-0.10951 -0.41307,-0.45808 0.0276,-0.11572 0.58452,0.0286 0.79133,0.0587 0.49265,0.0635 1.08948,0.45475 1.4292,0.61865 -0.80377,-0.55672 -1.73459,-0.91885 -2.68347,-0.92675 z m 0.1078,0.16951 c 0.0299,0 0.0598,10e-4 0.09,0.007 l 0.0748,0.006 0.0449,0.0141 c -0.20522,0.0523 -0.14609,0.3213 -0.14609,0.38661 -0.0748,-0.12169 -0.52102,0.10597 -0.46601,-0.0465 -0.0736,-0.22894 0.0969,-0.35854 0.3614,-0.36019 z m -0.4374,0.0338 c 0.0633,0.26805 0,0.24804 -0.0265,0.16277 -0.0115,0.0158 -0.0426,0.02 -0.0851,0.007 0.32298,0.2656 -0.19746,0.10837 0.0253,-0.10391 0.0253,0.0192 0.0426,0.0363 0.0529,0.0512 0,-0.0308 0.0115,-0.0644 0.0345,-0.0921 z m -0.30139,0.0877 c 0.0265,-1e-5 0.16345,0.0983 0.0437,0.0721 0.20618,0.11638 -0.0161,0.0829 0.0878,0.17091 -0.0115,0.17319 -0.23854,-0.21125 -0.15714,-0.25735 z m 0.85755,0.88865 c 0.0242,0 0.0472,0 0.0679,0.002 0.93644,0 1.83632,0.49309 2.49336,1.23131 1.04728,1.13608 1.49383,2.94845 1.00246,4.50898 -0.25636,0.8293 -0.69147,1.66415 -1.38349,2.10431 -0.61311,0.50609 -1.37041,0.84015 -2.14059,0.88049 -1.53008,0.1217 -3.0638,-0.91295 -3.69311,-2.48628 -0.20739,-0.51148 -0.287,-1.06255 -0.33228,-1.61773 0.0195,-0.93744 0.26031,-1.91322 0.78977,-2.65263 0.18202,-0.18178 0.26649,-0.41024 0.40938,-0.49697 0.30615,-0.21367 0.66644,-0.52904 0.95134,-0.66812 0.4761,-0.21612 0,0.0901 -0.21477,0.26079 -0.99989,0.73313 -1.62032,2.05558 -1.60179,3.40161 -0.0265,1.25723 0.614,2.43838 1.48546,3.15751 0.43117,0.40167 0.98786,0.59462 1.53947,0.6789 1.23877,0.27736 2.52603,-0.43439 3.26306,-1.54959 0.33708,-0.60059 0.63142,-1.2705 0.6445,-1.9938 0.17993,-1.52894 -0.58833,-3.08392 -1.77268,-3.81355 -0.4006,-0.25909 -0.8885,-0.3954 -1.30385,-0.51107 -0.37906,-0.0136 -0.79825,-0.0462 -1.16216,0.0354 -0.37468,0.22825 -0.20772,-0.0877 0.046,-0.0413 0.24786,-0.091 0.5997,-0.0751 0.90617,-0.077 1.10366,0.0204 2.11988,0.73112 2.77384,1.70514 0.47606,0.67676 0.61906,1.58077 0.68081,2.42227 0,0.79891 -0.22576,1.60922 -0.62867,2.26762 -0.514,0.8643 -1.30995,1.50058 -2.20724,1.75096 0.0449,0.0364 0.67192,-0.1217 0.88418,-0.25353 0.32449,-0.17373 0.59856,-0.4287 0.82063,-0.63143 0.25354,-0.23901 0.46862,-0.56995 0.61185,-0.87549 0.42292,-0.78055 0.5958,-1.71894 0.61074,-2.62685 -0.0794,-1.65665 -1.16229,-3.19023 -2.55218,-3.71139 -0.33832,-0.17165 -0.79836,-0.12171 -1.0722,-0.32937 -0.38174,0.0117 -0.13595,-0.045 0.0518,-0.0463 z m 1.93425,0.185 c 0.13922,0.16603 0.28057,0.1788 -0.0265,0.0394 0.24122,0.26057 0.65865,0.5107 0.93034,0.82017 -0.15583,-0.22939 -0.47427,-0.49677 -0.7127,-0.70551 0.43257,0.28447 0.79057,0.70015 1.11224,1.1303 -0.30596,-0.48994 -0.77259,-1.02569 -1.29876,-1.29156 z m -2.95328,0.0339 c 0,0.10162 -0.36244,0.0577 0,0 z m -0.36178,0.0983 0.0115,0.003 c -0.23795,0.17329 -0.42447,0.27887 -0.71647,0.44513 -0.0391,-0.20163 0.52145,-0.32681 0.70988,-0.45035 z m 4.65294,1.298 v 0.0243 c 0.15352,0.34541 0.19961,0.22671 0,-0.0243 z m -2.12138,0.15983 c 0.37413,0.0957 0.63222,0.52887 0.84111,0.87658 0.38305,0.4379 -0.44659,1.26386 -0.57349,0.57472 0.0115,-0.49162 -0.30659,-1.03929 -0.26762,-1.4513 z m -5.89075,0.7673 c 0.0426,0.0208 -0.0506,0.12171 -0.0161,0.143 -0.096,0.41645 -0.094,0.0337 0.0161,-0.143 z m 1.75398,0.0691 c 0.19682,0.31045 -0.24931,0.97045 -0.094,1.40317 0.10722,-0.0318 0.1,0.49034 0.16036,0.80508 0.1517,0.8559 0.68583,1.56744 1.30716,2.05399 -0.16958,-0.001 -0.43552,-0.26139 -0.13366,0.0628 0.41826,0.2531 0.8881,0.44487 1.3655,0.49582 0.53337,0.008 0.0483,0.10265 -0.20899,0.0831 -0.0736,0.12169 0.82146,0.0239 0.38778,0.33202 -0.7604,0.07 -1.53878,-0.26094 -2.11437,-0.81769 -0.452,-0.35707 -0.71294,-0.91322 -0.91027,-1.47682 -0.34149,-0.95127 -0.3018,-2.13674 0.25615,-2.97009 z m 7.08086,1.20664 c -0.0253,0.46115 0.0449,0.27027 0,0 z m -7.16532,0.6632 c -0.0345,0.10357 0.0127,0.26336 0.0265,0.388 0.16152,0.63158 0,-0.16493 -0.0265,-0.388 z m 0.67407,0.26675 c 0.29557,0.5188 0.63127,1.01617 1.05039,1.41966 0.37533,0.18771 0.0288,0.58918 -0.2793,0.34767 -0.42673,-0.19601 -0.79428,-0.6255 -0.91883,-1.12301 0.2894,-0.019 0.17841,-0.23426 0.14774,-0.64432 z m 6.73412,0.29386 -0.0633,0.014 c -0.3363,0.50556 0.62449,0.24665 0.0633,-0.014 z m 0.0172,0.0318 c 0.23989,0.10609 0.0115,0.34378 0,0 z m -0.0575,0.96322 c -0.13646,0.0945 -0.0518,0.21948 -0.15015,0.30693 -0.15568,0.30069 -0.33677,0.68796 -0.12092,0.64389 0.29753,-0.0932 0.48218,-0.68075 0.27758,-0.95082 z m -1.15505,1.48612 c -0.29676,0.31855 -0.12981,0.29902 0,0 z m -0.12751,0.61592 c -0.0541,0.0516 -0.0713,-0.001 -0.10331,0.12834 -0.25052,0.0901 -0.37357,0.11611 -0.0242,0.0546 0.12841,-0.23964 0.17731,0.11387 0.15228,-0.20952 z m -5.02444,0.43255 v 0 c 0.32107,0.0338 0.56623,0.29391 0.54487,0.40769 -0.14528,0.0493 -1.00481,-0.38974 -0.54487,-0.40803 z m 3.25736,0.0572 0.0495,0.009 c 0.48855,0.2434 -0.28922,0.0756 -0.0495,-0.009 z m -0.15484,0.0769 c 0.0426,0.0571 0,0.0921 0.0958,0.0422 0.13224,0.0596 -0.25259,0.10002 -0.37235,0.23729 -0.16672,0 -0.55084,0.11689 -0.73094,0.0748 -0.18924,0.20882 -0.1349,-0.34071 0.17402,-0.12169 0.32932,0.0332 0.53477,-0.10838 0.81378,-0.23474 z m -1.22854,0.18326 c 0.25187,0.0439 -0.0334,0.20006 -0.11781,0.18665 -0.34741,0.27999 -0.0288,-0.11494 0.11781,-0.18665 z m 1.81356,0.0435 c -0.0506,0.15871 0.17003,0.26191 0,0 z m -0.50951,0.092 c 0.10975,0.0201 -0.0736,0.0528 -0.0138,0.12169 -0.0472,0.2255 -0.3111,-0.0603 0.0138,-0.12169 z m -2.60481,0.041 c 0.17504,-10e-4 -0.0564,0.20499 -0.0345,0.002 0.0127,-0.001 0.0242,-0.002 0.0345,-0.002 z m 2.67558,0.20136 c 0.13904,0.11386 -0.166,0.22432 0,0 z m -1.22693,0.0136 c 0.21165,0.0767 -0.0414,0.0978 0,0 z m 0.20679,0.11611 c 0.17459,0.16127 -0.0368,0.20576 0,0 z m -65.49543,14.17301 c -0.0173,0.16455 -0.727518,2.88504 -1.018748,4.34706 -0.65322,3.26475 -1.12718,6.57259 -1.64186,9.86901 -0.47552,3.06012 -0.73431,4.12831 -1.33335,9.19828 -0.25453,2.1619 -0.42548,4.33214 -0.54087,6.50814 -0.84137,-0.73944 -1.68257,-1.47438 -2.51938,-2.21529 -4.12001,-3.64367 -8.12278,-7.48386 -12.49433,-10.73262 -1.78884,-1.32999 -3.58697,-2.6567 -5.39207,-3.96741 1.05199,-0.43199 2.10587,-0.87391 3.16312,-1.32605 2.54798,-1.08942 4.87408,-2.74056 7.32999,-4.0683 4.79136,-2.59285 9.60537,-5.33148 14.447498,-7.61282 z"
           style="fill:#000000;stroke-width:0.105639" /></g><path
         id="path2899"
         sodipodi:nodetypes="ccccccccscccccscccccsccccccscccccccccsscccccssccsscccscc"
         style="fill:#000000;stroke:#000000;stroke-width:0.0705808px"
         d="m 217.0246,-157.90088 c -0.75355,1.88668 -1.44793,3.83159 -2.07083,4.81639 -1.70253,0.33529 -3.48408,-1.01095 -3.47896,-0.85025 -0.003,3.09115 2.19948,7.18559 3.60576,10.88452 0.40144,1.47648 3.21124,8.85891 3.21124,8.85891 l 5.75351,11.49096 -0.55473,0.41615 c 0.89856,1.13752 0.77619,1.51551 2.52851,1.21124 1.73941,-0.34074 2.41348,-1.23622 3.45653,-0.39711 1.04288,0.8391 1.30383,2.04265 0.82628,3.09386 -2.27467,0.45431 -7.86221,2.47052 -7.86221,2.47052 h -4.41528 l -0.40144,-4.75033 -1.07039,0.22716 c 0,0 -3.47894,-8.87875 -4.01404,-10.92311 -0.53519,-2.04439 -5.88738,-7.496 -5.88738,-7.496 0,0 -2.80982,6.70092 -3.61248,8.74528 -0.80283,2.0444 -3.47894,9.42676 -3.47894,9.42676 l -1.001,-0.46341 c -0.20093,1.16303 -1.30171,0.7 -0.0694,1.48561 2.07191,0.72557 3.14165,-0.93082 4.77234,-0.18992 1.63082,0.7409 0.17827,3.59727 0.17827,3.59727 h -12.97879 c -0.46507,-2.29884 1.5099,-3.51436 1.53824,-5.50845 l -0.60161,-0.11356 c 0,0 3.88019,-6.5305 4.54914,-9.02934 0.66896,-2.49867 3.07738,-9.19951 3.21124,-11.35749 0.13379,-2.1579 -0.13382,-8.85892 -0.66905,-9.42675 -0.5352,-0.56789 -3.81326,-2.32835 -3.67941,-3.46408 0.66745,-3.22434 2.7102,-6.10726 3.01046,-9.36993 l 5.21841,-3.74787 -0.26761,-3.29364 2.00699,0.79504 v -2.95307 l -3.07741,-1.13569 0.4014,-0.90864 3.61248,-0.34073 c 0,0 1.20421,-2.04436 2.80986,-2.38508 1.60564,-0.34074 4.81685,0.68145 5.61966,1.36291 0.80278,0.68147 0.26758,3.18001 0.26758,3.18001 l 2.67604,2.04438 -0.26758,1.24934 c 0,0 -3.34508,-1.59004 -3.47894,-1.13576 -0.65984,1.50887 -2.12433,2.66795 -3.47895,3.74815 0,0 0.7951,1.0527 1.31383,2.40871 0.17922,0.46854 1.62182,1.54014 1.86459,1.9493 0.21327,0.35947 -1.89629,0.009 -1.90734,0.29858 0.01,1.80614 -0.20751,4.85988 2.58478,5.29344 0.29169,-0.59873 2.31693,-5.93847 2.55082,-5.41848 0.0295,0.0657 0.10225,-0.96442 0.41524,-1.34367 0.20952,-0.25386 0.22602,-0.48128 1.28542,-0.69279 1.25488,-2.29845 3.99771,-3.83348 3.99771,-3.83348 l 7.51477,2.6939 c 0,0 -2.46472,-0.14707 -3.95705,2.91772 -1.49229,3.06479 -2.80467,7.42696 -2.80467,7.42696 l -5.69556,-1.56405 z" /><g
         id="g23"
         style="fill:none;fill-opacity:1;stroke:#3474a8;stroke-width:1.13542;stroke-dasharray:4.54168, 4.54168;stroke-dashoffset:0;stroke-opacity:1"
         transform="matrix(-0.61088667,0.35967579,0.38588418,0.56780781,401.55827,-223.64229)"><path
           id="path21"
           d="m 175.06,-236.91 c 0,0 4.07,4.17 4.07,12.1 m -4.07,12.05 c 0,0 4.07,-4.17 4.07,-12.1"
           fill-rule="evenodd"
           stroke="#3d7ca6"
           stroke-linecap="round"
           stroke-width="6.3702"
           style="fill:none;fill-opacity:1;stroke:#3474a8;stroke-width:1.13542;stroke-dasharray:4.54168, 4.54168;stroke-dashoffset:0;stroke-opacity:1" /><path
           id="path22"
           d="m 188.95,-248.99 c 0,0 8.14,8.35 8.14,24.21 m -8.14,24.1 c 0,0 8.14,-8.34 8.14,-24.2"
           fill-rule="evenodd"
           stroke="#3d7ca6"
           stroke-linecap="round"
           stroke-width="6.3702"
           style="fill:none;fill-opacity:1;stroke:#3474a8;stroke-width:1.13542;stroke-dasharray:4.54168, 4.54168;stroke-dashoffset:0;stroke-opacity:1" /><path
           id="path23"
           d="m 204.09,-261.06 c 0,0 12.22,12.51 12.22,36.3 m -12.22,36.16 c 0,0 12.22,-12.52 12.22,-36.31"
           fill-rule="evenodd"
           stroke="#3d7ca6"
           stroke-linecap="round"
           stroke-width="6.3702"
           style="fill:none;fill-opacity:1;stroke:#3474a8;stroke-width:1.13542;stroke-dasharray:4.54168, 4.54168;stroke-dashoffset:0;stroke-opacity:1" /></g><g
         id="g28"
         style="fill:none;fill-opacity:1;stroke:#3474a8;stroke-width:1.13542;stroke-dasharray:4.54168, 4.54168;stroke-dashoffset:0;stroke-opacity:1"
         transform="matrix(-0.8908729,-0.04434727,-0.04516304,0.88999251,374.6624,-8.3477573)"><path
           id="path26"
           d="m 175.06,-236.91 c 0,0 4.07,4.17 4.07,12.1 m -4.07,12.05 c 0,0 4.07,-4.17 4.07,-12.1"
           fill-rule="evenodd"
           stroke="#3d7ca6"
           stroke-linecap="round"
           stroke-width="6.3702"
           style="fill:none;fill-opacity:1;stroke:#3474a8;stroke-width:1.13542;stroke-dasharray:4.54168, 4.54168;stroke-dashoffset:0;stroke-opacity:1" /><path
           id="path27"
           d="m 188.95,-248.99 c 0,0 8.14,8.35 8.14,24.21 m -8.14,24.1 c 0,0 8.14,-8.34 8.14,-24.2"
           fill-rule="evenodd"
           stroke="#3d7ca6"
           stroke-linecap="round"
           stroke-width="6.3702"
           style="fill:none;fill-opacity:1;stroke:#3474a8;stroke-width:1.13542;stroke-dasharray:4.54168, 4.54168;stroke-dashoffset:0;stroke-opacity:1" /><path
           id="path28"
           d="m 204.09,-261.06 c 0,0 12.22,12.51 12.22,36.3 m -12.22,36.16 c 0,0 12.22,-12.52 12.22,-36.31"
           fill-rule="evenodd"
           stroke="#3d7ca6"
           stroke-linecap="round"
           stroke-width="6.3702"
           style="fill:none;fill-opacity:1;stroke:#3474a8;stroke-width:1.13542;stroke-dasharray:4.54168, 4.54168;stroke-dashoffset:0;stroke-opacity:1" /></g></g></g></svg>
