<?xml version="1.0" encoding="UTF-8" standalone="no"?>
<svg
   width="360pt"
   height="360pt"
   viewBox="0 0 360 360"
   version="1.1"
   id="svg115"
   sodipodi:docname="detect_mov_avg.svg"
   inkscape:version="1.3.2 (091e20ef0f, 2023-11-25, custom)"
   inkscape:export-filename="detect_mov_avg.png"
   inkscape:export-xdpi="200"
   inkscape:export-ydpi="200"
   xmlns:inkscape="http://www.inkscape.org/namespaces/inkscape"
   xmlns:sodipodi="http://sodipodi.sourceforge.net/DTD/sodipodi-0.dtd"
   xmlns:xlink="http://www.w3.org/1999/xlink"
   xmlns="http://www.w3.org/2000/svg"
   xmlns:svg="http://www.w3.org/2000/svg"
   xmlns:rdf="http://www.w3.org/1999/02/22-rdf-syntax-ns#"
   xmlns:cc="http://creativecommons.org/ns#"
   xmlns:dc="http://purl.org/dc/elements/1.1/">
  <sodipodi:namedview
     id="namedview115"
     pagecolor="#ffffff"
     bordercolor="#000000"
     borderopacity="0.25"
     inkscape:showpageshadow="2"
     inkscape:pageopacity="0.0"
     inkscape:pagecheckerboard="0"
     inkscape:deskcolor="#d1d1d1"
     inkscape:document-units="pt"
     inkscape:zoom="1.825"
     inkscape:cx="240.27397"
     inkscape:cy="240"
     inkscape:window-width="1396"
     inkscape:window-height="1293"
     inkscape:window-x="40"
     inkscape:window-y="103"
     inkscape:window-maximized="1"
     inkscape:current-layer="svg115" />
  <metadata
     id="metadata1">
    <rdf:RDF>
      <cc:Work>
        <dc:type
           rdf:resource="http://purl.org/dc/dcmitype/StillImage" />
        <dc:date>2024-03-07T00:26:44.206943</dc:date>
        <dc:format>image/svg+xml</dc:format>
        <dc:creator>
          <cc:Agent>
            <dc:title>Matplotlib v3.7.2, https://matplotlib.org/</dc:title>
          </cc:Agent>
        </dc:creator>
      </cc:Work>
    </rdf:RDF>
  </metadata>
  <defs
     id="defs1">
    <style
       type="text/css"
       id="style1">*{stroke-linejoin: round; stroke-linecap: butt}</style>
  </defs>
  <g
     id="patch_1">
    <path
       d="M 0,360 H 360 V 0 H 0 Z"
       style="fill:#ffffff"
       id="path1" />
  </g>
  <g
     id="axes_1">
    <g
       id="patch_2">
      <path
         d="M 50.6,315.16 H 349.2 V 26.88 H 50.6 Z"
         style="fill:#ffffff"
         id="path2" />
    </g>
    <g
       id="PolyCollection_1" />
    <g
       id="matplotlib.axis_1">
      <g
         id="xtick_1">
        <g
           id="line2d_1">
          <path
             d="M 50.996701,315.16 V 26.88"
             clip-path="url(#p7b52234217)"
             style="fill:none;stroke:#b0b0b0;stroke-width:0.8;stroke-linecap:square"
             id="path3" />
        </g>
        <g
           id="line2d_2">
          <defs
             id="defs3">
            <path
               id="mc7b3fd64af"
               d="M 0,0 V 3.5"
               style="stroke:#000000;stroke-width:0.8" />
          </defs>
          <g
             id="g3">
            <use
               xlink:href="#mc7b3fd64af"
               x="50.9967"
               y="315.16"
               style="stroke:#000000;stroke-width:0.8"
               id="use3" />
          </g>
        </g>
        <g
           id="text_1">
          <!-- 0 -->
          <g
             transform="matrix(0.1,0,0,-0.1,47.815451,329.75844)"
             id="g4">
            <defs
               id="defs4">
              <path
                 id="DejaVuSans-30"
                 d="m 2034,4250 q -487,0 -733,-480 -245,-479 -245,-1442 0,-959 245,-1439 246,-480 733,-480 491,0 736,480 246,480 246,1439 0,963 -246,1442 -245,480 -736,480 z m 0,500 q 785,0 1199,-621 414,-620 414,-1801 0,-1178 -414,-1799 -414,-620 -1199,-620 -784,0 -1198,620 -414,621 -414,1799 0,1181 414,1801 414,621 1198,621 z"
                 transform="scale(0.015625)" />
            </defs>
            <use
               xlink:href="#DejaVuSans-30"
               id="use4" />
          </g>
        </g>
      </g>
      <g
         id="xtick_2">
        <g
           id="line2d_3">
          <path
             d="M 112.56371,315.16 V 26.88"
             clip-path="url(#p7b52234217)"
             style="fill:none;stroke:#b0b0b0;stroke-width:0.8;stroke-linecap:square"
             id="path4" />
        </g>
        <g
           id="line2d_4">
          <g
             id="g5">
            <use
               xlink:href="#mc7b3fd64af"
               x="112.56371"
               y="315.16"
               style="stroke:#000000;stroke-width:0.8"
               id="use5" />
          </g>
        </g>
        <g
           id="text_2">
          <!-- 2 -->
          <g
             transform="matrix(0.1,0,0,-0.1,109.38246,329.75844)"
             id="g6">
            <defs
               id="defs5">
              <path
                 id="DejaVuSans-32"
                 d="M 1228,531 H 3431 V 0 H 469 v 531 q 359,372 979,998 621,627 780,809 303,340 423,576 121,236 121,464 0,372 -261,606 -261,235 -680,235 -297,0 -627,-103 -329,-103 -704,-313 v 638 q 381,153 712,231 332,78 607,78 725,0 1156,-363 431,-362 431,-968 0,-288 -108,-546 -107,-257 -392,-607 -78,-91 -497,-524 Q 1991,1309 1228,531 Z"
                 transform="scale(0.015625)" />
            </defs>
            <use
               xlink:href="#DejaVuSans-32"
               id="use6" />
          </g>
        </g>
      </g>
      <g
         id="xtick_3">
        <g
           id="line2d_5">
          <path
             d="M 174.13072,315.16 V 26.88"
             clip-path="url(#p7b52234217)"
             style="fill:none;stroke:#b0b0b0;stroke-width:0.8;stroke-linecap:square"
             id="path6" />
        </g>
        <g
           id="line2d_6">
          <g
             id="g7">
            <use
               xlink:href="#mc7b3fd64af"
               x="174.13072"
               y="315.16"
               style="stroke:#000000;stroke-width:0.8"
               id="use7" />
          </g>
        </g>
        <g
           id="text_3">
          <!-- 4 -->
          <g
             transform="matrix(0.1,0,0,-0.1,170.94947,329.75844)"
             id="g8">
            <defs
               id="defs7">
              <path
                 id="DejaVuSans-34"
                 d="M 2419,4116 825,1625 h 1594 z m -166,550 h 794 V 1625 h 666 V 1100 H 3047 V 0 H 2419 V 1100 H 313 v 609 z"
                 transform="scale(0.015625)" />
            </defs>
            <use
               xlink:href="#DejaVuSans-34"
               id="use8" />
          </g>
        </g>
      </g>
      <g
         id="xtick_4">
        <g
           id="line2d_7">
          <path
             d="M 235.69773,315.16 V 26.88"
             clip-path="url(#p7b52234217)"
             style="fill:none;stroke:#b0b0b0;stroke-width:0.8;stroke-linecap:square"
             id="path8" />
        </g>
        <g
           id="line2d_8">
          <g
             id="g9">
            <use
               xlink:href="#mc7b3fd64af"
               x="235.69774"
               y="315.16"
               style="stroke:#000000;stroke-width:0.8"
               id="use9" />
          </g>
        </g>
        <g
           id="text_4">
          <!-- 6 -->
          <g
             transform="matrix(0.1,0,0,-0.1,232.51648,329.75844)"
             id="g10">
            <defs
               id="defs9">
              <path
                 id="DejaVuSans-36"
                 d="m 2113,2584 q -425,0 -674,-291 -248,-290 -248,-796 0,-503 248,-796 249,-292 674,-292 425,0 673,292 248,293 248,796 0,506 -248,796 -248,291 -673,291 z m 1253,1979 v -575 q -238,112 -480,171 -242,60 -480,60 -625,0 -955,-422 -329,-422 -376,-1275 184,272 462,417 279,145 613,145 703,0 1111,-427 408,-426 408,-1160 0,-719 -425,-1154 -425,-434 -1131,-434 -810,0 -1238,620 -428,621 -428,1799 0,1106 525,1764 525,658 1409,658 238,0 480,-47 242,-47 505,-140 z"
                 transform="scale(0.015625)" />
            </defs>
            <use
               xlink:href="#DejaVuSans-36"
               id="use10" />
          </g>
        </g>
      </g>
      <g
         id="xtick_5">
        <g
           id="line2d_9">
          <path
             d="M 297.26474,315.16 V 26.88"
             clip-path="url(#p7b52234217)"
             style="fill:none;stroke:#b0b0b0;stroke-width:0.8;stroke-linecap:square"
             id="path10" />
        </g>
        <g
           id="line2d_10">
          <g
             id="g11">
            <use
               xlink:href="#mc7b3fd64af"
               x="297.26474"
               y="315.16"
               style="stroke:#000000;stroke-width:0.8"
               id="use11" />
          </g>
        </g>
        <g
           id="text_5">
          <!-- 8 -->
          <g
             transform="matrix(0.1,0,0,-0.1,294.08349,329.75844)"
             id="g12">
            <defs
               id="defs11">
              <path
                 id="DejaVuSans-38"
                 d="m 2034,2216 q -450,0 -708,-241 -257,-241 -257,-662 0,-422 257,-663 258,-241 708,-241 450,0 709,242 260,243 260,662 0,421 -258,662 -257,241 -711,241 z m -631,268 q -406,100 -633,378 -226,279 -226,679 0,559 398,884 399,325 1092,325 697,0 1094,-325 397,-325 397,-884 0,-400 -227,-679 -226,-278 -629,-378 456,-106 710,-416 255,-309 255,-755 Q 3634,634 3220,271 2806,-91 2034,-91 1263,-91 848,271 434,634 434,1313 q 0,446 256,755 257,310 713,416 z m -231,997 q 0,-362 226,-565 227,-203 636,-203 407,0 636,203 230,203 230,565 0,363 -230,566 -229,203 -636,203 -409,0 -636,-203 -226,-203 -226,-566 z"
                 transform="scale(0.015625)" />
            </defs>
            <use
               xlink:href="#DejaVuSans-38"
               id="use12" />
          </g>
        </g>
      </g>
      <g
         id="text_6">
        <!-- Time (seconds) -->
        <g
           transform="matrix(0.12,0,0,-0.12,154.10594,344.95625)"
           id="g26">
          <defs
             id="defs12">
            <path
               id="DejaVuSans-54"
               d="M -19,4666 H 3928 V 4134 H 2272 V 0 H 1638 V 4134 H -19 Z"
               transform="scale(0.015625)" />
            <path
               id="DejaVuSans-69"
               d="m 603,3500 h 575 V 0 H 603 Z m 0,1363 h 575 V 4134 H 603 Z"
               transform="scale(0.015625)" />
            <path
               id="DejaVuSans-6d"
               d="m 3328,2828 q 216,388 516,572 300,184 706,184 547,0 844,-383 297,-382 297,-1088 V 0 h -578 v 2094 q 0,503 -179,746 -178,244 -543,244 -447,0 -707,-297 -259,-296 -259,-809 V 0 h -578 v 2094 q 0,506 -178,748 -178,242 -550,242 -441,0 -701,-298 -259,-298 -259,-808 V 0 H 581 v 3500 h 578 v -544 q 197,322 472,475 275,153 653,153 382,0 649,-194 267,-193 395,-562 z"
               transform="scale(0.015625)" />
            <path
               id="DejaVuSans-65"
               d="M 3597,1894 V 1613 H 953 q 38,-594 358,-905 320,-311 892,-311 331,0 642,81 311,81 618,244 V 178 Q 3153,47 2828,-22 2503,-91 2169,-91 1331,-91 842,396 353,884 353,1716 q 0,859 464,1363 464,505 1252,505 706,0 1117,-455 411,-454 411,-1235 z m -575,169 q -6,471 -264,752 -258,282 -683,282 -481,0 -770,-272 -289,-272 -333,-766 z"
               transform="scale(0.015625)" />
            <path
               id="DejaVuSans-20"
               transform="scale(0.015625)"
               d="" />
            <path
               id="DejaVuSans-28"
               d="m 1984,4856 q -418,-718 -622,-1422 -203,-703 -203,-1425 0,-721 205,-1429 205,-708 620,-1424 h -500 q -468,735 -701,1444 -233,709 -233,1409 0,697 231,1403 232,707 703,1444 z"
               transform="scale(0.015625)" />
            <path
               id="DejaVuSans-73"
               d="m 2834,3397 v -544 q -243,125 -506,187 -262,63 -544,63 -428,0 -642,-131 -214,-131 -214,-394 0,-200 153,-314 153,-114 616,-217 l 197,-44 q 612,-131 870,-370 258,-239 258,-667 0,-488 -386,-773 Q 2250,-91 1575,-91 1294,-91 989,-36 684,19 347,128 v 594 q 319,-166 628,-249 309,-82 613,-82 406,0 624,139 219,139 219,392 0,234 -158,359 -157,125 -692,241 l -200,47 q -534,112 -772,345 -237,233 -237,639 0,494 350,762 350,269 994,269 318,0 599,-47 282,-46 519,-140 z"
               transform="scale(0.015625)" />
            <path
               id="DejaVuSans-63"
               d="m 3122,3366 v -538 q -244,135 -489,202 -245,67 -495,67 -560,0 -870,-355 -309,-354 -309,-995 0,-641 309,-996 310,-354 870,-354 250,0 495,67 245,67 489,202 V 134 Q 2881,22 2623,-34 2366,-91 2075,-91 1284,-91 818,406 353,903 353,1747 q 0,856 470,1346 471,491 1290,491 265,0 518,-55 253,-54 491,-163 z"
               transform="scale(0.015625)" />
            <path
               id="DejaVuSans-6f"
               d="m 1959,3097 q -462,0 -731,-361 -269,-361 -269,-989 0,-628 267,-989 268,-361 733,-361 460,0 728,362 269,363 269,988 0,622 -269,986 -268,364 -728,364 z m 0,487 q 750,0 1178,-488 429,-487 429,-1349 Q 3566,888 3137,398 2709,-91 1959,-91 1206,-91 779,398 353,888 353,1747 q 0,862 426,1349 427,488 1180,488 z"
               transform="scale(0.015625)" />
            <path
               id="DejaVuSans-6e"
               d="M 3513,2113 V 0 h -575 v 2094 q 0,497 -194,743 -194,247 -581,247 -466,0 -735,-297 -269,-296 -269,-809 V 0 H 581 v 3500 h 578 v -544 q 207,316 486,472 280,156 646,156 603,0 912,-373 310,-373 310,-1098 z"
               transform="scale(0.015625)" />
            <path
               id="DejaVuSans-64"
               d="m 2906,2969 v 1894 h 575 V 0 H 2906 V 525 Q 2725,213 2448,61 2172,-91 1784,-91 1150,-91 751,415 353,922 353,1747 q 0,825 398,1331 399,506 1033,506 388,0 664,-152 277,-151 458,-463 z M 947,1747 q 0,-634 261,-995 261,-361 717,-361 456,0 718,361 263,361 263,995 0,634 -263,995 -262,361 -718,361 -456,0 -717,-361 -261,-361 -261,-995 z"
               transform="scale(0.015625)" />
            <path
               id="DejaVuSans-29"
               d="m 513,4856 h 500 q 468,-737 701,-1444 233,-706 233,-1403 0,-700 -233,-1409 -233,-709 -701,-1444 H 513 q 415,716 620,1424 205,708 205,1429 0,722 -205,1425 -205,704 -620,1422 z"
               transform="scale(0.015625)" />
          </defs>
          <use
             xlink:href="#DejaVuSans-54"
             id="use13" />
          <use
             xlink:href="#DejaVuSans-69"
             x="57.958984"
             id="use14" />
          <use
             xlink:href="#DejaVuSans-6d"
             x="85.742188"
             id="use15" />
          <use
             xlink:href="#DejaVuSans-65"
             x="183.1543"
             id="use16" />
          <use
             xlink:href="#DejaVuSans-20"
             x="244.67773"
             id="use17" />
          <use
             xlink:href="#DejaVuSans-28"
             x="276.46484"
             id="use18" />
          <use
             xlink:href="#DejaVuSans-73"
             x="315.47852"
             id="use19" />
          <use
             xlink:href="#DejaVuSans-65"
             x="367.57812"
             id="use20" />
          <use
             xlink:href="#DejaVuSans-63"
             x="429.10156"
             id="use21" />
          <use
             xlink:href="#DejaVuSans-6f"
             x="484.08203"
             id="use22" />
          <use
             xlink:href="#DejaVuSans-6e"
             x="545.26367"
             id="use23" />
          <use
             xlink:href="#DejaVuSans-64"
             x="608.64258"
             id="use24" />
          <use
             xlink:href="#DejaVuSans-73"
             x="672.11914"
             id="use25" />
          <use
             xlink:href="#DejaVuSans-29"
             x="724.21875"
             id="use26" />
        </g>
      </g>
    </g>
    <g
       id="matplotlib.axis_2">
      <g
         id="ytick_1">
        <g
           id="line2d_11">
          <path
             d="M 50.6,303.6176 H 349.2"
             clip-path="url(#p7b52234217)"
             style="fill:none;stroke:#b0b0b0;stroke-width:0.8;stroke-linecap:square"
             id="path26" />
        </g>
        <g
           id="line2d_12">
          <defs
             id="defs26">
            <path
               id="m352dbec202"
               d="M 0,0 H -3.5"
               style="stroke:#000000;stroke-width:0.8" />
          </defs>
          <g
             id="g27">
            <use
               xlink:href="#m352dbec202"
               x="50.599998"
               y="303.61761"
               style="stroke:#000000;stroke-width:0.8"
               id="use27" />
          </g>
        </g>
        <g
           id="text_7">
          <!-- 0.0 -->
          <g
             transform="matrix(0.1,0,0,-0.1,27.696875,307.41682)"
             id="g30">
            <defs
               id="defs27">
              <path
                 id="DejaVuSans-2e"
                 d="m 684,794 h 660 V 0 H 684 Z"
                 transform="scale(0.015625)" />
            </defs>
            <use
               xlink:href="#DejaVuSans-30"
               id="use28" />
            <use
               xlink:href="#DejaVuSans-2e"
               x="63.623047"
               id="use29" />
            <use
               xlink:href="#DejaVuSans-30"
               x="95.410156"
               id="use30" />
          </g>
        </g>
      </g>
      <g
         id="ytick_2">
        <g
           id="line2d_13">
          <path
             d="M 50.6,257.4928 H 349.2"
             clip-path="url(#p7b52234217)"
             style="fill:none;stroke:#b0b0b0;stroke-width:0.8;stroke-linecap:square"
             id="path30" />
        </g>
        <g
           id="line2d_14">
          <g
             id="g31">
            <use
               xlink:href="#m352dbec202"
               x="50.599998"
               y="257.4928"
               style="stroke:#000000;stroke-width:0.8"
               id="use31" />
          </g>
        </g>
        <g
           id="text_8">
          <!-- 0.2 -->
          <g
             transform="matrix(0.1,0,0,-0.1,27.696875,261.29202)"
             id="g34">
            <use
               xlink:href="#DejaVuSans-30"
               id="use32" />
            <use
               xlink:href="#DejaVuSans-2e"
               x="63.623047"
               id="use33" />
            <use
               xlink:href="#DejaVuSans-32"
               x="95.410156"
               id="use34" />
          </g>
        </g>
      </g>
      <g
         id="ytick_3">
        <g
           id="line2d_15">
          <path
             d="M 50.6,211.368 H 349.2"
             clip-path="url(#p7b52234217)"
             style="fill:none;stroke:#b0b0b0;stroke-width:0.8;stroke-linecap:square"
             id="path34" />
        </g>
        <g
           id="line2d_16">
          <g
             id="g35">
            <use
               xlink:href="#m352dbec202"
               x="50.599998"
               y="211.368"
               style="stroke:#000000;stroke-width:0.8"
               id="use35" />
          </g>
        </g>
        <g
           id="text_9">
          <!-- 0.4 -->
          <g
             transform="matrix(0.1,0,0,-0.1,27.696875,215.16722)"
             id="g38">
            <use
               xlink:href="#DejaVuSans-30"
               id="use36" />
            <use
               xlink:href="#DejaVuSans-2e"
               x="63.623047"
               id="use37" />
            <use
               xlink:href="#DejaVuSans-34"
               x="95.410156"
               id="use38" />
          </g>
        </g>
      </g>
      <g
         id="ytick_4">
        <g
           id="line2d_17">
          <path
             d="M 50.6,165.2432 H 349.2"
             clip-path="url(#p7b52234217)"
             style="fill:none;stroke:#b0b0b0;stroke-width:0.8;stroke-linecap:square"
             id="path38" />
        </g>
        <g
           id="line2d_18">
          <g
             id="g39">
            <use
               xlink:href="#m352dbec202"
               x="50.599998"
               y="165.24319"
               style="stroke:#000000;stroke-width:0.8"
               id="use39" />
          </g>
        </g>
        <g
           id="text_10">
          <!-- 0.6 -->
          <g
             transform="matrix(0.1,0,0,-0.1,27.696875,169.04242)"
             id="g42">
            <use
               xlink:href="#DejaVuSans-30"
               id="use40" />
            <use
               xlink:href="#DejaVuSans-2e"
               x="63.623047"
               id="use41" />
            <use
               xlink:href="#DejaVuSans-36"
               x="95.410156"
               id="use42" />
          </g>
        </g>
      </g>
      <g
         id="ytick_5">
        <g
           id="line2d_19">
          <path
             d="M 50.6,119.1184 H 349.2"
             clip-path="url(#p7b52234217)"
             style="fill:none;stroke:#b0b0b0;stroke-width:0.8;stroke-linecap:square"
             id="path42" />
        </g>
        <g
           id="line2d_20">
          <g
             id="g43">
            <use
               xlink:href="#m352dbec202"
               x="50.599998"
               y="119.1184"
               style="stroke:#000000;stroke-width:0.8"
               id="use43" />
          </g>
        </g>
        <g
           id="text_11">
          <!-- 0.8 -->
          <g
             transform="matrix(0.1,0,0,-0.1,27.696875,122.91762)"
             id="g46">
            <use
               xlink:href="#DejaVuSans-30"
               id="use44" />
            <use
               xlink:href="#DejaVuSans-2e"
               x="63.623047"
               id="use45" />
            <use
               xlink:href="#DejaVuSans-38"
               x="95.410156"
               id="use46" />
          </g>
        </g>
      </g>
      <g
         id="ytick_6">
        <g
           id="line2d_21">
          <path
             d="M 50.6,72.9936 H 349.2"
             clip-path="url(#p7b52234217)"
             style="fill:none;stroke:#b0b0b0;stroke-width:0.8;stroke-linecap:square"
             id="path46" />
        </g>
        <g
           id="line2d_22">
          <g
             id="g47">
            <use
               xlink:href="#m352dbec202"
               x="50.599998"
               y="72.993599"
               style="stroke:#000000;stroke-width:0.8"
               id="use47" />
          </g>
        </g>
        <g
           id="text_12">
          <!-- 1.0 -->
          <g
             transform="matrix(0.1,0,0,-0.1,27.696875,76.792819)"
             id="g50">
            <defs
               id="defs47">
              <path
                 id="DejaVuSans-31"
                 d="M 794,531 H 1825 V 4091 L 703,3866 v 575 l 1116,225 h 631 V 531 H 3481 V 0 H 794 Z"
                 transform="scale(0.015625)" />
            </defs>
            <use
               xlink:href="#DejaVuSans-31"
               id="use48" />
            <use
               xlink:href="#DejaVuSans-2e"
               x="63.623047"
               id="use49" />
            <use
               xlink:href="#DejaVuSans-30"
               x="95.410156"
               id="use50" />
          </g>
        </g>
      </g>
      <g
         id="text_13">
        <!-- Value -->
        <g
           transform="matrix(0,-0.12,-0.12,0,21.20125,187.4975)"
           id="g55">
          <defs
             id="defs50">
            <path
               id="DejaVuSans-56"
               d="M 1831,0 50,4666 H 709 L 2188,738 3669,4666 h 656 L 2547,0 Z"
               transform="scale(0.015625)" />
            <path
               id="DejaVuSans-61"
               d="m 2194,1759 q -697,0 -966,-159 -269,-159 -269,-544 0,-306 202,-486 202,-179 548,-179 479,0 768,339 289,339 289,901 v 128 z m 1147,238 V 0 H 2766 V 531 Q 2569,213 2275,61 1981,-91 1556,-91 q -537,0 -855,302 -317,302 -317,808 0,590 395,890 396,300 1180,300 h 807 v 57 q 0,397 -261,614 -261,217 -733,217 -300,0 -585,-72 -284,-72 -546,-216 v 532 q 315,122 612,182 297,61 578,61 760,0 1135,-394 375,-393 375,-1193 z"
               transform="scale(0.015625)" />
            <path
               id="DejaVuSans-6c"
               d="m 603,4863 h 575 V 0 H 603 Z"
               transform="scale(0.015625)" />
            <path
               id="DejaVuSans-75"
               d="m 544,1381 v 2119 h 575 V 1403 q 0,-497 193,-746 194,-248 582,-248 465,0 735,297 271,297 271,810 v 1984 h 575 V 0 H 2900 V 538 Q 2691,219 2414,64 2138,-91 1772,-91 1169,-91 856,284 544,659 544,1381 Z m 1447,2203 z"
               transform="scale(0.015625)" />
          </defs>
          <use
             xlink:href="#DejaVuSans-56"
             id="use51" />
          <use
             xlink:href="#DejaVuSans-61"
             x="60.658203"
             id="use52" />
          <use
             xlink:href="#DejaVuSans-6c"
             x="121.9375"
             id="use53" />
          <use
             xlink:href="#DejaVuSans-75"
             x="149.7207"
             id="use54" />
          <use
             xlink:href="#DejaVuSans-65"
             x="213.09961"
             id="use55" />
        </g>
      </g>
    </g>
    <g
       id="line2d_23">
      <path
         d="m 56.537732,303.6176 h 3.694021 l 1.84701,-32.94629 1.84701,4.11829 1.847011,-22.42178 1.84701,-17.93742 1.84701,-14.67607 1.84701,-12.23006 7.388042,-76.87467 h 5.541031 l 1.84701,-19.21867 1.84701,19.21867 h 7.388041 l 1.847011,19.21867 h 3.694021 L 104.56,111.43093 h 3.69402 l 1.84701,-19.218663 h 3.69402 l 1.84701,19.218663 h 1.84701 l 1.84701,-19.218663 h 5.54103 l 1.84701,19.218663 h 9.23505 l 1.84702,-19.218663 h 9.23505 L 148.88825,72.9936 h 3.69402 l 5.54103,57.656 h 7.38804 l 9.23505,96.09333 h 5.54103 l 7.38804,76.87467 3.69402,-38.43733 h 9.23506 l 3.69402,-38.43734 h 1.84701 l 3.69402,-38.43733 h 3.69402 l 3.69402,-38.43733 h 1.84701 l 3.69402,-38.43734 h 3.69402 l 1.84701,-19.218663 h 7.38804 l 1.84701,19.218663 h 1.84701 l 1.84701,-19.218663 h 16.6231 l 1.84701,-19.218667 3.69402,38.43733 h 18.4701 l 3.69402,-38.43733 1.84701,19.218667 h 3.69402 l 1.84701,19.218663 h 1.84701 l 12.92907,134.53067 h 1.84701 l 3.69402,38.43733 h 1.84701 l 1.84702,19.21867 h 3.69402 v 0"
         clip-path="url(#p7b52234217)"
         style="fill:none;stroke:#ff0000;stroke-width:1.5;stroke-linecap:square"
         id="path55" />
    </g>
    <g
       id="patch_3">
      <path
         d="M 50.6,315.16 V 26.88"
         style="fill:none;stroke:#000000;stroke-width:0.8;stroke-linecap:square;stroke-linejoin:miter"
         id="path56" />
    </g>
    <g
       id="patch_4">
      <path
         d="M 349.2,315.16 V 26.88"
         style="fill:none;stroke:#000000;stroke-width:0.8;stroke-linecap:square;stroke-linejoin:miter"
         id="path57" />
    </g>
    <g
       id="patch_5">
      <path
         d="M 50.6,315.16 H 349.2"
         style="fill:none;stroke:#000000;stroke-width:0.8;stroke-linecap:square;stroke-linejoin:miter"
         id="path58" />
    </g>
    <g
       id="patch_6">
      <path
         d="M 50.6,26.88 H 349.2"
         style="fill:none;stroke:#000000;stroke-width:0.8;stroke-linecap:square;stroke-linejoin:miter"
         id="path59" />
    </g>
    <g
       id="text_14">
      <!-- Moving Average of Detection rate over 0.5 s -->
      <g
         transform="matrix(0.12,0,0,-0.12,67.0675,20.88)"
         id="g101">
        <defs
           id="defs59">
          <path
             id="DejaVuSans-4d"
             d="m 628,4666 h 941 L 2759,1491 3956,4666 h 941 V 0 H 4281 V 4097 L 3078,897 H 2444 L 1241,4097 V 0 H 628 Z"
             transform="scale(0.015625)" />
          <path
             id="DejaVuSans-76"
             d="M 191,3500 H 800 L 1894,563 2988,3500 h 609 L 2284,0 h -781 z"
             transform="scale(0.015625)" />
          <path
             id="DejaVuSans-67"
             d="m 2906,1791 q 0,625 -258,968 -257,344 -723,344 -462,0 -720,-344 -258,-343 -258,-968 0,-622 258,-966 258,-344 720,-344 466,0 723,344 258,344 258,966 z M 3481,434 q 0,-893 -397,-1329 -396,-436 -1215,-436 -303,0 -572,45 -269,45 -522,139 v 559 q 253,-137 500,-202 247,-66 503,-66 566,0 847,295 281,295 281,892 V 616 Q 2728,306 2450,153 2172,0 1784,0 1141,0 747,490 353,981 353,1791 q 0,812 394,1302 394,491 1037,491 388,0 666,-153 278,-153 456,-462 v 531 h 575 z"
             transform="scale(0.015625)" />
          <path
             id="DejaVuSans-41"
             d="M 2188,4044 1331,1722 h 1716 z m -357,622 h 716 L 4325,0 H 3669 L 3244,1197 H 1141 L 716,0 H 50 Z"
             transform="scale(0.015625)" />
          <path
             id="DejaVuSans-72"
             d="m 2631,2963 q -97,56 -211,82 -114,27 -251,27 -488,0 -749,-317 -261,-317 -261,-911 V 0 H 581 v 3500 h 578 v -544 q 182,319 472,473 291,155 707,155 59,0 131,-8 72,-7 159,-23 z"
             transform="scale(0.015625)" />
          <path
             id="DejaVuSans-66"
             d="m 2375,4863 v -479 h -550 q -309,0 -430,-125 -120,-125 -120,-450 v -309 h 947 V 3053 H 1275 V 0 H 697 V 3053 H 147 v 447 h 550 v 244 q 0,584 272,851 272,268 862,268 z"
             transform="scale(0.015625)" />
          <path
             id="DejaVuSans-44"
             d="M 1259,4147 V 519 h 763 q 966,0 1414,437 448,438 448,1382 0,937 -448,1373 -448,436 -1414,436 z m -631,519 h 1297 q 1356,0 1990,-564 635,-564 635,-1764 Q 4550,1131 3912,565 3275,0 1925,0 H 628 Z"
             transform="scale(0.015625)" />
          <path
             id="DejaVuSans-74"
             d="M 1172,4494 V 3500 H 2356 V 3053 H 1172 V 1153 q 0,-428 117,-550 117,-122 477,-122 h 590 V 0 H 1766 Q 1100,0 847,248 594,497 594,1153 V 3053 H 172 v 447 h 422 v 994 z"
             transform="scale(0.015625)" />
          <path
             id="DejaVuSans-35"
             d="M 691,4666 H 3169 V 4134 H 1269 V 2991 q 137,47 274,70 138,23 276,23 781,0 1237,-428 457,-428 457,-1159 Q 3513,744 3044,326 2575,-91 1722,-91 1428,-91 1123,-41 819,9 494,109 v 635 q 281,-153 581,-228 300,-75 634,-75 541,0 856,284 316,284 316,772 0,487 -316,771 -315,285 -856,285 -253,0 -505,-56 -251,-56 -513,-175 z"
             transform="scale(0.015625)" />
        </defs>
        <use
           xlink:href="#DejaVuSans-4d"
           id="use59" />
        <use
           xlink:href="#DejaVuSans-6f"
           x="86.279297"
           id="use60" />
        <use
           xlink:href="#DejaVuSans-76"
           x="147.46094"
           id="use61" />
        <use
           xlink:href="#DejaVuSans-69"
           x="206.64062"
           id="use62" />
        <use
           xlink:href="#DejaVuSans-6e"
           x="234.42383"
           id="use63" />
        <use
           xlink:href="#DejaVuSans-67"
           x="297.80273"
           id="use64" />
        <use
           xlink:href="#DejaVuSans-20"
           x="361.2793"
           id="use65" />
        <use
           xlink:href="#DejaVuSans-41"
           x="393.06641"
           id="use66" />
        <use
           xlink:href="#DejaVuSans-76"
           x="455.59961"
           id="use67" />
        <use
           xlink:href="#DejaVuSans-65"
           x="514.7793"
           id="use68" />
        <use
           xlink:href="#DejaVuSans-72"
           x="576.30273"
           id="use69" />
        <use
           xlink:href="#DejaVuSans-61"
           x="617.41602"
           id="use70" />
        <use
           xlink:href="#DejaVuSans-67"
           x="678.69531"
           id="use71" />
        <use
           xlink:href="#DejaVuSans-65"
           x="742.17188"
           id="use72" />
        <use
           xlink:href="#DejaVuSans-20"
           x="803.69531"
           id="use73" />
        <use
           xlink:href="#DejaVuSans-6f"
           x="835.48242"
           id="use74" />
        <use
           xlink:href="#DejaVuSans-66"
           x="896.66406"
           id="use75" />
        <use
           xlink:href="#DejaVuSans-20"
           x="931.86914"
           id="use76" />
        <use
           xlink:href="#DejaVuSans-44"
           x="963.65625"
           id="use77" />
        <use
           xlink:href="#DejaVuSans-65"
           x="1040.6582"
           id="use78" />
        <use
           xlink:href="#DejaVuSans-74"
           x="1102.1816"
           id="use79" />
        <use
           xlink:href="#DejaVuSans-65"
           x="1141.3906"
           id="use80" />
        <use
           xlink:href="#DejaVuSans-63"
           x="1202.9141"
           id="use81" />
        <use
           xlink:href="#DejaVuSans-74"
           x="1257.8945"
           id="use82" />
        <use
           xlink:href="#DejaVuSans-69"
           x="1297.1035"
           id="use83" />
        <use
           xlink:href="#DejaVuSans-6f"
           x="1324.8867"
           id="use84" />
        <use
           xlink:href="#DejaVuSans-6e"
           x="1386.0684"
           id="use85" />
        <use
           xlink:href="#DejaVuSans-20"
           x="1449.4473"
           id="use86" />
        <use
           xlink:href="#DejaVuSans-72"
           x="1481.2344"
           id="use87" />
        <use
           xlink:href="#DejaVuSans-61"
           x="1522.3477"
           id="use88" />
        <use
           xlink:href="#DejaVuSans-74"
           x="1583.627"
           id="use89" />
        <use
           xlink:href="#DejaVuSans-65"
           x="1622.8359"
           id="use90" />
        <use
           xlink:href="#DejaVuSans-20"
           x="1684.3594"
           id="use91" />
        <use
           xlink:href="#DejaVuSans-6f"
           x="1716.1465"
           id="use92" />
        <use
           xlink:href="#DejaVuSans-76"
           x="1777.3281"
           id="use93" />
        <use
           xlink:href="#DejaVuSans-65"
           x="1836.5078"
           id="use94" />
        <use
           xlink:href="#DejaVuSans-72"
           x="1898.0312"
           id="use95" />
        <use
           xlink:href="#DejaVuSans-20"
           x="1939.1445"
           id="use96" />
        <use
           xlink:href="#DejaVuSans-30"
           x="1970.9316"
           id="use97" />
        <use
           xlink:href="#DejaVuSans-2e"
           x="2034.5547"
           id="use98" />
        <use
           xlink:href="#DejaVuSans-35"
           x="2066.3418"
           id="use99" />
        <use
           xlink:href="#DejaVuSans-20"
           x="2129.9648"
           id="use100" />
        <use
           xlink:href="#DejaVuSans-73"
           x="2161.752"
           id="use101" />
      </g>
    </g>
  </g>
  <defs
     id="defs115">
    <clipPath
       id="p7b52234217">
      <rect
         x="50.6"
         y="26.88"
         width="298.6"
         height="288.28"
         id="rect115" />
    </clipPath>
  </defs>
</svg>
