<?xml version="1.0" encoding="utf-8" standalone="no"?>
<!DOCTYPE svg PUBLIC "-//W3C//DTD SVG 1.1//EN"
  "http://www.w3.org/Graphics/SVG/1.1/DTD/svg11.dtd">
<svg xmlns:xlink="http://www.w3.org/1999/xlink" width="432pt" height="288pt" viewBox="0 0 432 288" xmlns="http://www.w3.org/2000/svg" version="1.1">
 <metadata>
  <rdf:RDF xmlns:dc="http://purl.org/dc/elements/1.1/" xmlns:cc="http://creativecommons.org/ns#" xmlns:rdf="http://www.w3.org/1999/02/22-rdf-syntax-ns#">
   <cc:Work>
    <dc:type rdf:resource="http://purl.org/dc/dcmitype/StillImage"/>
    <dc:date>2024-02-11T19:01:04.131101</dc:date>
    <dc:format>image/svg+xml</dc:format>
    <dc:creator>
     <cc:Agent>
      <dc:title>Matplotlib v3.7.1, https://matplotlib.org/</dc:title>
     </cc:Agent>
    </dc:creator>
   </cc:Work>
  </rdf:RDF>
 </metadata>
 <defs>
  <style type="text/css">*{stroke-linejoin: round; stroke-linecap: butt}</style>
 </defs>
 <g id="figure_1">
  <g id="patch_1">
   <path d="M 0 288 
L 432 288 
L 432 0 
L 0 0 
z
" style="fill: #ffffff"/>
  </g>
  <g id="axes_1">
   <g id="patch_2">
    <path d="M 54 256.32 
L 388.8 256.32 
L 388.8 34.56 
L 54 34.56 
z
" style="fill: #ffffff"/>
   </g>
   <g id="matplotlib.axis_1">
    <g id="xtick_1">
     <g id="line2d_1">
      <path d="M 54 256.32 
L 54 34.56 
" clip-path="url(#peb57f92545)" style="fill: none; stroke-dasharray: 1.85,0.8; stroke-dashoffset: 0; stroke: #b0b0b0; stroke-width: 0.5"/>
     </g>
     <g id="line2d_2">
      <defs>
       <path id="m019cfbee8b" d="M 0 0 
L 0 3.5 
" style="stroke: #000000; stroke-width: 0.8"/>
      </defs>
      <g>
       <use xlink:href="#m019cfbee8b" x="54" y="256.32" style="stroke: #000000; stroke-width: 0.8"/>
      </g>
     </g>
     <g id="text_1">
      <!-- −0.20 -->
      <g transform="translate(38.677344 270.918437) scale(0.1 -0.1)">
       <defs>
        <path id="DejaVuSans-2212" d="M 678 2272 
L 4684 2272 
L 4684 1741 
L 678 1741 
L 678 2272 
z
" transform="scale(0.015625)"/>
        <path id="DejaVuSans-30" d="M 2034 4250 
Q 1547 4250 1301 3770 
Q 1056 3291 1056 2328 
Q 1056 1369 1301 889 
Q 1547 409 2034 409 
Q 2525 409 2770 889 
Q 3016 1369 3016 2328 
Q 3016 3291 2770 3770 
Q 2525 4250 2034 4250 
z
M 2034 4750 
Q 2819 4750 3233 4129 
Q 3647 3509 3647 2328 
Q 3647 1150 3233 529 
Q 2819 -91 2034 -91 
Q 1250 -91 836 529 
Q 422 1150 422 2328 
Q 422 3509 836 4129 
Q 1250 4750 2034 4750 
z
" transform="scale(0.015625)"/>
        <path id="DejaVuSans-2e" d="M 684 794 
L 1344 794 
L 1344 0 
L 684 0 
L 684 794 
z
" transform="scale(0.015625)"/>
        <path id="DejaVuSans-32" d="M 1228 531 
L 3431 531 
L 3431 0 
L 469 0 
L 469 531 
Q 828 903 1448 1529 
Q 2069 2156 2228 2338 
Q 2531 2678 2651 2914 
Q 2772 3150 2772 3378 
Q 2772 3750 2511 3984 
Q 2250 4219 1831 4219 
Q 1534 4219 1204 4116 
Q 875 4013 500 3803 
L 500 4441 
Q 881 4594 1212 4672 
Q 1544 4750 1819 4750 
Q 2544 4750 2975 4387 
Q 3406 4025 3406 3419 
Q 3406 3131 3298 2873 
Q 3191 2616 2906 2266 
Q 2828 2175 2409 1742 
Q 1991 1309 1228 531 
z
" transform="scale(0.015625)"/>
       </defs>
       <use xlink:href="#DejaVuSans-2212"/>
       <use xlink:href="#DejaVuSans-30" x="83.789062"/>
       <use xlink:href="#DejaVuSans-2e" x="147.412109"/>
       <use xlink:href="#DejaVuSans-32" x="179.199219"/>
       <use xlink:href="#DejaVuSans-30" x="242.822266"/>
      </g>
     </g>
    </g>
    <g id="xtick_2">
     <g id="line2d_3">
      <path d="M 95.85 256.32 
L 95.85 34.56 
" clip-path="url(#peb57f92545)" style="fill: none; stroke-dasharray: 1.85,0.8; stroke-dashoffset: 0; stroke: #b0b0b0; stroke-width: 0.5"/>
     </g>
     <g id="line2d_4">
      <g>
       <use xlink:href="#m019cfbee8b" x="95.85" y="256.32" style="stroke: #000000; stroke-width: 0.8"/>
      </g>
     </g>
     <g id="text_2">
      <!-- −0.15 -->
      <g transform="translate(80.527344 270.918437) scale(0.1 -0.1)">
       <defs>
        <path id="DejaVuSans-31" d="M 794 531 
L 1825 531 
L 1825 4091 
L 703 3866 
L 703 4441 
L 1819 4666 
L 2450 4666 
L 2450 531 
L 3481 531 
L 3481 0 
L 794 0 
L 794 531 
z
" transform="scale(0.015625)"/>
        <path id="DejaVuSans-35" d="M 691 4666 
L 3169 4666 
L 3169 4134 
L 1269 4134 
L 1269 2991 
Q 1406 3038 1543 3061 
Q 1681 3084 1819 3084 
Q 2600 3084 3056 2656 
Q 3513 2228 3513 1497 
Q 3513 744 3044 326 
Q 2575 -91 1722 -91 
Q 1428 -91 1123 -41 
Q 819 9 494 109 
L 494 744 
Q 775 591 1075 516 
Q 1375 441 1709 441 
Q 2250 441 2565 725 
Q 2881 1009 2881 1497 
Q 2881 1984 2565 2268 
Q 2250 2553 1709 2553 
Q 1456 2553 1204 2497 
Q 953 2441 691 2322 
L 691 4666 
z
" transform="scale(0.015625)"/>
       </defs>
       <use xlink:href="#DejaVuSans-2212"/>
       <use xlink:href="#DejaVuSans-30" x="83.789062"/>
       <use xlink:href="#DejaVuSans-2e" x="147.412109"/>
       <use xlink:href="#DejaVuSans-31" x="179.199219"/>
       <use xlink:href="#DejaVuSans-35" x="242.822266"/>
      </g>
     </g>
    </g>
    <g id="xtick_3">
     <g id="line2d_5">
      <path d="M 137.7 256.32 
L 137.7 34.56 
" clip-path="url(#peb57f92545)" style="fill: none; stroke-dasharray: 1.85,0.8; stroke-dashoffset: 0; stroke: #b0b0b0; stroke-width: 0.5"/>
     </g>
     <g id="line2d_6">
      <g>
       <use xlink:href="#m019cfbee8b" x="137.7" y="256.32" style="stroke: #000000; stroke-width: 0.8"/>
      </g>
     </g>
     <g id="text_3">
      <!-- −0.10 -->
      <g transform="translate(122.377344 270.918437) scale(0.1 -0.1)">
       <use xlink:href="#DejaVuSans-2212"/>
       <use xlink:href="#DejaVuSans-30" x="83.789062"/>
       <use xlink:href="#DejaVuSans-2e" x="147.412109"/>
       <use xlink:href="#DejaVuSans-31" x="179.199219"/>
       <use xlink:href="#DejaVuSans-30" x="242.822266"/>
      </g>
     </g>
    </g>
    <g id="xtick_4">
     <g id="line2d_7">
      <path d="M 179.55 256.32 
L 179.55 34.56 
" clip-path="url(#peb57f92545)" style="fill: none; stroke-dasharray: 1.85,0.8; stroke-dashoffset: 0; stroke: #b0b0b0; stroke-width: 0.5"/>
     </g>
     <g id="line2d_8">
      <g>
       <use xlink:href="#m019cfbee8b" x="179.55" y="256.32" style="stroke: #000000; stroke-width: 0.8"/>
      </g>
     </g>
     <g id="text_4">
      <!-- −0.05 -->
      <g transform="translate(164.227344 270.918437) scale(0.1 -0.1)">
       <use xlink:href="#DejaVuSans-2212"/>
       <use xlink:href="#DejaVuSans-30" x="83.789062"/>
       <use xlink:href="#DejaVuSans-2e" x="147.412109"/>
       <use xlink:href="#DejaVuSans-30" x="179.199219"/>
       <use xlink:href="#DejaVuSans-35" x="242.822266"/>
      </g>
     </g>
    </g>
    <g id="xtick_5">
     <g id="line2d_9">
      <path d="M 221.4 256.32 
L 221.4 34.56 
" clip-path="url(#peb57f92545)" style="fill: none; stroke-dasharray: 1.85,0.8; stroke-dashoffset: 0; stroke: #b0b0b0; stroke-width: 0.5"/>
     </g>
     <g id="line2d_10">
      <g>
       <use xlink:href="#m019cfbee8b" x="221.4" y="256.32" style="stroke: #000000; stroke-width: 0.8"/>
      </g>
     </g>
     <g id="text_5">
      <!-- 0.00 -->
      <g transform="translate(210.267188 270.918437) scale(0.1 -0.1)">
       <use xlink:href="#DejaVuSans-30"/>
       <use xlink:href="#DejaVuSans-2e" x="63.623047"/>
       <use xlink:href="#DejaVuSans-30" x="95.410156"/>
       <use xlink:href="#DejaVuSans-30" x="159.033203"/>
      </g>
     </g>
    </g>
    <g id="xtick_6">
     <g id="line2d_11">
      <path d="M 263.25 256.32 
L 263.25 34.56 
" clip-path="url(#peb57f92545)" style="fill: none; stroke-dasharray: 1.85,0.8; stroke-dashoffset: 0; stroke: #b0b0b0; stroke-width: 0.5"/>
     </g>
     <g id="line2d_12">
      <g>
       <use xlink:href="#m019cfbee8b" x="263.25" y="256.32" style="stroke: #000000; stroke-width: 0.8"/>
      </g>
     </g>
     <g id="text_6">
      <!-- 0.05 -->
      <g transform="translate(252.117188 270.918437) scale(0.1 -0.1)">
       <use xlink:href="#DejaVuSans-30"/>
       <use xlink:href="#DejaVuSans-2e" x="63.623047"/>
       <use xlink:href="#DejaVuSans-30" x="95.410156"/>
       <use xlink:href="#DejaVuSans-35" x="159.033203"/>
      </g>
     </g>
    </g>
    <g id="xtick_7">
     <g id="line2d_13">
      <path d="M 305.1 256.32 
L 305.1 34.56 
" clip-path="url(#peb57f92545)" style="fill: none; stroke-dasharray: 1.85,0.8; stroke-dashoffset: 0; stroke: #b0b0b0; stroke-width: 0.5"/>
     </g>
     <g id="line2d_14">
      <g>
       <use xlink:href="#m019cfbee8b" x="305.1" y="256.32" style="stroke: #000000; stroke-width: 0.8"/>
      </g>
     </g>
     <g id="text_7">
      <!-- 0.10 -->
      <g transform="translate(293.967188 270.918437) scale(0.1 -0.1)">
       <use xlink:href="#DejaVuSans-30"/>
       <use xlink:href="#DejaVuSans-2e" x="63.623047"/>
       <use xlink:href="#DejaVuSans-31" x="95.410156"/>
       <use xlink:href="#DejaVuSans-30" x="159.033203"/>
      </g>
     </g>
    </g>
    <g id="xtick_8">
     <g id="line2d_15">
      <path d="M 346.95 256.32 
L 346.95 34.56 
" clip-path="url(#peb57f92545)" style="fill: none; stroke-dasharray: 1.85,0.8; stroke-dashoffset: 0; stroke: #b0b0b0; stroke-width: 0.5"/>
     </g>
     <g id="line2d_16">
      <g>
       <use xlink:href="#m019cfbee8b" x="346.95" y="256.32" style="stroke: #000000; stroke-width: 0.8"/>
      </g>
     </g>
     <g id="text_8">
      <!-- 0.15 -->
      <g transform="translate(335.817188 270.918437) scale(0.1 -0.1)">
       <use xlink:href="#DejaVuSans-30"/>
       <use xlink:href="#DejaVuSans-2e" x="63.623047"/>
       <use xlink:href="#DejaVuSans-31" x="95.410156"/>
       <use xlink:href="#DejaVuSans-35" x="159.033203"/>
      </g>
     </g>
    </g>
    <g id="xtick_9">
     <g id="line2d_17">
      <path d="M 388.8 256.32 
L 388.8 34.56 
" clip-path="url(#peb57f92545)" style="fill: none; stroke-dasharray: 1.85,0.8; stroke-dashoffset: 0; stroke: #b0b0b0; stroke-width: 0.5"/>
     </g>
     <g id="line2d_18">
      <g>
       <use xlink:href="#m019cfbee8b" x="388.8" y="256.32" style="stroke: #000000; stroke-width: 0.8"/>
      </g>
     </g>
     <g id="text_9">
      <!-- 0.20 -->
      <g transform="translate(377.667188 270.918437) scale(0.1 -0.1)">
       <use xlink:href="#DejaVuSans-30"/>
       <use xlink:href="#DejaVuSans-2e" x="63.623047"/>
       <use xlink:href="#DejaVuSans-32" x="95.410156"/>
       <use xlink:href="#DejaVuSans-30" x="159.033203"/>
      </g>
     </g>
    </g>
    <g id="text_10">
     <!-- Normalized sampling rate -->
     <g transform="translate(156.875781 284.596563) scale(0.1 -0.1)">
      <defs>
       <path id="DejaVuSans-4e" d="M 628 4666 
L 1478 4666 
L 3547 763 
L 3547 4666 
L 4159 4666 
L 4159 0 
L 3309 0 
L 1241 3903 
L 1241 0 
L 628 0 
L 628 4666 
z
" transform="scale(0.015625)"/>
       <path id="DejaVuSans-6f" d="M 1959 3097 
Q 1497 3097 1228 2736 
Q 959 2375 959 1747 
Q 959 1119 1226 758 
Q 1494 397 1959 397 
Q 2419 397 2687 759 
Q 2956 1122 2956 1747 
Q 2956 2369 2687 2733 
Q 2419 3097 1959 3097 
z
M 1959 3584 
Q 2709 3584 3137 3096 
Q 3566 2609 3566 1747 
Q 3566 888 3137 398 
Q 2709 -91 1959 -91 
Q 1206 -91 779 398 
Q 353 888 353 1747 
Q 353 2609 779 3096 
Q 1206 3584 1959 3584 
z
" transform="scale(0.015625)"/>
       <path id="DejaVuSans-72" d="M 2631 2963 
Q 2534 3019 2420 3045 
Q 2306 3072 2169 3072 
Q 1681 3072 1420 2755 
Q 1159 2438 1159 1844 
L 1159 0 
L 581 0 
L 581 3500 
L 1159 3500 
L 1159 2956 
Q 1341 3275 1631 3429 
Q 1922 3584 2338 3584 
Q 2397 3584 2469 3576 
Q 2541 3569 2628 3553 
L 2631 2963 
z
" transform="scale(0.015625)"/>
       <path id="DejaVuSans-6d" d="M 3328 2828 
Q 3544 3216 3844 3400 
Q 4144 3584 4550 3584 
Q 5097 3584 5394 3201 
Q 5691 2819 5691 2113 
L 5691 0 
L 5113 0 
L 5113 2094 
Q 5113 2597 4934 2840 
Q 4756 3084 4391 3084 
Q 3944 3084 3684 2787 
Q 3425 2491 3425 1978 
L 3425 0 
L 2847 0 
L 2847 2094 
Q 2847 2600 2669 2842 
Q 2491 3084 2119 3084 
Q 1678 3084 1418 2786 
Q 1159 2488 1159 1978 
L 1159 0 
L 581 0 
L 581 3500 
L 1159 3500 
L 1159 2956 
Q 1356 3278 1631 3431 
Q 1906 3584 2284 3584 
Q 2666 3584 2933 3390 
Q 3200 3197 3328 2828 
z
" transform="scale(0.015625)"/>
       <path id="DejaVuSans-61" d="M 2194 1759 
Q 1497 1759 1228 1600 
Q 959 1441 959 1056 
Q 959 750 1161 570 
Q 1363 391 1709 391 
Q 2188 391 2477 730 
Q 2766 1069 2766 1631 
L 2766 1759 
L 2194 1759 
z
M 3341 1997 
L 3341 0 
L 2766 0 
L 2766 531 
Q 2569 213 2275 61 
Q 1981 -91 1556 -91 
Q 1019 -91 701 211 
Q 384 513 384 1019 
Q 384 1609 779 1909 
Q 1175 2209 1959 2209 
L 2766 2209 
L 2766 2266 
Q 2766 2663 2505 2880 
Q 2244 3097 1772 3097 
Q 1472 3097 1187 3025 
Q 903 2953 641 2809 
L 641 3341 
Q 956 3463 1253 3523 
Q 1550 3584 1831 3584 
Q 2591 3584 2966 3190 
Q 3341 2797 3341 1997 
z
" transform="scale(0.015625)"/>
       <path id="DejaVuSans-6c" d="M 603 4863 
L 1178 4863 
L 1178 0 
L 603 0 
L 603 4863 
z
" transform="scale(0.015625)"/>
       <path id="DejaVuSans-69" d="M 603 3500 
L 1178 3500 
L 1178 0 
L 603 0 
L 603 3500 
z
M 603 4863 
L 1178 4863 
L 1178 4134 
L 603 4134 
L 603 4863 
z
" transform="scale(0.015625)"/>
       <path id="DejaVuSans-7a" d="M 353 3500 
L 3084 3500 
L 3084 2975 
L 922 459 
L 3084 459 
L 3084 0 
L 275 0 
L 275 525 
L 2438 3041 
L 353 3041 
L 353 3500 
z
" transform="scale(0.015625)"/>
       <path id="DejaVuSans-65" d="M 3597 1894 
L 3597 1613 
L 953 1613 
Q 991 1019 1311 708 
Q 1631 397 2203 397 
Q 2534 397 2845 478 
Q 3156 559 3463 722 
L 3463 178 
Q 3153 47 2828 -22 
Q 2503 -91 2169 -91 
Q 1331 -91 842 396 
Q 353 884 353 1716 
Q 353 2575 817 3079 
Q 1281 3584 2069 3584 
Q 2775 3584 3186 3129 
Q 3597 2675 3597 1894 
z
M 3022 2063 
Q 3016 2534 2758 2815 
Q 2500 3097 2075 3097 
Q 1594 3097 1305 2825 
Q 1016 2553 972 2059 
L 3022 2063 
z
" transform="scale(0.015625)"/>
       <path id="DejaVuSans-64" d="M 2906 2969 
L 2906 4863 
L 3481 4863 
L 3481 0 
L 2906 0 
L 2906 525 
Q 2725 213 2448 61 
Q 2172 -91 1784 -91 
Q 1150 -91 751 415 
Q 353 922 353 1747 
Q 353 2572 751 3078 
Q 1150 3584 1784 3584 
Q 2172 3584 2448 3432 
Q 2725 3281 2906 2969 
z
M 947 1747 
Q 947 1113 1208 752 
Q 1469 391 1925 391 
Q 2381 391 2643 752 
Q 2906 1113 2906 1747 
Q 2906 2381 2643 2742 
Q 2381 3103 1925 3103 
Q 1469 3103 1208 2742 
Q 947 2381 947 1747 
z
" transform="scale(0.015625)"/>
       <path id="DejaVuSans-20" transform="scale(0.015625)"/>
       <path id="DejaVuSans-73" d="M 2834 3397 
L 2834 2853 
Q 2591 2978 2328 3040 
Q 2066 3103 1784 3103 
Q 1356 3103 1142 2972 
Q 928 2841 928 2578 
Q 928 2378 1081 2264 
Q 1234 2150 1697 2047 
L 1894 2003 
Q 2506 1872 2764 1633 
Q 3022 1394 3022 966 
Q 3022 478 2636 193 
Q 2250 -91 1575 -91 
Q 1294 -91 989 -36 
Q 684 19 347 128 
L 347 722 
Q 666 556 975 473 
Q 1284 391 1588 391 
Q 1994 391 2212 530 
Q 2431 669 2431 922 
Q 2431 1156 2273 1281 
Q 2116 1406 1581 1522 
L 1381 1569 
Q 847 1681 609 1914 
Q 372 2147 372 2553 
Q 372 3047 722 3315 
Q 1072 3584 1716 3584 
Q 2034 3584 2315 3537 
Q 2597 3491 2834 3397 
z
" transform="scale(0.015625)"/>
       <path id="DejaVuSans-70" d="M 1159 525 
L 1159 -1331 
L 581 -1331 
L 581 3500 
L 1159 3500 
L 1159 2969 
Q 1341 3281 1617 3432 
Q 1894 3584 2278 3584 
Q 2916 3584 3314 3078 
Q 3713 2572 3713 1747 
Q 3713 922 3314 415 
Q 2916 -91 2278 -91 
Q 1894 -91 1617 61 
Q 1341 213 1159 525 
z
M 3116 1747 
Q 3116 2381 2855 2742 
Q 2594 3103 2138 3103 
Q 1681 3103 1420 2742 
Q 1159 2381 1159 1747 
Q 1159 1113 1420 752 
Q 1681 391 2138 391 
Q 2594 391 2855 752 
Q 3116 1113 3116 1747 
z
" transform="scale(0.015625)"/>
       <path id="DejaVuSans-6e" d="M 3513 2113 
L 3513 0 
L 2938 0 
L 2938 2094 
Q 2938 2591 2744 2837 
Q 2550 3084 2163 3084 
Q 1697 3084 1428 2787 
Q 1159 2491 1159 1978 
L 1159 0 
L 581 0 
L 581 3500 
L 1159 3500 
L 1159 2956 
Q 1366 3272 1645 3428 
Q 1925 3584 2291 3584 
Q 2894 3584 3203 3211 
Q 3513 2838 3513 2113 
z
" transform="scale(0.015625)"/>
       <path id="DejaVuSans-67" d="M 2906 1791 
Q 2906 2416 2648 2759 
Q 2391 3103 1925 3103 
Q 1463 3103 1205 2759 
Q 947 2416 947 1791 
Q 947 1169 1205 825 
Q 1463 481 1925 481 
Q 2391 481 2648 825 
Q 2906 1169 2906 1791 
z
M 3481 434 
Q 3481 -459 3084 -895 
Q 2688 -1331 1869 -1331 
Q 1566 -1331 1297 -1286 
Q 1028 -1241 775 -1147 
L 775 -588 
Q 1028 -725 1275 -790 
Q 1522 -856 1778 -856 
Q 2344 -856 2625 -561 
Q 2906 -266 2906 331 
L 2906 616 
Q 2728 306 2450 153 
Q 2172 0 1784 0 
Q 1141 0 747 490 
Q 353 981 353 1791 
Q 353 2603 747 3093 
Q 1141 3584 1784 3584 
Q 2172 3584 2450 3431 
Q 2728 3278 2906 2969 
L 2906 3500 
L 3481 3500 
L 3481 434 
z
" transform="scale(0.015625)"/>
       <path id="DejaVuSans-74" d="M 1172 4494 
L 1172 3500 
L 2356 3500 
L 2356 3053 
L 1172 3053 
L 1172 1153 
Q 1172 725 1289 603 
Q 1406 481 1766 481 
L 2356 481 
L 2356 0 
L 1766 0 
Q 1100 0 847 248 
Q 594 497 594 1153 
L 594 3053 
L 172 3053 
L 172 3500 
L 594 3500 
L 594 4494 
L 1172 4494 
z
" transform="scale(0.015625)"/>
      </defs>
      <use xlink:href="#DejaVuSans-4e"/>
      <use xlink:href="#DejaVuSans-6f" x="74.804688"/>
      <use xlink:href="#DejaVuSans-72" x="135.986328"/>
      <use xlink:href="#DejaVuSans-6d" x="175.349609"/>
      <use xlink:href="#DejaVuSans-61" x="272.761719"/>
      <use xlink:href="#DejaVuSans-6c" x="334.041016"/>
      <use xlink:href="#DejaVuSans-69" x="361.824219"/>
      <use xlink:href="#DejaVuSans-7a" x="389.607422"/>
      <use xlink:href="#DejaVuSans-65" x="442.097656"/>
      <use xlink:href="#DejaVuSans-64" x="503.621094"/>
      <use xlink:href="#DejaVuSans-20" x="567.097656"/>
      <use xlink:href="#DejaVuSans-73" x="598.884766"/>
      <use xlink:href="#DejaVuSans-61" x="650.984375"/>
      <use xlink:href="#DejaVuSans-6d" x="712.263672"/>
      <use xlink:href="#DejaVuSans-70" x="809.675781"/>
      <use xlink:href="#DejaVuSans-6c" x="873.152344"/>
      <use xlink:href="#DejaVuSans-69" x="900.935547"/>
      <use xlink:href="#DejaVuSans-6e" x="928.71875"/>
      <use xlink:href="#DejaVuSans-67" x="992.097656"/>
      <use xlink:href="#DejaVuSans-20" x="1055.574219"/>
      <use xlink:href="#DejaVuSans-72" x="1087.361328"/>
      <use xlink:href="#DejaVuSans-61" x="1128.474609"/>
      <use xlink:href="#DejaVuSans-74" x="1189.753906"/>
      <use xlink:href="#DejaVuSans-65" x="1228.962891"/>
     </g>
    </g>
   </g>
   <g id="matplotlib.axis_2">
    <g id="ytick_1">
     <g id="line2d_19">
      <path d="M 54 256.32 
L 388.8 256.32 
" clip-path="url(#peb57f92545)" style="fill: none; stroke-dasharray: 1.85,0.8; stroke-dashoffset: 0; stroke: #b0b0b0; stroke-width: 0.5"/>
     </g>
     <g id="line2d_20">
      <defs>
       <path id="mac62511088" d="M 0 0 
L -3.5 0 
" style="stroke: #000000; stroke-width: 0.8"/>
      </defs>
      <g>
       <use xlink:href="#mac62511088" x="54" y="256.32" style="stroke: #000000; stroke-width: 0.8"/>
      </g>
     </g>
     <g id="text_11">
      <!-- −100 -->
      <g transform="translate(19.532812 260.119219) scale(0.1 -0.1)">
       <use xlink:href="#DejaVuSans-2212"/>
       <use xlink:href="#DejaVuSans-31" x="83.789062"/>
       <use xlink:href="#DejaVuSans-30" x="147.412109"/>
       <use xlink:href="#DejaVuSans-30" x="211.035156"/>
      </g>
     </g>
    </g>
    <g id="ytick_2">
     <g id="line2d_21">
      <path d="M 54 211.968 
L 388.8 211.968 
" clip-path="url(#peb57f92545)" style="fill: none; stroke-dasharray: 1.85,0.8; stroke-dashoffset: 0; stroke: #b0b0b0; stroke-width: 0.5"/>
     </g>
     <g id="line2d_22">
      <g>
       <use xlink:href="#mac62511088" x="54" y="211.968" style="stroke: #000000; stroke-width: 0.8"/>
      </g>
     </g>
     <g id="text_12">
      <!-- −80 -->
      <g transform="translate(25.895312 215.767219) scale(0.1 -0.1)">
       <defs>
        <path id="DejaVuSans-38" d="M 2034 2216 
Q 1584 2216 1326 1975 
Q 1069 1734 1069 1313 
Q 1069 891 1326 650 
Q 1584 409 2034 409 
Q 2484 409 2743 651 
Q 3003 894 3003 1313 
Q 3003 1734 2745 1975 
Q 2488 2216 2034 2216 
z
M 1403 2484 
Q 997 2584 770 2862 
Q 544 3141 544 3541 
Q 544 4100 942 4425 
Q 1341 4750 2034 4750 
Q 2731 4750 3128 4425 
Q 3525 4100 3525 3541 
Q 3525 3141 3298 2862 
Q 3072 2584 2669 2484 
Q 3125 2378 3379 2068 
Q 3634 1759 3634 1313 
Q 3634 634 3220 271 
Q 2806 -91 2034 -91 
Q 1263 -91 848 271 
Q 434 634 434 1313 
Q 434 1759 690 2068 
Q 947 2378 1403 2484 
z
M 1172 3481 
Q 1172 3119 1398 2916 
Q 1625 2713 2034 2713 
Q 2441 2713 2670 2916 
Q 2900 3119 2900 3481 
Q 2900 3844 2670 4047 
Q 2441 4250 2034 4250 
Q 1625 4250 1398 4047 
Q 1172 3844 1172 3481 
z
" transform="scale(0.015625)"/>
       </defs>
       <use xlink:href="#DejaVuSans-2212"/>
       <use xlink:href="#DejaVuSans-38" x="83.789062"/>
       <use xlink:href="#DejaVuSans-30" x="147.412109"/>
      </g>
     </g>
    </g>
    <g id="ytick_3">
     <g id="line2d_23">
      <path d="M 54 167.616 
L 388.8 167.616 
" clip-path="url(#peb57f92545)" style="fill: none; stroke-dasharray: 1.85,0.8; stroke-dashoffset: 0; stroke: #b0b0b0; stroke-width: 0.5"/>
     </g>
     <g id="line2d_24">
      <g>
       <use xlink:href="#mac62511088" x="54" y="167.616" style="stroke: #000000; stroke-width: 0.8"/>
      </g>
     </g>
     <g id="text_13">
      <!-- −60 -->
      <g transform="translate(25.895312 171.415219) scale(0.1 -0.1)">
       <defs>
        <path id="DejaVuSans-36" d="M 2113 2584 
Q 1688 2584 1439 2293 
Q 1191 2003 1191 1497 
Q 1191 994 1439 701 
Q 1688 409 2113 409 
Q 2538 409 2786 701 
Q 3034 994 3034 1497 
Q 3034 2003 2786 2293 
Q 2538 2584 2113 2584 
z
M 3366 4563 
L 3366 3988 
Q 3128 4100 2886 4159 
Q 2644 4219 2406 4219 
Q 1781 4219 1451 3797 
Q 1122 3375 1075 2522 
Q 1259 2794 1537 2939 
Q 1816 3084 2150 3084 
Q 2853 3084 3261 2657 
Q 3669 2231 3669 1497 
Q 3669 778 3244 343 
Q 2819 -91 2113 -91 
Q 1303 -91 875 529 
Q 447 1150 447 2328 
Q 447 3434 972 4092 
Q 1497 4750 2381 4750 
Q 2619 4750 2861 4703 
Q 3103 4656 3366 4563 
z
" transform="scale(0.015625)"/>
       </defs>
       <use xlink:href="#DejaVuSans-2212"/>
       <use xlink:href="#DejaVuSans-36" x="83.789062"/>
       <use xlink:href="#DejaVuSans-30" x="147.412109"/>
      </g>
     </g>
    </g>
    <g id="ytick_4">
     <g id="line2d_25">
      <path d="M 54 123.264 
L 388.8 123.264 
" clip-path="url(#peb57f92545)" style="fill: none; stroke-dasharray: 1.85,0.8; stroke-dashoffset: 0; stroke: #b0b0b0; stroke-width: 0.5"/>
     </g>
     <g id="line2d_26">
      <g>
       <use xlink:href="#mac62511088" x="54" y="123.264" style="stroke: #000000; stroke-width: 0.8"/>
      </g>
     </g>
     <g id="text_14">
      <!-- −40 -->
      <g transform="translate(25.895312 127.063219) scale(0.1 -0.1)">
       <defs>
        <path id="DejaVuSans-34" d="M 2419 4116 
L 825 1625 
L 2419 1625 
L 2419 4116 
z
M 2253 4666 
L 3047 4666 
L 3047 1625 
L 3713 1625 
L 3713 1100 
L 3047 1100 
L 3047 0 
L 2419 0 
L 2419 1100 
L 313 1100 
L 313 1709 
L 2253 4666 
z
" transform="scale(0.015625)"/>
       </defs>
       <use xlink:href="#DejaVuSans-2212"/>
       <use xlink:href="#DejaVuSans-34" x="83.789062"/>
       <use xlink:href="#DejaVuSans-30" x="147.412109"/>
      </g>
     </g>
    </g>
    <g id="ytick_5">
     <g id="line2d_27">
      <path d="M 54 78.912 
L 388.8 78.912 
" clip-path="url(#peb57f92545)" style="fill: none; stroke-dasharray: 1.85,0.8; stroke-dashoffset: 0; stroke: #b0b0b0; stroke-width: 0.5"/>
     </g>
     <g id="line2d_28">
      <g>
       <use xlink:href="#mac62511088" x="54" y="78.912" style="stroke: #000000; stroke-width: 0.8"/>
      </g>
     </g>
     <g id="text_15">
      <!-- −20 -->
      <g transform="translate(25.895312 82.711219) scale(0.1 -0.1)">
       <use xlink:href="#DejaVuSans-2212"/>
       <use xlink:href="#DejaVuSans-32" x="83.789062"/>
       <use xlink:href="#DejaVuSans-30" x="147.412109"/>
      </g>
     </g>
    </g>
    <g id="ytick_6">
     <g id="line2d_29">
      <path d="M 54 34.56 
L 388.8 34.56 
" clip-path="url(#peb57f92545)" style="fill: none; stroke-dasharray: 1.85,0.8; stroke-dashoffset: 0; stroke: #b0b0b0; stroke-width: 0.5"/>
     </g>
     <g id="line2d_30">
      <g>
       <use xlink:href="#mac62511088" x="54" y="34.56" style="stroke: #000000; stroke-width: 0.8"/>
      </g>
     </g>
     <g id="text_16">
      <!-- 0 -->
      <g transform="translate(40.6375 38.359219) scale(0.1 -0.1)">
       <use xlink:href="#DejaVuSans-30"/>
      </g>
     </g>
    </g>
    <g id="text_17">
     <!-- $|\operatorname{FFT}(w)|^2$ [dB] -->
     <g transform="translate(13.132812 180.14) rotate(-90) scale(0.1 -0.1)">
      <defs>
       <path id="DejaVuSans-7c" d="M 1344 4891 
L 1344 -1509 
L 813 -1509 
L 813 4891 
L 1344 4891 
z
" transform="scale(0.015625)"/>
       <path id="DejaVuSans-46" d="M 628 4666 
L 3309 4666 
L 3309 4134 
L 1259 4134 
L 1259 2759 
L 3109 2759 
L 3109 2228 
L 1259 2228 
L 1259 0 
L 628 0 
L 628 4666 
z
" transform="scale(0.015625)"/>
       <path id="DejaVuSans-54" d="M -19 4666 
L 3928 4666 
L 3928 4134 
L 2272 4134 
L 2272 0 
L 1638 0 
L 1638 4134 
L -19 4134 
L -19 4666 
z
" transform="scale(0.015625)"/>
       <path id="DejaVuSans-28" d="M 1984 4856 
Q 1566 4138 1362 3434 
Q 1159 2731 1159 2009 
Q 1159 1288 1364 580 
Q 1569 -128 1984 -844 
L 1484 -844 
Q 1016 -109 783 600 
Q 550 1309 550 2009 
Q 550 2706 781 3412 
Q 1013 4119 1484 4856 
L 1984 4856 
z
" transform="scale(0.015625)"/>
       <path id="DejaVuSans-Oblique-77" d="M 544 3500 
L 1113 3500 
L 1259 684 
L 2566 3500 
L 3231 3500 
L 3425 684 
L 4666 3500 
L 5241 3500 
L 3641 0 
L 2969 0 
L 2797 2900 
L 1459 0 
L 781 0 
L 544 3500 
z
" transform="scale(0.015625)"/>
       <path id="DejaVuSans-29" d="M 513 4856 
L 1013 4856 
Q 1481 4119 1714 3412 
Q 1947 2706 1947 2009 
Q 1947 1309 1714 600 
Q 1481 -109 1013 -844 
L 513 -844 
Q 928 -128 1133 580 
Q 1338 1288 1338 2009 
Q 1338 2731 1133 3434 
Q 928 4138 513 4856 
z
" transform="scale(0.015625)"/>
       <path id="DejaVuSans-5b" d="M 550 4863 
L 1875 4863 
L 1875 4416 
L 1125 4416 
L 1125 -397 
L 1875 -397 
L 1875 -844 
L 550 -844 
L 550 4863 
z
" transform="scale(0.015625)"/>
       <path id="DejaVuSans-42" d="M 1259 2228 
L 1259 519 
L 2272 519 
Q 2781 519 3026 730 
Q 3272 941 3272 1375 
Q 3272 1813 3026 2020 
Q 2781 2228 2272 2228 
L 1259 2228 
z
M 1259 4147 
L 1259 2741 
L 2194 2741 
Q 2656 2741 2882 2914 
Q 3109 3088 3109 3444 
Q 3109 3797 2882 3972 
Q 2656 4147 2194 4147 
L 1259 4147 
z
M 628 4666 
L 2241 4666 
Q 2963 4666 3353 4366 
Q 3744 4066 3744 3513 
Q 3744 3084 3544 2831 
Q 3344 2578 2956 2516 
Q 3422 2416 3680 2098 
Q 3938 1781 3938 1306 
Q 3938 681 3513 340 
Q 3088 0 2303 0 
L 628 0 
L 628 4666 
z
" transform="scale(0.015625)"/>
       <path id="DejaVuSans-5d" d="M 1947 4863 
L 1947 -844 
L 622 -844 
L 622 -397 
L 1369 -397 
L 1369 4416 
L 622 4416 
L 622 4863 
L 1947 4863 
z
" transform="scale(0.015625)"/>
      </defs>
      <use xlink:href="#DejaVuSans-7c" transform="translate(0 0.765625)"/>
      <use xlink:href="#DejaVuSans-46" transform="translate(33.691406 0.765625)"/>
      <use xlink:href="#DejaVuSans-46" transform="translate(91.210938 0.765625)"/>
      <use xlink:href="#DejaVuSans-54" transform="translate(148.730469 0.765625)"/>
      <use xlink:href="#DejaVuSans-28" transform="translate(209.814453 0.765625)"/>
      <use xlink:href="#DejaVuSans-Oblique-77" transform="translate(248.828125 0.765625)"/>
      <use xlink:href="#DejaVuSans-29" transform="translate(330.615234 0.765625)"/>
      <use xlink:href="#DejaVuSans-7c" transform="translate(369.628906 0.765625)"/>
      <use xlink:href="#DejaVuSans-32" transform="translate(404.277344 39.046875) scale(0.7)"/>
      <use xlink:href="#DejaVuSans-20" transform="translate(451.547852 0.765625)"/>
      <use xlink:href="#DejaVuSans-5b" transform="translate(483.334961 0.765625)"/>
      <use xlink:href="#DejaVuSans-64" transform="translate(522.348633 0.765625)"/>
      <use xlink:href="#DejaVuSans-42" transform="translate(585.825195 0.765625)"/>
      <use xlink:href="#DejaVuSans-5d" transform="translate(654.428711 0.765625)"/>
     </g>
    </g>
   </g>
   <g id="line2d_31">
    <path d="M 53.99992 231.093058 
L 54.344355 217.107086 
L 54.80054 207.201694 
L 55.3585 199.720269 
L 56.000274 193.979523 
L 56.69912 189.637096 
L 57.420317 186.48033 
L 58.125948 184.327182 
L 58.781691 182.987562 
L 59.364794 182.260447 
L 59.87047 181.956851 
L 60.321867 181.933841 
L 60.766479 182.139177 
L 61.24701 182.621429 
L 61.783418 183.496564 
L 62.375302 184.915317 
L 63.007497 187.041245 
L 63.655656 190.040206 
L 64.289846 194.07442 
L 64.880134 199.320459 
L 65.401375 206.022357 
L 65.83561 214.598073 
L 66.172461 225.874551 
L 66.407938 241.716482 
L 66.543636 267.454973 
L 66.576194 289 
M 66.607799 289 
L 66.755565 243.987493 
L 67.026164 225.214262 
L 67.412904 213.036504 
L 67.908203 204.144527 
L 68.499289 197.365535 
L 69.165408 192.175389 
L 69.875829 188.301006 
L 70.594232 185.545315 
L 71.283101 183.725106 
L 71.911703 182.643811 
L 72.462878 182.101235 
L 72.941414 181.91979 
L 73.382434 181.98607 
L 73.835427 182.289032 
L 74.335515 182.909429 
L 74.893076 183.97967 
L 75.501723 185.659043 
L 76.142299 188.115001 
L 76.786866 191.509153 
L 77.405491 196.009476 
L 77.969437 201.810548 
L 78.456355 209.211701 
L 78.851477 218.763289 
L 79.14682 231.5951 
L 79.340789 250.488286 
L 79.437374 284.740641 
L 79.441268 289 
M 79.47274 289 
L 79.620567 243.906956 
L 79.891166 225.133355 
L 80.277906 212.955943 
L 80.773205 204.065241 
L 81.364291 197.288928 
L 82.029612 192.108547 
L 82.739234 188.243175 
L 83.456041 185.499708 
L 84.142515 183.69283 
L 84.767526 182.624813 
L 85.314709 182.092719 
L 85.790053 181.918616 
L 86.228279 181.990812 
L 86.680473 182.301256 
L 87.180163 182.932886 
L 87.737723 184.020887 
L 88.345971 185.725904 
L 88.984951 188.214822 
L 89.627522 191.654871 
L 90.242555 196.209917 
L 90.802111 202.082355 
L 91.28384 209.577875 
L 91.673374 219.26773 
L 91.96313 232.339123 
L 92.151512 251.725474 
L 92.242908 287.422742 
L 92.244242 289 
M 92.275541 289 
L 92.422908 243.864295 
L 92.693507 225.050426 
L 93.079848 212.871315 
L 93.574748 203.979426 
L 94.165036 197.207712 
L 94.829558 192.032396 
L 95.537584 188.177792 
L 96.251996 185.448081 
L 96.934878 183.656951 
L 97.555898 182.602965 
L 98.098691 182.082613 
L 98.569245 181.917464 
L 99.004677 181.99688 
L 99.455276 182.316252 
L 99.954167 182.961581 
L 100.510929 184.070274 
L 101.11798 185.805259 
L 101.755363 188.337224 
L 102.394741 191.831687 
L 103.005384 196.456918 
L 103.559353 202.419701 
L 104.034696 210.038978 
L 104.417046 219.903832 
L 104.699618 233.275874 
L 104.881214 253.335369 
L 104.964625 289 
M 104.995687 289 
L 105.142633 243.782783 
L 105.412832 224.946701 
L 105.798774 212.757766 
L 106.293275 203.861693 
L 106.883164 197.09019 
L 107.546489 191.924706 
L 108.25252 188.085244 
L 108.963739 185.375248 
L 109.642231 183.605496 
L 110.257663 182.572007 
L 110.793671 182.068978 
L 111.258238 181.916214 
L 111.68928 182.005764 
L 112.137484 182.337505 
L 112.635577 183.002544 
L 113.19194 184.14229 
L 113.797793 185.922099 
L 114.432382 188.514106 
L 115.067371 192.087545 
L 115.672027 196.816072 
L 116.218013 202.909331 
L 116.684177 210.706245 
L 117.056948 220.846621 
L 117.329542 234.694291 
L 117.501161 255.776505 
L 117.57204 289 
M 117.602778 289 
L 117.749808 243.588618 
L 118.020007 224.74657 
L 118.405949 212.55688 
L 118.900051 203.668831 
L 119.489142 196.909164 
L 120.15127 191.759349 
L 120.854507 187.945462 
L 121.560936 185.267341 
L 122.233042 183.530269 
L 122.840093 182.527788 
L 123.366922 182.049709 
L 123.822708 181.915246 
L 124.247764 182.019895 
L 124.693572 182.371289 
L 125.190468 183.066507 
L 125.745634 184.252062 
L 126.349491 186.09858 
L 126.98009 188.781252 
L 127.608293 192.471284 
L 128.20377 197.351201 
L 128.738182 203.641017 
L 129.191175 211.710913 
L 129.549578 222.259597 
L 129.807405 236.814267 
L 129.965054 259.556843 
L 130.019717 289 
M 130.049985 289 
L 130.19654 243.376106 
L 130.46634 224.498667 
L 130.851883 212.295909 
L 131.345585 203.404189 
L 131.933479 196.65624 
L 132.593212 191.529973 
L 133.292458 187.749668 
L 133.992102 185.115373 
L 134.654231 183.426178 
L 135.248909 182.467651 
L 135.762168 182.024714 
L 136.205582 181.915685 
L 136.622655 182.042179 
L 137.064872 182.422794 
L 137.56057 183.164763 
L 138.114539 184.422481 
L 138.715203 186.37241 
L 139.339416 189.195158 
L 139.957641 193.069957 
L 140.53875 198.184679 
L 141.055601 204.785525 
L 141.488638 213.292089 
L 141.825489 224.509701 
L 142.061764 240.308057 
L 142.198261 266.003871 
L 142.232257 289 
M 142.26182 289 
L 142.408194 242.984601 
L 142.677595 224.08419 
L 143.062739 211.872297 
L 143.555643 202.98619 
L 144.14194 196.257749 
L 144.798081 191.170457 
L 145.490542 187.447651 
L 146.179411 184.883542 
L 146.825974 183.269603 
L 147.401095 182.379913 
L 147.892802 181.991129 
L 148.317458 181.920566 
L 148.722957 182.081504 
L 149.160384 182.510725 
L 149.654087 183.33073 
L 150.205262 184.707679 
L 150.79994 186.828768 
L 151.412977 189.883338 
L 152.013642 194.059522 
L 152.571202 199.565587 
L 153.059716 206.692393 
L 153.460825 215.949905 
L 153.76415 228.379802 
L 153.9669 246.554067 
L 154.071467 278.669014 
L 154.081561 289 
M 154.110009 289 
L 154.255059 242.466503 
L 154.523263 223.475657 
L 154.907209 211.227376 
L 155.398517 202.334819 
L 155.98202 195.628609 
L 156.632175 190.599543 
L 157.31346 186.968412 
L 157.98397 184.520808 
L 158.604191 183.031121 
L 159.146586 182.253086 
L 159.603171 181.949666 
L 159.998292 181.939504 
L 160.387826 182.159931 
L 160.819267 182.679804 
L 161.309777 183.646586 
L 161.855763 185.249151 
L 162.438468 187.691721 
L 163.029953 191.18066 
L 163.59829 195.926446 
L 164.113145 202.17713 
L 164.551371 210.328484 
L 164.897402 221.121247 
L 165.144054 236.21833 
L 165.290927 260.224229 
L 165.336831 289 
M 165.363398 289 
L 165.507246 241.405457 
L 165.774253 222.298766 
L 166.157002 210.007113 
L 166.646314 201.118055 
L 167.224629 194.473963 
L 167.863209 189.570731 
L 168.522144 186.128481 
L 169.156334 183.910804 
L 169.725868 182.655071 
L 170.2064 182.076855 
L 170.599925 181.915965 
L 170.949947 182.008303 
L 171.320324 182.35334 
L 171.745778 183.080966 
L 172.231099 184.387365 
L 172.762718 186.501506 
L 173.315489 189.666309 
L 173.857484 194.129776 
L 174.356375 200.171408 
L 174.785421 208.198721 
L 175.126264 218.966492 
L 175.369723 234.188067 
L 175.513802 258.625411 
L 175.558394 289 
M 175.581603 289 
L 175.722139 239.408152 
L 175.986352 220.017123 
L 176.365908 207.6246 
L 176.850032 198.739941 
L 177.416373 192.230575 
L 178.027415 187.621362 
L 178.632869 184.620221 
L 179.181649 182.917185 
L 179.637037 182.141352 
L 179.989453 181.919864 
L 180.277613 181.986597 
L 180.581337 182.308279 
L 180.941337 183.048832 
L 181.360805 184.467996 
L 181.822578 186.87665 
L 182.297922 190.615378 
L 182.75291 196.058411 
L 183.155615 203.691493 
L 183.480892 214.322584 
L 183.713974 229.733332 
L 183.85047 255.13273 
L 183.891415 289 
M 183.908437 289 
L 184.043641 234.468661 
L 184.303064 214.516104 
L 184.677432 201.901664 
L 185.147986 193.130482 
L 185.672021 187.224473 
L 186.178096 183.788182 
L 186.591976 182.285294 
L 186.874548 181.92073 
L 187.04896 181.986071 
L 187.244126 182.3547 
L 187.497164 183.380214 
L 187.794503 185.62075 
L 188.105412 189.813483 
L 188.393172 196.954595 
L 188.625456 208.73215 
L 188.779513 229.093048 
L 188.847363 273.16109 
L 188.851542 289 
M 188.858087 289 
L 188.980666 217.813319 
L 189.236098 194.755037 
L 189.631619 178.517809 
L 190.182395 164.878205 
L 190.901197 152.527092 
L 191.792815 140.996319 
L 192.853657 130.132467 
L 194.071749 119.921456 
L 195.429132 110.396981 
L 196.904652 101.597597 
L 198.47556 93.552957 
L 200.118707 86.278726 
L 201.810945 79.777354 
L 203.530722 74.034937 
L 205.257683 69.026562 
L 206.973868 64.715623 
L 208.663313 61.058137 
L 210.312846 58.003463 
L 211.91249 55.496534 
L 213.454662 53.481617 
L 214.93577 51.902237 
L 216.355813 50.704504 
L 217.717985 49.839527 
L 219.029869 49.264603 
L 220.303038 48.945927 
L 221.551862 48.860812 
L 222.793502 48.999118 
L 224.044322 49.363849 
L 225.320285 49.970782 
L 226.633367 50.846176 
L 227.993144 52.025785 
L 229.404806 53.551743 
L 230.870348 55.471406 
L 232.388174 57.834939 
L 233.953893 60.694408 
L 235.559923 64.101148 
L 237.195887 68.104153 
L 238.849411 72.749963 
L 240.50533 78.078502 
L 242.146083 84.121003 
L 243.752113 90.897909 
L 245.303065 98.420761 
L 246.777388 106.687876 
L 248.15273 115.681753 
L 249.407142 125.371064 
L 250.521066 135.723091 
L 251.478138 146.714327 
L 252.267583 158.36725 
L 252.888204 170.860469 
L 253.347582 184.6838 
L 253.662083 201.109301 
L 253.850465 223.415771 
L 253.93348 263.702995 
L 253.942312 289 
M 253.948857 289 
L 254.071573 219.53607 
L 254.311839 200.709009 
L 254.641107 190.832405 
L 255.020663 185.476203 
L 255.397426 182.917986 
L 255.714321 182.031008 
L 255.931439 181.922451 
L 256.112237 182.098979 
L 256.362481 182.712705 
L 256.702525 184.210998 
L 257.119598 187.148251 
L 257.572591 192.031419 
L 258.00483 199.230659 
L 258.370018 209.220285 
L 258.642213 223.130367 
L 258.81423 244.335596 
L 258.890461 285.864752 
L 258.891962 289 
M 258.908984 289 
L 259.044119 234.668844 
L 259.301946 215.127074 
L 259.670327 203.080614 
L 260.131702 194.861116 
L 260.656934 189.228086 
L 261.205714 185.562575 
L 261.732942 183.408384 
L 262.197111 182.341942 
L 262.573873 181.958178 
L 262.874804 181.935487 
L 263.171744 182.15063 
L 263.525358 182.712523 
L 263.953606 183.851414 
L 264.448107 185.849177 
L 264.983317 188.997875 
L 265.521321 193.562179 
L 266.022208 199.801466 
L 266.453249 208.077178 
L 266.794092 219.1174 
L 267.035555 234.639436 
L 267.176841 259.530351 
L 267.218796 289 
M 267.242005 289 
L 267.383182 239.386826 
L 267.647395 220.150556 
L 268.025355 207.953248 
L 268.505886 199.27802 
L 269.068636 192.940615 
L 269.682471 188.402133 
L 270.307482 185.330181 
L 270.90216 183.433733 
L 271.430984 182.418766 
L 271.875596 181.994198 
L 272.24717 181.92046 
L 272.599986 182.08146 
L 272.992313 182.525846 
L 273.449697 183.409422 
L 273.971337 184.938019 
L 274.540073 187.338363 
L 275.12597 190.828601 
L 275.694307 195.621559 
L 276.211158 201.950327 
L 276.65138 210.195786 
L 276.998209 221.074338 
L 277.245259 236.281591 
L 277.391734 260.422944 
L 277.437001 289 
M 277.463568 289 
L 277.606856 241.49997 
L 277.873463 222.411402 
L 278.255015 210.187699 
L 278.742331 201.379615 
L 279.318251 194.811783 
L 279.956433 189.952286 
L 280.620955 186.501326 
L 281.27111 184.219709 
L 281.869779 182.863002 
L 282.391819 182.178203 
L 282.832839 181.931904 
L 283.222772 181.95836 
L 283.619091 182.218919 
L 284.064501 182.799178 
L 284.57297 183.854957 
L 285.138513 185.576929 
L 285.740375 188.164455 
L 286.348623 191.811094 
L 286.929731 196.706804 
L 287.453767 203.088211 
L 287.89758 211.330377 
L 288.246804 222.160275 
L 288.49585 237.256894 
L 288.64432 261.176345 
L 288.69039 289 
M 288.718838 289 
L 288.863832 242.48638 
L 289.132036 223.513354 
L 289.515583 211.304039 
L 290.006093 202.455861 
L 290.588398 195.793772 
L 291.238154 190.79376 
L 291.921435 187.167964 
L 292.599129 184.695803 
L 293.233319 183.15919 
L 293.796467 182.326093 
L 294.278595 181.97362 
L 294.698462 181.925896 
L 295.106355 182.10821 
L 295.550967 182.567846 
L 296.054647 183.43297 
L 296.616997 184.871396 
L 297.22285 187.068462 
L 297.846265 190.209427 
L 298.455311 194.472464 
L 299.018858 200.055326 
L 299.510964 207.235703 
L 299.914467 216.526065 
L 300.219389 228.963331 
L 300.422937 247.058814 
L 300.528303 278.832216 
L 300.538579 289 
M 300.568142 289 
L 300.71389 243.066998 
L 300.982892 224.150044 
L 301.367637 211.943237 
L 301.859743 203.076835 
L 302.445241 196.36781 
L 303.100984 191.29437 
L 303.794243 187.574086 
L 304.487102 184.995048 
L 305.141647 183.353354 
L 305.728742 182.430656 
L 306.235616 182.011287 
L 306.675837 181.916886 
L 307.093708 182.056062 
L 307.539916 182.453835 
L 308.041202 183.220586 
L 308.601955 184.512899 
L 309.209405 186.505523 
L 309.840003 189.376771 
L 310.463817 193.302303 
L 311.048916 198.460627 
L 311.568561 205.094607 
L 312.003195 213.612914 
L 312.341642 224.838951 
L 312.578715 240.593438 
L 312.71601 266.158142 
L 312.750415 289 
M 312.780682 289 
L 312.927939 243.297525 
L 313.198138 224.462375 
L 313.58408 212.284644 
L 314.077783 203.419872 
L 314.665676 196.693352 
L 315.32541 191.584259 
L 316.025054 187.813546 
L 316.727094 185.175823 
L 317.393612 183.474755 
L 317.995075 182.499123 
L 318.517514 182.03852 
L 318.970906 181.915172 
L 319.39636 182.029178 
L 319.844564 182.392477 
L 320.34545 183.105279 
L 320.905406 184.315529 
L 321.514053 186.193186 
L 322.149041 188.911872 
L 322.781236 192.642476 
L 323.379107 197.557611 
L 323.915115 203.879057 
L 324.368906 211.973332 
L 324.727709 222.54227 
L 324.985935 237.137706 
L 325.143185 259.849004 
L 325.197621 289 
M 325.228359 289 
L 325.375469 243.582233 
L 325.645668 224.751328 
L 326.03161 212.570599 
L 326.525712 203.692123 
L 327.114802 196.942321 
L 327.776531 191.803929 
L 328.480167 187.993467 
L 329.188193 185.311689 
L 329.863093 183.56603 
L 330.474933 182.55093 
L 331.008148 182.060242 
L 331.470719 181.915669 
L 331.901761 182.011758 
L 332.351961 182.352031 
L 332.852847 183.02936 
L 333.412403 184.185969 
L 334.021449 185.986922 
L 334.659232 188.604575 
L 335.296615 192.204018 
L 335.902867 196.956229 
L 336.450051 203.072289 
L 336.917013 210.891477 
L 337.289784 221.040012 
L 337.562378 234.893052 
L 337.733997 255.978541 
L 337.804712 289 
M 337.835775 289 
L 337.983841 243.652711 
L 338.25444 224.885236 
L 338.640781 212.724138 
L 339.135681 203.84593 
L 339.725569 197.092119 
L 340.388895 191.939383 
L 341.095325 188.106753 
L 341.807342 185.399011 
L 342.487829 183.625769 
L 343.106055 182.586237 
L 343.646454 182.075681 
L 344.11581 181.916781 
L 344.550843 182.001152 
L 345.002639 182.326602 
L 345.503525 182.980758 
L 346.062682 184.101802 
L 346.672128 185.852436 
L 347.311506 188.401758 
L 347.952881 191.916697 
L 348.56512 196.563848 
L 349.119886 202.545417 
L 349.595629 210.182299 
L 349.978378 220.074826 
L 350.26095 233.484764 
L 350.442147 253.592697 
L 350.524858 289 
M 350.556157 289 
L 350.703566 243.860858 
L 350.974165 225.052725 
L 351.360506 212.878154 
L 351.855406 203.991098 
L 352.445693 197.224376 
L 353.110216 192.05358 
L 353.818242 188.202125 
L 354.533452 185.470757 
L 355.217931 183.675068 
L 355.841345 182.615003 
L 356.387331 182.088411 
L 356.861477 181.918127 
L 357.299703 181.993181 
L 357.752297 182.306789 
L 358.253184 182.943177 
L 358.812341 184.038056 
L 359.422185 185.751578 
L 360.062761 188.250441 
L 360.70653 191.699386 
L 361.32276 196.263578 
L 361.883115 202.14139 
L 362.365642 209.64182 
L 362.755575 219.326621 
L 363.04573 232.384967 
L 363.234511 251.742116 
L 363.326306 287.41065 
L 363.327659 289 
M 363.359131 289 
L 363.507105 243.890924 
L 363.778102 225.112381 
L 364.164842 212.949158 
L 364.660141 204.066692 
L 365.251227 197.296556 
L 365.916549 192.121039 
L 366.626171 188.259028 
L 367.343377 185.515691 
L 368.030649 183.706612 
L 368.657655 182.633746 
L 369.207234 182.097077 
L 369.684972 181.919223 
L 370.125592 181.988201 
L 370.579383 182.294535 
L 371.08027 182.919244 
L 371.639427 183.996566 
L 372.24967 185.685241 
L 372.891444 188.15125 
L 373.537208 191.557445 
L 374.156631 196.069543 
L 374.720977 201.880761 
L 375.207894 209.287598 
L 375.603016 218.844413 
L 375.89836 231.682793 
L 376.092328 250.591958 
L 376.188914 284.960275 
L 376.1926 289 
M 376.224205 289 
L 376.372106 243.97247 
L 376.643104 225.193036 
L 377.029844 213.028595 
L 377.525143 204.143974 
L 378.116229 197.370267 
L 378.782349 192.18419 
L 379.493169 188.310803 
L 380.211971 185.555646 
L 380.901638 183.734013 
L 381.531438 182.650108 
L 382.084209 182.104494 
L 382.564741 181.920279 
L 383.007357 181.984184 
L 383.461946 182.284436 
L 383.963232 182.900323 
L 384.522389 183.96392 
L 385.132632 185.632245 
L 385.775204 188.07174 
L 386.422565 191.444273 
L 387.044383 195.914188 
L 387.611921 201.672923 
L 388.10283 209.015266 
L 388.501943 218.47315 
L 388.80008 231.069153 
L 388.80008 231.069153 
" clip-path="url(#peb57f92545)" style="fill: none; stroke: #ff0000; stroke-width: 1.5; stroke-linecap: square"/>
   </g>
   <g id="line2d_32">
    <path d="M 53.99992 115.635839 
L 54.722314 111.683122 
L 55.455085 108.841832 
L 56.160717 106.937983 
L 56.807679 105.784003 
L 57.377213 105.185248 
L 57.872113 104.963971 
L 58.322312 104.999553 
L 58.7773 105.266842 
L 59.273797 105.833299 
L 59.82577 106.823183 
L 60.428829 108.389768 
L 61.065414 110.696872 
L 61.709183 113.906616 
L 62.330602 118.184498 
L 62.901333 123.722531 
L 63.398627 130.806581 
L 63.806521 139.939955 
L 64.115833 152.125962 
L 64.324569 169.820674 
L 64.434724 200.583481 
L 64.462263 282.413844 
M 64.463061 282.413748 
L 64.577208 173.390594 
L 64.818272 151.561824 
L 65.177074 138.15256 
L 65.647628 128.515635 
L 66.219956 121.171092 
L 66.876097 115.496332 
L 67.588913 111.179592 
L 68.32328 108.024823 
L 69.041683 105.858818 
L 69.709399 104.501051 
L 70.303279 103.756467 
L 70.818533 103.438703 
L 71.277114 103.405042 
L 71.725717 103.59953 
L 72.207047 104.065266 
L 72.741858 104.913229 
L 73.330549 106.290294 
L 73.958753 108.357917 
L 74.602522 111.280024 
L 75.23312 115.222571 
L 75.821013 120.364943 
L 76.341057 126.950161 
L 76.775691 135.399884 
L 77.114139 146.530673 
L 77.35201 162.178318 
L 77.490103 187.481708 
L 77.538396 246.270265 
L 77.540391 280.782567 
M 77.541189 280.782463 
L 77.655336 171.757999 
L 77.8964 149.926459 
L 78.255202 136.513055 
L 78.725756 126.870671 
L 79.298084 119.519443 
L 79.954624 113.834085 
L 80.667839 109.507685 
L 81.403404 106.340981 
L 82.122605 104.16651 
L 82.791518 102.801075 
L 83.386595 102.050866 
L 83.903047 101.729307 
L 84.362027 101.693238 
L 84.810231 101.885242 
L 85.291162 102.347995 
L 85.825175 103.191653 
L 86.412669 104.56221 
L 87.040074 106.622943 
L 87.683045 109.537035 
L 88.312845 113.470304 
L 88.89994 118.601458 
L 89.419584 125.177563 
L 89.854218 133.625125 
L 90.192666 144.759347 
L 90.430537 160.426524 
L 90.56863 185.839549 
L 90.616524 244.475242 
L 90.618519 278.987517 
M 90.619317 278.987402 
L 90.733464 169.961374 
L 90.974528 148.126523 
L 91.33333 134.708169 
L 91.804283 125.052887 
L 92.37701 117.691688 
L 93.03395 111.996774 
L 93.748362 107.656632 
L 94.484725 104.480016 
L 95.205523 102.294649 
L 95.875633 100.921603 
L 96.471908 100.165654 
L 96.989158 99.840263 
L 97.448936 99.801483 
L 97.89674 99.990853 
L 98.376873 100.449999 
L 98.909688 101.288264 
L 99.495985 102.651764 
L 100.122193 104.703679 
L 100.763967 107.607044 
L 101.392569 111.527179 
L 101.978866 116.645465 
L 102.498112 123.21097 
L 102.932346 131.645232 
L 103.270794 142.773867 
L 103.508665 158.4371 
L 103.646758 183.847828 
L 103.694652 242.482723 
L 103.696647 276.994965 
M 103.697446 276.994836 
L 103.811592 167.966905 
L 104.052656 146.128022 
L 104.411458 132.703638 
L 104.882411 123.040389 
L 105.455537 115.665245 
L 106.113275 109.954539 
L 106.828485 105.600396 
L 107.566445 102.407984 
L 108.288839 100.209759 
L 108.960945 98.82588 
L 109.558816 98.062612 
L 110.077663 97.732246 
L 110.53784 97.690301 
L 110.985644 97.876743 
L 111.46458 98.331447 
L 111.996198 99.163769 
L 112.581297 100.519771 
L 113.205909 102.561205 
L 113.846485 105.45377 
L 114.47389 109.361659 
L 115.059389 114.469738 
L 115.577836 121.024512 
L 116.011672 129.454878 
L 116.34972 140.58277 
L 116.587192 156.24601 
L 116.724886 181.613127 
L 116.77278 240.247028 
L 116.774775 274.759228 
M 116.775574 274.759083 
L 116.88972 165.72878 
L 117.130784 143.884873 
L 117.489986 130.442246 
L 117.961338 120.767019 
L 118.534863 113.379881 
L 119.193399 107.6531 
L 119.909807 103.281423 
L 120.649363 100.071639 
L 121.373752 97.857535 
L 122.047854 96.461031 
L 122.648119 95.68794 
L 123.168563 95.351464 
L 123.629538 95.305389 
L 124.076943 95.487844 
L 124.554681 95.937084 
L 125.084703 96.761656 
L 125.667807 98.106677 
L 126.290423 100.134179 
L 126.929003 103.009526 
L 127.554812 106.898891 
L 128.139113 111.98819 
L 128.656763 118.525318 
L 129.0898 126.932046 
L 129.427449 138.033138 
L 129.664921 153.667274 
L 129.803015 179.071479 
L 129.850908 237.704107 
L 129.852904 272.216254 
M 129.853702 272.216088 
L 129.967848 163.182745 
L 130.208912 141.332396 
L 130.568114 127.88011 
L 131.039865 118.185713 
L 131.614188 110.776676 
L 132.273922 105.026799 
L 132.991926 100.631781 
L 133.733876 97.398037 
L 134.460661 95.163944 
L 135.137556 93.750593 
L 135.740216 92.965426 
L 136.262655 92.62062 
L 136.724828 92.568801 
L 137.171834 92.745855 
L 137.647976 93.187699 
L 138.176002 94.002019 
L 138.756711 95.332962 
L 139.376932 97.342867 
L 140.013517 100.198932 
L 140.63773 104.068886 
L 141.220434 109.136676 
L 141.736886 115.65379 
L 142.169525 124.054247 
L 142.506775 135.157836 
L 142.743848 150.811422 
L 142.881542 176.282592 
L 142.929036 234.760151 
L 142.931032 269.272228 
M 142.93183 269.272033 
L 143.045976 160.234648 
L 143.28704 138.375726 
L 143.646242 124.910576 
L 144.118392 115.192717 
L 144.693514 107.756448 
L 145.354445 101.977201 
L 146.074843 97.547709 
L 146.819588 94.282266 
L 147.549964 92.018961 
L 148.230851 90.581671 
L 148.837502 89.778892 
L 149.363134 89.422582 
L 149.826504 89.363152 
L 150.272712 89.532778 
L 150.746858 89.964738 
L 151.271691 90.764286 
L 151.849207 92.075905 
L 152.466236 94.061688 
L 153.099628 96.888488 
L 153.721046 100.725775 
L 154.301755 105.76169 
L 154.81701 112.25202 
L 155.248451 120.620668 
L 155.585302 131.706072 
L 155.821976 147.330115 
L 155.95967 172.794507 
L 156.007164 231.269721 
L 156.00916 265.781699 
M 156.009958 265.781465 
L 156.124104 156.738434 
L 156.365168 134.867527 
L 156.724769 121.373604 
L 157.197319 111.629724 
L 157.773638 104.155594 
L 158.436963 98.330626 
L 159.160554 93.855241 
L 159.909689 90.544088 
L 160.645254 88.23991 
L 161.331728 86.769241 
L 161.943568 85.94208 
L 162.47359 85.569267 
L 162.939354 85.498875 
L 163.385163 85.658599 
L 163.856516 86.077237 
L 164.377358 86.857671 
L 164.950085 88.142675 
L 165.562324 90.094928 
L 166.191326 92.882918 
L 166.808753 96.677017 
L 167.386269 101.669449 
L 167.899129 108.119065 
L 168.328974 116.454642 
L 168.664628 127.510294 
L 168.900902 143.144999 
L 169.038197 168.672019 
L 169.085692 230.500864 
L 169.087288 261.500995 
M 169.088086 261.500702 
L 169.202232 152.449214 
L 169.443297 130.560339 
L 169.803296 117.028544 
L 170.277043 107.23358 
L 170.855358 99.702195 
L 171.521876 93.812501 
L 172.250656 89.265067 
L 173.006576 85.883374 
L 173.750123 83.515667 
L 174.445377 81.99225 
L 175.065998 81.125635 
L 175.602804 80.72677 
L 176.072161 80.638976 
L 176.517172 80.78295 
L 176.984134 81.180579 
L 177.49859 81.930654 
L 178.064133 83.174364 
L 178.668789 85.073368 
L 179.290607 87.798125 
L 179.901648 91.521834 
L 180.473976 96.441566 
L 180.983244 102.825565 
L 181.410694 111.107372 
L 181.744751 122.123912 
L 181.980228 137.76335 
L 182.116724 163.306127 
L 182.16382 224.97337 
L 182.165416 255.973305 
M 182.166214 255.972914 
L 182.280361 146.907346 
L 182.521824 124.966749 
L 182.882223 111.389678 
L 183.357167 101.523119 
L 183.938674 93.892396 
L 184.61078 87.887378 
L 185.347942 83.215614 
L 186.115835 79.706356 
L 186.874149 77.220924 
L 187.585368 75.599675 
L 188.221953 74.658906 
L 188.772329 74.209739 
L 189.249668 74.089097 
L 189.69428 74.204998 
L 190.154058 74.566227 
L 190.657738 75.264107 
L 191.210509 76.435578 
L 191.801595 78.240807 
L 192.410242 80.852492 
L 193.010109 84.454062 
L 193.573257 89.250213 
L 194.075341 95.518269 
L 194.497602 103.704834 
L 194.828467 114.678106 
L 195.061549 130.340085 
L 195.19605 155.992569 
L 195.241948 217.173533 
L 195.243544 248.173076 
M 195.244342 248.172488 
L 195.358489 139.078764 
L 195.599952 117.077923 
L 195.961548 103.376419 
L 196.439685 93.346167 
L 197.027978 85.50788 
L 197.712456 79.253594 
L 198.469174 74.30294 
L 199.264606 70.503864 
L 200.058042 67.741021 
L 200.808773 65.88075 
L 201.48487 64.755081 
L 202.069969 64.177321 
L 202.570058 63.973185 
L 203.018661 64.0239 
L 203.465268 64.306543 
L 203.945001 64.890569 
L 204.468637 65.902284 
L 205.028593 67.498382 
L 205.606508 69.855763 
L 206.177239 73.165494 
L 206.715243 77.656233 
L 207.197372 83.639173 
L 207.604866 91.605124 
L 207.924954 102.473137 
L 208.150054 118.240097 
L 208.278967 144.704603 
L 208.320475 208.127088 
L 208.321672 234.827889 
M 208.322471 234.826714 
L 208.436617 125.648339 
L 208.678878 103.420457 
L 209.044066 89.356403 
L 209.53298 78.794185 
L 210.145219 70.239571 
L 210.876792 63.051524 
L 211.718521 56.922324 
L 212.653244 51.707512 
L 213.657411 47.328987 
L 214.703486 43.730489 
L 215.761933 40.857527 
L 216.805214 38.64346 
L 217.810978 37.008412 
L 218.76366 35.865317 
L 219.656077 35.12682 
L 220.491819 34.713093 
L 221.285255 34.562447 
L 222.059933 34.640692 
L 222.841795 34.94651 
L 223.653191 35.509614 
L 224.507293 36.382721 
L 225.408888 37.634524 
L 226.353588 39.341102 
L 227.32902 41.578558 
L 228.317623 44.420899 
L 229.295848 47.930182 
L 230.238552 52.162004 
L 231.120592 57.169291 
L 231.919216 63.014682 
L 232.617664 69.808864 
L 233.205158 77.755931 
L 233.677707 87.264626 
L 234.035712 99.151748 
L 234.282762 115.228659 
L 234.425246 140.552432 
L 234.475534 197.3414 
L 234.477929 234.826714 
M 234.478727 234.827889 
L 234.592873 125.985691 
L 234.832341 104.618577 
L 235.184358 91.889057 
L 235.638149 83.10937 
L 236.178947 76.74418 
L 236.7852 72.102776 
L 237.428969 68.795827 
L 238.077527 66.55432 
L 238.698546 65.150085 
L 239.266085 64.372046 
L 239.770164 64.028235 
L 240.227548 63.972806 
L 240.682137 64.145891 
L 241.178633 64.587293 
L 241.740983 65.405063 
L 242.373178 66.741991 
L 243.062845 68.749966 
L 243.785638 71.572043 
L 244.50923 75.330221 
L 245.200094 80.13757 
L 245.827499 86.119086 
L 246.369494 93.491004 
L 246.81251 102.669241 
L 247.150159 114.50243 
L 247.382443 130.983416 
L 247.513352 157.954972 
L 247.554859 221.469043 
L 247.556057 248.172488 
M 247.556855 248.173076 
L 247.671001 139.247335 
L 247.911267 117.665738 
L 248.266477 104.629932 
L 248.727852 95.475459 
L 249.28182 88.702469 
L 249.908028 83.64642 
L 250.578139 79.950641 
L 251.258626 77.369449 
L 251.915167 75.691567 
L 252.518226 74.712702 
L 253.052638 74.234151 
L 253.525986 74.089701 
L 253.974589 74.18378 
L 254.447138 74.521512 
L 254.975164 75.190917 
L 255.568246 76.325865 
L 256.2188 78.079565 
L 256.906471 80.605494 
L 257.602524 84.046458 
L 258.274231 88.532902 
L 258.89086 94.207317 
L 259.428864 101.291357 
L 259.872278 110.183226 
L 260.21352 121.711207 
L 260.450593 137.748539 
L 260.58669 163.734203 
L 260.632588 224.971415 
L 260.634185 255.972914 
M 260.634983 255.973305 
L 260.749129 147.019614 
L 260.989395 125.379838 
L 261.345404 112.238566 
L 261.809173 102.94872 
L 262.367931 96.020825 
L 263.001722 90.80303 
L 263.682608 86.94892 
L 264.376266 84.226488 
L 265.047574 82.431974 
L 265.666199 81.364393 
L 266.214181 80.825543 
L 266.69591 80.64192 
L 267.144513 80.704639 
L 267.60908 81.003878 
L 268.124335 81.618079 
L 268.70225 82.676377 
L 269.337238 84.331531 
L 270.010542 86.740428 
L 270.694621 90.052394 
L 271.357148 94.403832 
L 271.96819 99.949654 
L 272.5034 106.914496 
L 272.946016 115.695368 
L 273.287657 127.108673 
L 273.525927 143.00789 
L 273.663222 168.635691 
L 273.710716 230.499399 
L 273.712313 261.500702 
M 273.713111 261.500995 
L 273.827257 152.533296 
L 274.067523 130.864266 
L 274.423931 117.66965 
L 274.888897 108.310736 
L 275.45005 101.302936 
L 276.087832 95.999226 
L 276.774306 92.060537 
L 277.475148 89.260338 
L 278.154438 87.401098 
L 278.781445 86.283581 
L 279.337409 85.709713 
L 279.824725 85.503512 
L 280.274126 85.549257 
L 280.735102 85.82871 
L 281.243571 86.414183 
L 281.813504 87.432572 
L 282.440112 89.035761 
L 283.105433 91.381823 
L 283.782727 94.623758 
L 284.440066 98.902452 
L 285.047515 104.376152 
L 285.58073 111.273947 
L 286.022548 119.99346 
L 286.364189 131.348637 
L 286.602858 147.179131 
L 286.740951 172.765263 
L 286.788445 231.268317 
L 286.790441 265.781465 
M 286.791239 265.781699 
L 286.905386 156.805577 
L 287.146051 135.097438 
L 287.502857 121.877267 
L 287.968622 112.481256 
L 288.531371 105.426553 
L 289.171947 100.06981 
L 289.862013 96.07999 
L 290.567645 93.231545 
L 291.252123 91.332391 
L 291.884318 90.184374 
L 292.445071 89.589064 
L 292.935581 89.36892 
L 293.38578 89.404223 
L 293.844361 89.671518 
L 294.348839 90.23974 
L 294.913584 91.233313 
L 295.535002 92.804604 
L 296.195534 95.112759 
L 296.868438 98.311174 
L 297.522584 102.546246 
L 298.127639 107.976205 
L 298.659257 114.831562 
L 299.100277 123.512378 
L 299.441918 134.842339 
L 299.680587 150.638066 
L 299.81868 176.104705 
L 299.866574 234.758983 
L 299.868569 269.272033 
M 299.869367 269.272228 
L 299.983514 160.290476 
L 300.224179 138.570529 
L 300.581385 125.322401 
L 301.047947 115.895812 
L 301.611894 108.808821 
L 302.254066 103.418816 
L 302.946926 99.392181 
L 303.65575 96.511188 
L 304.343821 94.584509 
L 304.979608 93.415379 
L 305.543953 92.804964 
L 306.036857 92.575241 
L 306.487456 92.60349 
L 306.944839 92.862954 
L 307.446923 93.420255 
L 308.008475 94.398319 
L 308.626301 95.948825 
L 309.283241 98.231188 
L 309.952952 101.400265 
L 310.604703 105.605719 
L 311.208162 111.008565 
L 311.738583 117.837787 
L 312.179203 126.503803 
L 312.520445 137.819589 
L 312.759114 153.629691 
L 312.897207 179.204083 
L 312.944702 237.703109 
L 312.946697 272.216088 
M 312.947495 272.216254 
L 313.061642 163.230472 
L 313.302307 141.50206 
L 313.659513 128.241457 
L 314.126475 118.792466 
L 314.691219 111.680258 
L 315.334589 106.264126 
L 316.029045 102.211737 
L 316.739865 99.306684 
L 317.43073 97.35801 
L 318.06931 96.172135 
L 318.63605 95.550071 
L 319.13095 95.312518 
L 319.582347 95.335213 
L 320.038932 95.588733 
L 320.53902 96.137441 
L 321.098177 97.103546 
L 321.71321 98.637681 
L 322.367755 100.901044 
L 323.035071 104.047235 
L 323.684827 108.227541 
L 324.287088 113.607103 
L 324.816711 120.413315 
L 325.256932 129.057404 
L 325.598174 140.355951 
L 325.836843 156.136788 
L 325.974936 181.594849 
L 326.02283 240.246157 
L 326.024825 274.759083 
M 326.025624 274.759228 
L 326.13977 165.770413 
L 326.380435 144.03563 
L 326.737641 130.765628 
L 327.204603 121.304451 
L 327.769747 114.173583 
L 328.413915 108.736744 
L 329.109568 104.66353 
L 329.822384 101.737548 
L 330.515243 99.772152 
L 331.156219 98.572771 
L 331.724954 97.94157 
L 332.221451 97.698016 
L 332.673246 97.716448 
L 333.129033 97.965229 
L 333.627525 98.507123 
L 334.184687 99.46351 
L 334.797724 100.9851 
L 335.450273 103.23284 
L 336.115993 106.361997 
L 336.764552 110.524884 
L 337.365616 115.883717 
L 337.894839 122.674414 
L 338.334661 131.29925 
L 338.675903 142.582598 
L 338.914572 158.335647 
L 339.053064 183.831638 
L 339.100958 242.481952 
L 339.102954 276.994836 
M 339.103752 276.994965 
L 339.217898 168.003783 
L 339.458563 146.264026 
L 339.816168 132.976062 
L 340.283529 123.503419 
L 340.849072 116.361432 
L 341.494038 110.909981 
L 342.190889 106.821333 
L 342.904902 103.882038 
L 343.599358 101.904385 
L 344.24193 100.695533 
L 344.812262 100.0575 
L 345.309557 99.809643 
L 345.761751 99.824811 
L 346.21674 100.069847 
L 346.714035 100.606505 
L 347.269999 101.556106 
L 347.881439 103.068176 
L 348.532392 105.30404 
L 349.196915 108.420777 
L 349.844276 112.569126 
L 350.444542 117.914084 
L 350.973366 124.693546 
L 351.413189 133.314644 
L 351.754031 144.582304 
L 351.9927 160.331356 
L 352.131193 185.825035 
L 352.179086 244.47455 
L 352.181082 278.987402 
M 352.18188 278.987517 
L 352.296026 169.994435 
L 352.536691 148.250682 
L 352.894296 134.956809 
L 353.361657 125.476493 
L 353.927599 118.321212 
L 354.573364 112.855053 
L 355.271013 108.753877 
L 355.986223 105.802147 
L 356.681877 103.814369 
L 357.325646 102.597564 
L 357.897175 101.953659 
L 358.395667 101.7018 
L 358.847862 101.714159 
L 359.302451 101.956129 
L 359.798948 102.488662 
L 360.353714 103.432274 
L 360.963958 104.936685 
L 361.613713 107.163122 
L 362.277039 110.268442 
L 362.923602 114.40569 
L 363.523468 119.741655 
L 364.051894 126.511522 
L 364.491317 135.120275 
L 364.832159 146.383229 
L 365.070829 162.129 
L 365.209321 187.620779 
L 365.257214 246.269639 
L 365.25921 280.782463 
M 365.260008 280.782567 
L 365.374154 171.787924 
L 365.614819 150.040888 
L 365.972424 136.742156 
L 366.440185 127.249243 
L 367.006526 120.084481 
L 367.652689 114.609515 
L 368.351137 110.497743 
L 369.067145 107.536891 
L 369.763996 105.540407 
L 370.408962 104.317003 
L 370.981689 103.668439 
L 371.480979 103.413726 
L 371.933573 103.424149 
L 372.387763 103.664012 
L 372.883461 104.193456 
L 373.437031 105.132207 
L 374.046077 106.630142 
L 374.694635 108.848317 
L 375.357163 111.945424 
L 376.002927 116.073111 
L 376.601995 121.397273 
L 377.130022 128.15675 
L 377.569445 136.760403 
L 377.910287 148.019421 
L 378.148957 163.762446 
L 378.287449 189.252636 
L 378.335342 247.900947 
L 378.337338 282.413748 
M 378.338136 282.413844 
L 378.452282 173.417893 
L 378.692947 151.668108 
L 379.050552 138.365307 
L 379.518313 128.867099 
L 380.085053 121.691878 
L 380.731616 116.208187 
L 381.430861 112.086439 
L 382.147668 109.117346 
L 382.845317 107.114059 
L 383.491481 105.884658 
L 384.065006 105.232335 
L 384.564695 104.975161 
L 385.017289 104.983618 
L 385.47108 105.221245 
L 385.96598 105.747416 
L 386.518751 106.681815 
L 387.126999 108.17423 
L 387.774759 110.385647 
L 388.436488 113.474604 
L 388.80008 115.633253 
L 388.80008 115.633253 
" clip-path="url(#peb57f92545)" style="fill: none; stroke: #0000ff; stroke-width: 1.5; stroke-linecap: square"/>
   </g>
   <g id="line2d_33">
    <path d="M 53.99992 220.955839 
L 54.740274 218.653115 
L 55.431139 217.179976 
L 56.04697 216.348864 
L 56.580584 215.972134 
L 57.049541 215.898474 
L 57.497745 216.055116 
L 57.970693 216.469387 
L 58.492334 217.242144 
L 59.06546 218.514447 
L 59.678098 220.447679 
L 60.307898 223.20974 
L 60.926922 226.971745 
L 61.506434 231.921584 
L 62.022087 238.318791 
L 62.455125 246.582672 
L 62.793972 257.519143 
L 63.033838 272.957104 
L 63.143176 289 
M 63.310424 289 
L 63.529137 264.157248 
L 63.867585 249.617785 
L 64.320578 239.293243 
L 64.880533 231.404821 
L 65.532684 225.236838 
L 66.252683 220.453392 
L 67.007006 216.863478 
L 67.756939 214.313888 
L 68.464965 212.641378 
L 69.103147 211.660273 
L 69.658313 211.181382 
L 70.14084 211.039685 
L 70.589044 211.137504 
L 71.051615 211.477002 
L 71.558489 212.143358 
L 72.117646 213.270203 
L 72.720306 215.015602 
L 73.346115 217.546449 
L 73.968332 221.034082 
L 74.55822 225.662674 
L 75.089839 231.667957 
L 75.542832 239.416729 
L 75.904428 249.605819 
L 76.167443 263.693357 
L 76.331079 285.573699 
L 76.343638 289 
M 76.472268 289 
L 76.674715 261.509977 
L 76.997598 246.149443 
L 77.436223 235.389383 
L 77.983406 227.210621 
L 78.625579 220.814425 
L 79.339991 215.832233 
L 80.094314 212.063851 
L 80.850234 209.357362 
L 81.569435 207.554942 
L 82.221186 206.476049 
L 82.790321 205.928921 
L 83.282826 205.742384 
L 83.733025 205.804871 
L 84.190009 206.102104 
L 84.688102 206.709082 
L 85.23808 207.753799 
L 85.832758 209.390223 
L 86.454176 211.787363 
L 87.075595 215.113612 
L 87.669076 219.554656 
L 88.207878 225.335956 
L 88.671248 232.809622 
L 89.044418 242.596889 
L 89.320205 256.029516 
L 89.496214 276.408575 
L 89.540862 289 
M 89.637321 289 
L 89.824684 258.357998 
L 90.133597 242.125632 
L 90.559051 230.932322 
L 91.094661 222.467601 
L 91.728053 215.846536 
L 92.437675 210.669959 
L 93.192398 206.726769 
L 93.953905 203.867105 
L 94.683084 201.93739 
L 95.348405 200.759125 
L 95.93111 200.142579 
L 96.433992 199.910283 
L 96.886985 199.938392 
L 97.33918 200.196578 
L 97.828492 200.748564 
L 98.368891 201.716446 
L 98.955586 203.252318 
L 99.571418 205.522635 
L 100.19124 208.699106 
L 100.787115 212.966583 
L 101.331904 218.545562 
L 101.803655 225.764075 
L 102.187203 235.205302 
L 102.474165 248.071033 
L 102.661748 267.301709 
L 102.735146 289 
M 102.805292 289 
L 102.978643 254.580342 
L 103.273987 237.472184 
L 103.68667 225.848638 
L 104.211104 217.09877 
L 104.835715 210.254951 
L 105.540549 204.88221 
L 106.295271 200.761759 
L 107.062366 197.74268 
L 107.802321 195.677089 
L 108.481212 194.393338 
L 109.078284 193.701374 
L 109.592741 193.419315 
L 110.050124 193.411856 
L 110.498727 193.632463 
L 110.979259 194.131889 
L 111.509679 195.025975 
L 112.087196 196.463203 
L 112.696641 198.610658 
L 113.313669 201.641068 
L 113.910343 205.737551 
L 114.459522 211.117743 
L 114.938458 218.093518 
L 115.331584 227.221903 
L 115.628923 239.593594 
L 115.827282 257.863211 
L 115.926789 289 
M 115.975888 289 
L 116.136594 249.975761 
L 116.419964 231.974766 
L 116.821472 219.928788 
L 117.335928 210.905808 
L 117.952956 203.844673 
L 118.653799 198.279394 
L 119.409718 193.979131 
L 120.183199 190.797902 
L 120.93393 188.59423 
L 121.62679 187.200812 
L 122.23863 186.429613 
L 122.765059 186.095174 
L 123.22803 186.051417 
L 123.673839 186.236089 
L 124.146389 186.686989 
L 124.666433 187.511826 
L 125.23437 188.856995 
L 125.835833 190.886679 
L 126.448072 193.775862 
L 127.043549 197.708469 
L 127.595123 202.901143 
L 128.079645 209.659676 
L 128.480355 218.509374 
L 128.786474 230.468558 
L 128.994013 247.960781 
L 129.104168 278.473037 
L 129.116086 289 
M 129.148818 289 
L 129.297339 244.404409 
L 129.569933 225.46482 
L 129.961063 213.002059 
L 130.466739 203.700977 
L 131.077382 196.416614 
L 131.77543 190.650768 
L 132.533345 186.16246 
L 133.31401 182.808492 
L 134.077113 180.45319 
L 134.785539 178.938225 
L 135.413742 178.078365 
L 135.954141 177.685015 
L 136.424296 177.602032 
L 136.868109 177.750562 
L 137.331878 178.153125 
L 137.840747 178.909547 
L 138.397509 180.162278 
L 138.989394 182.074267 
L 139.595247 184.823784 
L 140.18753 188.59458 
L 140.739503 193.605914 
L 141.227219 200.15375 
L 141.633516 208.745812 
L 141.94682 220.34832 
L 142.161941 237.181556 
L 142.27968 265.951618 
L 142.303333 289 
M 142.323792 289 
L 142.462074 237.358068 
L 142.72509 217.556172 
L 143.10744 204.697224 
L 143.605532 195.131039 
L 144.211386 187.619309 
L 144.908636 181.639967 
L 145.670542 176.947717 
L 146.460785 173.401585 
L 147.238257 170.87653 
L 147.964243 169.22305 
L 148.610806 168.260289 
L 149.167169 167.797571 
L 149.646504 167.669153 
L 150.08912 167.778781 
L 150.544108 168.131955 
L 151.040206 168.817904 
L 151.583398 169.974276 
L 152.163309 171.764254 
L 152.759184 174.364387 
L 153.345481 177.967567 
L 153.89466 182.79018 
L 154.383174 189.133118 
L 154.792664 197.484685 
L 155.111156 208.782017 
L 155.332265 225.112774 
L 155.45599 252.632266 
L 155.488823 289 
M 155.500518 289 
L 155.629604 228.413395 
L 155.884637 207.764661 
L 156.259803 194.520262 
L 156.752308 184.679524 
L 157.355367 176.923215 
L 158.054214 170.702435 
L 158.823703 165.766911 
L 159.627916 161.985808 
L 160.424944 159.248604 
L 161.174079 157.419235 
L 161.844189 156.324721 
L 162.421306 155.77256 
L 162.913412 155.587114 
L 163.356427 155.652176 
L 163.801039 155.951311 
L 164.281571 156.560841 
L 164.807202 157.611581 
L 165.37035 159.26599 
L 165.951858 161.703575 
L 166.526979 165.121837 
L 167.068975 169.746884 
L 167.553897 175.883541 
L 167.962987 184.023306 
L 168.283076 195.079106 
L 168.507377 211.10997 
L 168.634295 237.947332 
L 168.672848 289 
M 168.678704 289 
L 168.801124 216.458852 
L 169.05017 195.118241 
L 169.420547 181.517299 
L 169.910658 171.382335 
L 170.514914 163.337392 
L 171.220945 156.807875 
L 172.005202 151.547637 
L 172.832962 147.43936 
L 173.660322 144.400547 
L 174.443781 142.31638 
L 175.148614 141.026781 
L 175.755665 140.341395 
L 176.267327 140.072143 
L 176.713934 140.077867 
L 177.146174 140.311871 
L 177.604754 140.829426 
L 178.105242 141.753399 
L 178.642847 143.243919 
L 179.200806 145.485815 
L 179.755573 148.685913 
L 180.281604 153.088537 
L 180.754552 159.012334 
L 181.155661 166.974714 
L 181.470561 177.904562 
L 181.691669 193.896718 
L 181.816991 221.066338 
L 181.855712 289 
M 181.858059 289 
L 181.973443 200.167685 
L 182.217301 178.056202 
L 182.584085 164.018176 
L 183.074196 153.470012 
L 183.685238 144.964092 
L 184.408829 137.904935 
L 185.225015 132.054727 
L 186.100668 127.327799 
L 186.990291 123.689795 
L 187.844392 121.079726 
L 188.61907 119.377704 
L 189.286786 118.403711 
L 189.841553 117.953261 
L 190.302528 117.845041 
L 190.717206 117.974487 
L 191.137871 118.352084 
L 191.590864 119.07956 
L 192.07858 120.313619 
L 192.587848 122.246842 
L 193.097914 125.108326 
L 193.584831 129.177896 
L 194.025851 134.839353 
L 194.401017 142.685456 
L 194.695163 153.798637 
L 194.898711 170.592801 
L 195.008866 200.439566 
L 195.037635 289 
M 195.038361 289 
L 195.150152 174.088899 
L 195.392014 151.313035 
L 195.761194 136.606271 
L 196.263277 125.205707 
L 196.905849 115.561895 
L 197.695294 107.004398 
L 198.634007 99.216362 
L 199.718397 92.053407 
L 200.938086 85.461796 
L 202.275912 79.435364 
L 203.709525 73.986055 
L 205.21418 69.124297 
L 206.763935 64.853334 
L 208.334843 61.161429 
L 209.904554 58.026556 
L 211.455107 55.413901 
L 212.972135 53.28193 
L 214.445659 51.584491 
L 215.869694 50.274506 
L 217.243041 49.305982 
L 218.569292 48.637062 
L 219.856431 48.232907 
L 221.116031 48.06813 
L 222.36286 48.128639 
L 223.612482 48.412925 
L 224.879266 48.931678 
L 226.175584 49.706792 
L 227.509419 50.768673 
L 228.884762 52.154102 
L 230.302011 53.904645 
L 231.756778 56.063021 
L 233.241477 58.672686 
L 234.743738 61.772685 
L 236.247595 65.396161 
L 237.73429 69.569158 
L 239.181872 74.306147 
L 240.566793 79.610557 
L 241.865107 85.475549 
L 243.054463 91.889823 
L 244.116902 98.853765 
L 245.03965 106.394097 
L 245.81792 114.610991 
L 246.45251 123.714535 
L 246.949405 134.125444 
L 247.317786 146.688907 
L 247.56803 163.279959 
L 247.710513 189.094204 
L 247.760003 248.375375 
L 247.762038 289 
M 247.762765 289 
L 247.874549 174.694149 
L 248.111223 153.481663 
L 248.456854 141.183915 
L 248.896677 133.001731 
L 249.411133 127.339827 
L 249.975478 123.438569 
L 250.560179 120.846475 
L 251.133704 119.238187 
L 251.668116 118.345296 
L 252.14745 117.939403 
L 252.582084 117.845752 
L 253.014722 117.983241 
L 253.496452 118.384789 
L 254.058402 119.163954 
L 254.710553 120.473823 
L 255.445718 122.478235 
L 256.240751 125.323221 
L 257.059331 129.111769 
L 257.859952 133.904761 
L 258.603898 139.746926 
L 259.261237 146.71734 
L 259.814008 155.018278 
L 260.25383 165.089408 
L 260.580305 177.903367 
L 260.797422 195.771938 
L 260.912766 225.967847 
L 260.94234 289 
M 260.944687 289 
L 261.060038 200.54291 
L 261.300703 179.365353 
L 261.65312 166.761009 
L 262.106113 158.104368 
L 262.64252 151.893622 
L 263.239593 147.427192 
L 263.868196 144.304921 
L 264.495202 142.241753 
L 265.089481 140.992258 
L 265.628283 140.333484 
L 266.106819 140.072525 
L 266.549436 140.076277 
L 267.005222 140.310432 
L 267.516087 140.83955 
L 268.101984 141.788585 
L 268.763713 143.310173 
L 269.486906 145.561084 
L 270.244023 148.678299 
L 270.999543 152.767789 
L 271.716749 157.914672 
L 272.364509 164.224791 
L 272.920074 171.883425 
L 273.371471 181.294293 
L 273.713909 193.298136 
L 273.948588 209.86223 
L 274.080694 236.746515 
L 274.121695 289 
M 274.127551 289 
L 274.249519 216.814472 
L 274.495771 196.138859 
L 274.854973 183.578943 
L 275.316746 174.822084 
L 275.865526 168.434014 
L 276.479362 163.756716 
L 277.128718 160.422777 
L 277.780071 158.167267 
L 278.40109 156.759329 
L 278.966633 155.983069 
L 279.467519 155.643003 
L 279.920912 155.591323 
L 280.372308 155.768205 
L 280.866809 156.215705 
L 281.42876 157.045106 
L 282.062152 158.402124 
L 282.755012 160.441868 
L 283.483392 163.310699 
L 284.214966 167.133254 
L 284.914212 172.012659 
L 285.549998 178.068996 
L 286.099178 185.502169 
L 286.54778 194.706525 
L 286.890219 206.523172 
L 287.126095 222.863924 
L 287.259798 249.248527 
L 287.299881 289 
M 287.311576 289 
L 287.440596 228.665502 
L 287.693234 208.586738 
L 288.059221 196.180972 
L 288.528976 187.434479 
L 289.087335 180.991987 
L 289.712346 176.230489 
L 290.374474 172.801631 
L 291.040194 170.453788 
L 291.675981 168.967951 
L 292.255892 168.132377 
L 292.768752 167.75182 
L 293.228929 167.672532 
L 293.679128 167.823049 
L 294.166046 168.233904 
L 294.716023 169.008952 
L 295.334648 170.290004 
L 296.011543 172.232507 
L 296.723959 174.986347 
L 297.440367 178.681051 
L 298.12724 183.435574 
L 298.753049 189.375668 
L 299.295044 196.715844 
L 299.738857 205.865932 
L 300.077704 217.670019 
L 300.311185 234.106484 
L 300.442892 260.889584 
L 300.476607 289 
M 300.497066 289 
L 300.634866 237.640497 
L 300.895486 218.301238 
L 301.269854 206.133499 
L 301.747991 197.483118 
L 302.315131 191.066617 
L 302.949321 186.29532 
L 303.621028 182.838958 
L 304.295927 180.459949 
L 304.940495 178.944924 
L 305.527989 178.086777 
L 306.046835 177.690623 
L 306.510604 177.600893 
L 306.961203 177.742108 
L 307.445326 178.140198 
L 307.990115 178.89599 
L 308.601556 180.149531 
L 309.269671 182.056052 
L 309.97211 184.766749 
L 310.67814 188.415845 
L 311.354636 193.127084 
L 311.971266 199.040788 
L 312.504879 206.378158 
L 312.94111 215.562575 
L 313.273571 227.483783 
L 313.501464 244.217882 
L 313.627983 271.781698 
L 313.651581 289 
M 313.684313 289 
L 313.833526 244.531512 
L 314.104523 226.058797 
L 314.488869 214.226477 
L 314.976984 205.735421 
L 315.553702 199.403437 
L 316.196673 194.678454 
L 316.875963 191.247591 
L 317.556849 188.88297 
L 318.205807 187.37603 
L 318.796094 186.522768 
L 319.316538 186.129619 
L 319.781504 186.041934 
L 320.232501 186.185088 
L 320.716226 186.58513 
L 321.259419 187.342632 
L 321.867666 188.597144 
L 322.530992 190.504393 
L 323.227045 193.216847 
L 323.925093 196.870244 
L 324.592809 201.595275 
L 325.200258 207.540718 
L 325.724693 214.941957 
L 326.152142 224.251643 
L 326.475823 236.397115 
L 326.695335 253.585283 
L 326.81467 282.49693 
L 326.824511 289 
M 326.873611 289 
L 327.033783 250.232676 
L 327.315157 232.594904 
L 327.709481 221.099765 
L 328.207174 212.783286 
L 328.793072 206.551025 
L 329.444025 201.890558 
L 330.129701 198.503911 
L 330.814977 196.171296 
L 331.46593 194.688495 
L 332.056617 193.852021 
L 332.576661 193.469983 
L 333.041228 193.389917 
L 333.492625 193.539903 
L 333.977148 193.948494 
L 334.520739 194.71763 
L 335.128189 195.987282 
L 335.78912 197.913786 
L 336.480383 200.64803 
L 337.172046 204.329928 
L 337.831779 209.092434 
L 338.430448 215.094149 
L 338.945703 222.58419 
L 339.363973 232.043011 
L 339.678873 244.46712 
L 339.890004 262.251696 
L 339.995108 289 
M 340.065253 289 
L 340.238829 254.758846 
L 340.532576 238.016427 
L 340.938473 226.913345 
L 341.446943 218.814595 
L 342.042419 212.721286 
L 342.701354 208.157516 
L 343.392219 204.845731 
L 344.07989 202.570902 
L 344.730444 201.132172 
L 345.319135 200.326845 
L 345.836385 199.965884 
L 346.299356 199.900179 
L 346.751551 200.06345 
L 347.238469 200.489387 
L 347.784455 201.282571 
L 348.393501 202.584995 
L 349.053634 204.551653 
L 349.742103 207.336423 
L 350.428178 211.077934 
L 351.079929 215.912341 
L 351.66902 222.007644 
L 352.173898 229.632099 
L 352.581392 239.299215 
L 352.885516 252.082295 
L 353.086269 270.605503 
L 353.163078 289 
M 353.259537 289 
L 353.447067 258.543777 
L 353.753985 242.666309 
L 354.172654 231.951718 
L 354.692698 224.08377 
L 355.298153 218.146149 
L 355.964671 213.698462 
L 356.659925 210.478556 
L 357.348794 208.276183 
L 357.997352 206.893536 
L 358.582053 206.128535 
L 359.095312 205.79443 
L 359.556287 205.747449 
L 360.010078 205.928921 
L 360.500588 206.37902 
L 361.050565 207.206166 
L 361.662405 208.553849 
L 362.323336 210.578302 
L 363.009411 213.431593 
L 363.690297 217.255405 
L 364.334066 222.18827 
L 364.91278 228.403892 
L 365.406083 236.192373 
L 365.801604 246.11014 
L 366.094154 259.348057 
L 366.283732 278.861828 
L 366.328132 289 
M 366.456761 289 
L 366.658898 261.73375 
L 366.979386 246.703599 
L 367.410827 236.389304 
L 367.942844 228.756466 
L 368.558276 222.984129 
L 369.231579 218.665523 
L 369.930426 215.547395 
L 370.619295 213.426439 
L 371.26466 212.10651 
L 371.844172 211.386615 
L 372.352242 211.08266 
L 372.810823 211.056719 
L 373.266211 211.258977 
L 373.760711 211.736841 
L 374.315079 212.602683 
L 374.930112 214.001657 
L 375.59224 216.091476 
L 376.276319 219.022593 
L 376.952017 222.937783 
L 377.587804 227.979779 
L 378.15654 234.334152 
L 378.638269 242.30771 
L 379.021816 252.512271 
L 379.302393 266.259467 
L 379.479998 286.822405 
L 379.489975 289 
M 379.657223 289 
L 379.875519 264.38879 
L 380.211172 250.175377 
L 380.656981 240.268126 
L 381.20177 232.892019 
L 381.827579 227.304506 
L 382.508067 223.130096 
L 383.210106 220.129542 
L 383.897378 218.105347 
L 384.537954 216.858982 
L 385.110282 216.192071 
L 385.611967 215.923043 
L 386.067754 215.921889 
L 386.525536 216.149658 
L 387.025624 216.662735 
L 387.585979 217.577935 
L 388.205801 219.043015 
L 388.80008 220.954369 
L 388.80008 220.954369 
" clip-path="url(#peb57f92545)" style="fill: none; stroke: #008000; stroke-width: 1.5; stroke-linecap: square"/>
   </g>
   <g id="line2d_34">
    <path d="M 53.99992 165.244322 
L 54.71992 161.220162 
L 55.452691 158.317993 
L 56.160717 156.363735 
L 56.81167 155.171166 
L 57.385993 154.545035 
L 57.884485 154.305821 
L 58.336281 154.327999 
L 58.789673 154.580286 
L 59.283375 155.125833 
L 59.832555 156.086607 
L 60.433618 157.614543 
L 61.069405 159.871994 
L 61.714371 163.022212 
L 62.338983 167.229971 
L 62.914504 172.682816 
L 63.417785 179.65742 
L 63.832064 188.627152 
L 64.14856 200.565967 
L 64.364081 217.741169 
L 64.480622 246.998654 
L 64.509563 289 
M 64.516941 289 
L 64.640267 220.807822 
L 64.889314 199.895964 
L 65.255699 186.830044 
L 65.733437 177.382668 
L 66.311752 170.172779 
L 66.971884 164.607659 
L 67.686695 160.382299 
L 68.420664 157.305821 
L 69.135874 155.206424 
L 69.798401 153.901018 
L 70.386294 153.194094 
L 70.89636 152.90139 
L 71.352546 152.88523 
L 71.802346 153.097053 
L 72.287668 153.58664 
L 72.827268 154.468465 
L 73.42035 155.891188 
L 74.051746 158.017031 
L 74.696712 161.008723 
L 75.326113 165.030162 
L 75.910814 170.262583 
L 76.426467 176.959843 
L 76.855514 185.553823 
L 77.187975 196.907304 
L 77.41946 212.944125 
L 77.551566 239.244926 
L 77.593363 289 
M 77.6002 289 
L 77.722786 219.486786 
L 77.971034 198.51194 
L 78.33702 185.40723 
L 78.814359 175.939215 
L 79.392275 168.714735 
L 80.052407 163.134625 
L 80.767617 158.89501 
L 81.501985 155.807006 
L 82.217993 153.697019 
L 82.881718 152.382673 
L 83.470808 151.669289 
L 83.982072 151.372157 
L 84.439056 151.353069 
L 84.888856 151.562203 
L 85.373379 152.047846 
L 85.912181 152.924342 
L 86.504065 154.338906 
L 87.134664 156.455176 
L 87.779231 159.436513 
L 88.408233 163.444855 
L 88.992933 168.663802 
L 89.508986 175.348984 
L 89.938431 183.92745 
L 90.271291 195.256965 
L 90.503575 211.287548 
L 90.63608 237.542978 
L 90.678425 289 
M 90.68472 289 
L 90.806501 218.065671 
L 91.05435 196.999548 
L 91.419539 183.874469 
L 91.896079 174.390926 
L 92.473596 167.148949 
L 93.133728 161.551895 
L 93.848938 157.298521 
L 94.584104 154.195771 
L 95.30131 152.073159 
L 95.966232 150.749283 
L 96.556919 150.028553 
L 97.069379 149.726747 
L 97.526763 149.704418 
L 97.976164 149.910143 
L 98.459888 150.391136 
L 98.997493 151.260672 
L 99.588579 152.666828 
L 100.21798 154.770659 
L 100.861749 157.737207 
L 101.490751 161.731467 
L 102.075451 166.932313 
L 102.591903 173.597929 
L 103.022147 182.157378 
L 103.355805 193.460241 
L 103.588887 209.447321 
L 103.722191 235.634727 
L 103.765291 289 
M 103.771055 289 
L 103.893011 216.374622 
L 104.14086 195.297154 
L 104.506048 182.166418 
L 104.982988 172.671303 
L 105.560903 165.421477 
L 106.221435 159.817575 
L 106.937443 155.55564 
L 107.673407 152.445713 
L 108.391411 150.317059 
L 109.05753 148.987653 
L 109.649016 148.263464 
L 110.161876 147.959389 
L 110.619658 147.935313 
L 111.069059 148.139393 
L 111.552385 148.61812 
L 112.08959 149.484757 
L 112.679878 150.886249 
L 113.30888 152.985523 
L 113.95225 155.946899 
L 114.580453 159.932378 
L 115.165154 165.129459 
L 115.681206 171.786308 
L 116.11145 180.341804 
L 116.445108 191.641187 
L 116.67819 207.624455 
L 116.811494 233.801431 
L 116.854878 289 
M 116.860126 289 
L 116.980718 214.805065 
L 117.227369 193.619242 
L 117.591759 180.433154 
L 118.067901 170.908447 
L 118.645018 163.638134 
L 119.30555 158.011965 
L 120.021558 153.732914 
L 120.75832 150.605951 
L 121.477522 148.463022 
L 122.144838 147.12283 
L 122.73792 146.390284 
L 123.252376 146.080561 
L 123.710558 146.052682 
L 124.15956 146.252762 
L 124.642087 146.726109 
L 125.178095 147.584783 
L 125.767186 148.975263 
L 126.395389 151.06092 
L 127.03836 154.005952 
L 127.666963 157.97502 
L 128.252062 163.150266 
L 128.768913 169.781272 
L 129.199955 178.296414 
L 129.534811 189.538703 
L 129.76909 205.401243 
L 129.90399 231.346465 
L 129.948929 289 
M 129.953687 289 
L 130.074012 212.969228 
L 130.320265 191.749559 
L 130.684256 178.548372 
L 131.159998 169.013741 
L 131.737115 161.731397 
L 132.397248 156.099424 
L 133.113655 151.810568 
L 133.850817 148.676207 
L 134.570417 146.527498 
L 135.238532 145.182128 
L 135.832012 144.446326 
L 136.346868 144.13412 
L 136.805449 144.104318 
L 137.25445 144.302511 
L 137.736579 144.773126 
L 138.272188 145.627933 
L 138.861279 147.013993 
L 139.489482 149.093577 
L 140.132453 152.029842 
L 140.761455 155.988487 
L 141.347352 161.151698 
L 141.865401 167.769875 
L 142.29764 176.265495 
L 142.633693 187.47575 
L 142.869169 203.281368 
L 143.004868 228.979636 
L 143.051154 289 
M 143.055455 289 
L 143.174491 211.291651 
L 143.419945 189.955423 
L 143.783138 176.71725 
L 144.258082 167.165913 
L 144.834401 159.875441 
L 145.493735 154.239999 
L 146.208945 149.952538 
L 146.944909 146.820155 
L 147.663711 144.672602 
L 148.331028 143.328748 
L 148.924109 142.593857 
L 149.438566 142.282413 
L 149.897146 142.253053 
L 150.346547 142.451809 
L 150.829474 142.923516 
L 151.366281 143.780265 
L 151.956569 145.168168 
L 152.586369 147.249642 
L 153.231734 150.189146 
L 153.863529 154.150593 
L 154.452221 159.311723 
L 154.973063 165.918759 
L 155.408096 174.387908 
L 155.746943 185.546042 
L 155.984814 201.218496 
L 156.122907 226.60649 
L 156.1712 287.728672 
L 156.171325 289 
M 156.175291 289 
L 156.294925 209.626469 
L 156.540379 188.347738 
L 156.903173 175.149815 
L 157.377319 165.636488 
L 157.952041 158.390294 
L 158.608981 152.802981 
L 159.3202 148.570098 
L 160.050576 145.49324 
L 160.762194 143.397689 
L 161.421528 142.097038 
L 162.006628 141.394363 
L 162.515098 141.104229 
L 162.970884 141.089855 
L 163.421483 141.303734 
L 163.908799 141.796507 
L 164.451992 142.683558 
L 165.050661 144.11423 
L 165.69004 146.250937 
L 166.345782 149.256409 
L 166.988354 153.29046 
L 167.587821 158.524763 
L 168.118242 165.186192 
L 168.561656 173.672247 
L 168.907288 184.757909 
L 169.151146 200.190104 
L 169.294428 224.808509 
L 169.346711 280.345996 
L 169.347827 289 
M 169.351797 289 
L 169.470436 209.844237 
L 169.715092 188.563714 
L 170.076289 175.454906 
L 170.546444 166.096691 
L 171.113185 159.056816 
L 171.755756 153.722017 
L 172.444226 149.772487 
L 173.141875 146.989173 
L 173.811985 145.167527 
L 174.423825 144.097118 
L 174.96143 143.566409 
L 175.430388 143.393609 
L 175.866618 143.466216 
L 176.322006 143.778521 
L 176.832072 144.417145 
L 177.410386 145.522433 
L 178.054554 147.26333 
L 178.751006 149.821976 
L 179.476593 153.375222 
L 180.202978 158.091015 
L 180.898233 164.119908 
L 181.531625 171.619226 
L 182.076414 180.798802 
L 182.513442 192.049391 
L 182.834329 206.304992 
L 183.04067 226.067273 
L 183.142444 259.997917 
L 183.159309 289 
M 183.168994 289 
L 183.295704 225.98648 
L 183.541557 206.909565 
L 183.880404 196.483507 
L 184.267543 190.74375 
L 184.632731 188.170801 
L 184.904128 187.496997 
L 185.051401 187.526461 
L 185.212243 187.878145 
L 185.442132 189.004934 
L 185.729094 191.657711 
L 186.035613 196.754833 
L 186.314593 205.403544 
L 186.528916 219.55731 
L 186.658229 244.573989 
L 186.699894 289 
M 186.708998 289 
L 186.835834 223.565912 
L 187.092464 201.529752 
L 187.479204 186.648354 
L 187.99366 175.117221 
L 188.619868 165.889645 
L 189.321908 158.684027 
L 190.043903 153.432855 
L 190.720399 150.017338 
L 191.29552 148.140189 
L 191.739334 147.348483 
L 192.054633 147.166651 
L 192.298491 147.269745 
L 192.563103 147.656231 
L 192.877604 148.556684 
L 193.233612 150.317043 
L 193.607581 153.383217 
L 193.968778 158.319444 
L 194.287669 165.949053 
L 194.53911 177.70802 
L 194.707137 197.018741 
L 194.78656 236.532717 
L 194.797235 289 
M 194.798776 289 
L 194.913478 191.37056 
L 195.159731 168.176193 
L 195.540484 152.529356 
L 196.066914 139.838407 
L 196.750594 128.643384 
L 197.597911 118.374507 
L 198.606469 108.824839 
L 199.764295 99.951837 
L 201.052232 91.775174 
L 202.445934 84.332415 
L 203.919458 77.649185 
L 205.446065 71.736521 
L 207.001407 66.581855 
L 208.562736 62.158311 
L 210.109698 58.425934 
L 211.625528 55.333084 
L 213.096658 52.82175 
L 214.513508 50.829662 
L 215.869694 49.294747 
L 217.164016 48.155716 
L 218.39927 47.356837 
L 219.583438 46.849833 
L 220.729291 46.597315 
L 221.853592 46.575676 
L 222.975099 46.777108 
L 224.112171 47.209907 
L 225.280374 47.896908 
L 226.491282 48.872902 
L 227.752479 50.182306 
L 229.067156 51.876391 
L 230.433719 54.009746 
L 231.847376 56.639581 
L 233.299748 59.822788 
L 234.779259 63.613976 
L 236.270344 68.060027 
L 237.755443 73.201861 
L 239.213801 79.067358 
L 240.622669 85.670699 
L 241.957701 93.009295 
L 243.194153 101.064577 
L 244.308077 109.804077 
L 245.279517 119.203135 
L 246.094905 129.27836 
L 246.750647 140.175908 
L 247.251933 152.286503 
L 247.611533 166.544106 
L 247.844615 185.149435 
L 247.967542 214.843319 
L 248.001623 289 
M 248.003164 289 
L 248.118407 192.440424 
L 248.35508 172.238493 
L 248.691133 161.129213 
L 249.099825 154.419326 
L 249.544836 150.457495 
L 249.982662 148.343548 
L 250.370201 147.423832 
L 250.678316 147.172711 
L 250.930555 147.232577 
L 251.217917 147.559842 
L 251.591885 148.363884 
L 252.06683 149.963916 
L 252.635166 152.72073 
L 253.267361 156.955261 
L 253.916318 162.878547 
L 254.529755 170.595659 
L 255.063767 180.212487 
L 255.490419 192.048755 
L 255.798534 207.053773 
L 255.991306 228.078916 
L 256.080707 265.632206 
L 256.091401 289 
M 256.100505 289 
L 256.226383 225.034252 
L 256.47064 206.078332 
L 256.805895 195.880799 
L 257.185451 190.410662 
L 257.539464 188.052988 
L 257.798488 187.485806 
L 257.938577 187.539406 
L 258.105805 187.932046 
L 258.344475 189.151707 
L 258.641015 191.9608 
L 258.955516 197.248661 
L 259.240084 206.073957 
L 259.4576 220.316797 
L 259.588908 245.281378 
L 259.631405 289 
M 259.641091 289 
L 259.767711 224.826887 
L 260.023941 202.968831 
L 260.408686 188.343204 
L 260.91955 177.086994 
L 261.545359 168.038609 
L 262.262964 160.768015 
L 263.041234 155.052748 
L 263.843451 150.730187 
L 264.632098 147.630642 
L 265.372851 145.561653 
L 266.03897 144.310235 
L 266.616487 143.658301 
L 267.10979 143.410167 
L 267.550011 143.428823 
L 267.988636 143.677653 
L 268.465975 144.221423 
L 268.997993 145.188532 
L 269.581096 146.73999 
L 270.198524 149.051249 
L 270.824333 152.298591 
L 271.428989 156.664433 
L 271.982957 162.352693 
L 272.46309 169.67234 
L 272.853821 179.188997 
L 273.145972 192.044536 
L 273.337546 211.093364 
L 273.432136 245.989968 
L 273.448602 289 
M 273.452572 289 
L 273.572224 209.646477 
L 273.817679 188.356925 
L 274.180871 175.132452 
L 274.655416 165.600066 
L 275.230538 158.339451 
L 275.887079 152.74926 
L 276.5971 148.521112 
L 277.325082 145.455651 
L 278.033906 143.372205 
L 278.690447 142.08212 
L 279.273152 141.387252 
L 279.779626 141.102321 
L 280.234614 141.091208 
L 280.686011 141.308464 
L 281.175323 141.806507 
L 281.72091 142.700908 
L 282.322373 144.141287 
L 282.964546 146.289095 
L 283.622683 149.305224 
L 284.266452 153.343675 
L 284.866318 158.575384 
L 285.396739 165.22925 
L 285.839754 173.700838 
L 286.185386 184.786967 
L 286.428845 200.211805 
L 286.572126 224.928115 
L 286.624011 280.447725 
L 286.625108 289 
M 286.629074 289 
L 286.747736 209.80309 
L 286.992392 188.50868 
L 287.353988 175.363055 
L 287.825341 165.949724 
L 288.395274 158.827207 
L 289.04463 153.379616 
L 289.745472 149.288813 
L 290.463077 146.344526 
L 291.160327 144.362354 
L 291.804894 143.149894 
L 292.376823 142.508845 
L 292.875315 142.258808 
L 293.327909 142.272255 
L 293.783296 142.515539 
L 294.280192 143.049345 
L 294.835358 143.994338 
L 295.446 145.500191 
L 296.096155 147.727953 
L 296.75988 150.83409 
L 297.406841 154.970911 
L 298.007107 160.303938 
L 298.535932 167.066053 
L 298.976153 175.667375 
L 299.317793 186.916715 
L 299.557261 202.640948 
L 299.696152 227.991649 
L 299.744844 288.059804 
L 299.744944 289 
M 299.749245 289 
L 299.869766 211.092657 
L 300.11562 189.96164 
L 300.478014 176.896467 
L 300.950165 167.534412 
L 301.520098 160.462325 
L 302.168656 155.062093 
L 302.867902 151.014536 
L 303.583112 148.108324 
L 304.277169 146.158024 
L 304.918543 144.969335 
L 305.487279 144.345294 
L 305.983376 144.106587 
L 306.435172 144.128447 
L 306.891358 144.380678 
L 307.390648 144.927319 
L 307.948608 145.890484 
L 308.562044 147.421031 
L 309.214194 149.679145 
L 309.879116 152.821929 
L 310.526078 157.000234 
L 311.125146 162.379105 
L 311.651975 169.195629 
L 312.089403 177.861557 
L 312.42825 189.215008 
L 312.664525 205.100196 
L 312.800622 230.869251 
L 312.846712 289 
M 312.85147 289 
L 312.971841 212.998479 
L 313.217695 191.877615 
L 313.580089 178.816821 
L 314.05224 169.458392 
L 314.622173 162.389849 
L 315.270731 156.993126 
L 315.969977 152.948945 
L 316.684788 150.047211 
L 317.378845 148.099298 
L 318.01982 146.913333 
L 318.588157 146.29123 
L 319.083855 146.053861 
L 319.53565 146.07675 
L 319.991836 146.33014 
L 320.491126 146.878248 
L 321.049086 147.843409 
L 321.662523 149.376818 
L 322.314274 151.6376 
L 322.978797 154.784249 
L 323.62496 158.965548 
L 324.223629 164.353055 
L 324.74966 171.178315 
L 325.186289 179.858539 
L 325.524338 191.237156 
L 325.759814 207.172093 
L 325.895114 233.059736 
L 325.940273 289 
M 325.945521 289 
L 326.066732 214.743583 
L 326.313384 193.693215 
L 326.676577 180.658758 
L 327.149525 171.313677 
L 327.720257 164.252694 
L 328.369613 158.86048 
L 329.069258 154.821048 
L 329.784468 151.922054 
L 330.478525 149.976785 
L 331.1195 148.792385 
L 331.687438 148.171618 
L 332.183136 147.934833 
L 332.634532 147.958174 
L 333.090718 148.212076 
L 333.590008 148.761018 
L 334.147968 149.727647 
L 334.761005 151.262507 
L 335.412357 153.525897 
L 336.076082 156.675118 
L 336.721447 160.861163 
L 337.318919 166.253001 
L 337.844152 173.091709 
L 338.279584 181.786817 
L 338.616435 193.189537 
L 338.851113 209.202944 
L 338.985614 235.357988 
L 339.029344 289 
M 339.035108 289 
L 339.157632 216.321862 
L 339.405481 195.36883 
L 339.769871 182.371573 
L 340.243618 173.05152 
L 340.815147 166.003061 
L 341.465302 160.617381 
L 342.165745 156.58134 
L 342.881753 153.684147 
L 343.57621 151.740949 
L 344.217185 150.55847 
L 344.785122 149.938888 
L 345.280421 149.703051 
L 345.731818 149.726989 
L 346.188004 149.98162 
L 346.687294 150.531651 
L 347.244855 151.499254 
L 347.857493 153.035716 
L 348.508446 155.302033 
L 349.171372 158.454436 
L 349.815939 162.646343 
L 350.412214 168.044479 
L 350.936249 174.893888 
L 351.370484 183.607055 
L 351.706137 195.041168 
L 351.939618 211.112162 
L 352.072922 237.357654 
L 352.115679 289 
M 352.121974 289 
L 352.243742 218.099129 
L 352.491192 197.114475 
L 352.855183 184.101408 
L 353.32893 174.763677 
L 353.90046 167.703226 
L 354.550614 162.307699 
L 355.251456 158.260903 
L 355.967864 155.35483 
L 356.663118 153.403303 
L 357.305291 152.213929 
L 357.874027 151.59002 
L 358.370124 151.351249 
L 358.821919 151.373226 
L 359.277706 151.625722 
L 359.776198 152.172602 
L 360.33296 153.136012 
L 360.9448 154.667138 
L 361.594955 156.926875 
L 362.257083 160.071238 
L 362.900852 164.253055 
L 363.496728 169.641845 
L 364.020364 176.478711 
L 364.454598 185.181492 
L 364.790252 196.598404 
L 365.024132 212.669109 
L 365.157436 238.827494 
L 365.200199 289 
M 365.207036 289 
L 365.330651 219.359504 
L 365.579298 198.526323 
L 365.944486 185.564041 
L 366.419431 176.250668 
L 366.992158 169.203594 
L 367.64351 163.815931 
L 368.34515 159.775976 
L 369.062356 156.874112 
L 369.758009 154.926437 
L 370.399783 153.74092 
L 370.968518 153.118994 
L 371.464216 152.881808 
L 371.915613 152.904807 
L 372.3714 153.158351 
L 372.869892 153.706635 
L 373.426654 154.672159 
L 374.038095 156.205502 
L 374.687451 158.467169 
L 375.348781 161.61471 
L 375.991752 165.802053 
L 376.586829 171.200516 
L 377.109268 178.048107 
L 377.542704 186.778673 
L 377.877161 198.233543 
L 378.109444 214.336846 
L 378.24195 240.717619 
L 378.283458 289 
M 378.290836 289 
L 378.414766 220.743375 
L 378.663812 199.946678 
L 379.029399 186.996247 
L 379.504743 177.687255 
L 380.077869 170.641049 
L 380.72962 165.252315 
L 381.431659 161.210223 
L 382.149264 158.30577 
L 382.845317 156.355514 
L 383.487889 155.16718 
L 384.057023 154.543796 
L 384.553121 154.305662 
L 385.004517 154.328073 
L 385.460304 154.581095 
L 385.958397 155.128424 
L 386.51476 156.092744 
L 387.125802 157.624798 
L 387.774759 159.885391 
L 388.43569 163.032548 
L 388.80008 165.241679 
L 388.80008 165.241679 
" clip-path="url(#peb57f92545)" style="fill: none; stroke: #800080; stroke-width: 1.5; stroke-linecap: square"/>
   </g>
   <g id="patch_3">
    <path d="M 54 256.32 
L 54 34.56 
" style="fill: none; stroke: #000000; stroke-width: 0.8; stroke-linejoin: miter; stroke-linecap: square"/>
   </g>
   <g id="patch_4">
    <path d="M 388.8 256.32 
L 388.8 34.56 
" style="fill: none; stroke: #000000; stroke-width: 0.8; stroke-linejoin: miter; stroke-linecap: square"/>
   </g>
   <g id="patch_5">
    <path d="M 54 256.32 
L 388.8 256.32 
" style="fill: none; stroke: #000000; stroke-width: 0.8; stroke-linejoin: miter; stroke-linecap: square"/>
   </g>
   <g id="patch_6">
    <path d="M 54 34.56 
L 388.8 34.56 
" style="fill: none; stroke: #000000; stroke-width: 0.8; stroke-linejoin: miter; stroke-linecap: square"/>
   </g>
   <g id="text_18">
    <!-- Window Frequency Response -->
    <g transform="translate(134.119687 28.56) scale(0.12 -0.12)">
     <defs>
      <path id="DejaVuSans-57" d="M 213 4666 
L 850 4666 
L 1831 722 
L 2809 4666 
L 3519 4666 
L 4500 722 
L 5478 4666 
L 6119 4666 
L 4947 0 
L 4153 0 
L 3169 4050 
L 2175 0 
L 1381 0 
L 213 4666 
z
" transform="scale(0.015625)"/>
      <path id="DejaVuSans-77" d="M 269 3500 
L 844 3500 
L 1563 769 
L 2278 3500 
L 2956 3500 
L 3675 769 
L 4391 3500 
L 4966 3500 
L 4050 0 
L 3372 0 
L 2619 2869 
L 1863 0 
L 1184 0 
L 269 3500 
z
" transform="scale(0.015625)"/>
      <path id="DejaVuSans-71" d="M 947 1747 
Q 947 1113 1208 752 
Q 1469 391 1925 391 
Q 2381 391 2643 752 
Q 2906 1113 2906 1747 
Q 2906 2381 2643 2742 
Q 2381 3103 1925 3103 
Q 1469 3103 1208 2742 
Q 947 2381 947 1747 
z
M 2906 525 
Q 2725 213 2448 61 
Q 2172 -91 1784 -91 
Q 1150 -91 751 415 
Q 353 922 353 1747 
Q 353 2572 751 3078 
Q 1150 3584 1784 3584 
Q 2172 3584 2448 3432 
Q 2725 3281 2906 2969 
L 2906 3500 
L 3481 3500 
L 3481 -1331 
L 2906 -1331 
L 2906 525 
z
" transform="scale(0.015625)"/>
      <path id="DejaVuSans-75" d="M 544 1381 
L 544 3500 
L 1119 3500 
L 1119 1403 
Q 1119 906 1312 657 
Q 1506 409 1894 409 
Q 2359 409 2629 706 
Q 2900 1003 2900 1516 
L 2900 3500 
L 3475 3500 
L 3475 0 
L 2900 0 
L 2900 538 
Q 2691 219 2414 64 
Q 2138 -91 1772 -91 
Q 1169 -91 856 284 
Q 544 659 544 1381 
z
M 1991 3584 
L 1991 3584 
z
" transform="scale(0.015625)"/>
      <path id="DejaVuSans-63" d="M 3122 3366 
L 3122 2828 
Q 2878 2963 2633 3030 
Q 2388 3097 2138 3097 
Q 1578 3097 1268 2742 
Q 959 2388 959 1747 
Q 959 1106 1268 751 
Q 1578 397 2138 397 
Q 2388 397 2633 464 
Q 2878 531 3122 666 
L 3122 134 
Q 2881 22 2623 -34 
Q 2366 -91 2075 -91 
Q 1284 -91 818 406 
Q 353 903 353 1747 
Q 353 2603 823 3093 
Q 1294 3584 2113 3584 
Q 2378 3584 2631 3529 
Q 2884 3475 3122 3366 
z
" transform="scale(0.015625)"/>
      <path id="DejaVuSans-79" d="M 2059 -325 
Q 1816 -950 1584 -1140 
Q 1353 -1331 966 -1331 
L 506 -1331 
L 506 -850 
L 844 -850 
Q 1081 -850 1212 -737 
Q 1344 -625 1503 -206 
L 1606 56 
L 191 3500 
L 800 3500 
L 1894 763 
L 2988 3500 
L 3597 3500 
L 2059 -325 
z
" transform="scale(0.015625)"/>
      <path id="DejaVuSans-52" d="M 2841 2188 
Q 3044 2119 3236 1894 
Q 3428 1669 3622 1275 
L 4263 0 
L 3584 0 
L 2988 1197 
Q 2756 1666 2539 1819 
Q 2322 1972 1947 1972 
L 1259 1972 
L 1259 0 
L 628 0 
L 628 4666 
L 2053 4666 
Q 2853 4666 3247 4331 
Q 3641 3997 3641 3322 
Q 3641 2881 3436 2590 
Q 3231 2300 2841 2188 
z
M 1259 4147 
L 1259 2491 
L 2053 2491 
Q 2509 2491 2742 2702 
Q 2975 2913 2975 3322 
Q 2975 3731 2742 3939 
Q 2509 4147 2053 4147 
L 1259 4147 
z
" transform="scale(0.015625)"/>
     </defs>
     <use xlink:href="#DejaVuSans-57"/>
     <use xlink:href="#DejaVuSans-69" x="96.626953"/>
     <use xlink:href="#DejaVuSans-6e" x="124.410156"/>
     <use xlink:href="#DejaVuSans-64" x="187.789062"/>
     <use xlink:href="#DejaVuSans-6f" x="251.265625"/>
     <use xlink:href="#DejaVuSans-77" x="312.447266"/>
     <use xlink:href="#DejaVuSans-20" x="394.234375"/>
     <use xlink:href="#DejaVuSans-46" x="426.021484"/>
     <use xlink:href="#DejaVuSans-72" x="476.291016"/>
     <use xlink:href="#DejaVuSans-65" x="515.154297"/>
     <use xlink:href="#DejaVuSans-71" x="576.677734"/>
     <use xlink:href="#DejaVuSans-75" x="640.154297"/>
     <use xlink:href="#DejaVuSans-65" x="703.533203"/>
     <use xlink:href="#DejaVuSans-6e" x="765.056641"/>
     <use xlink:href="#DejaVuSans-63" x="828.435547"/>
     <use xlink:href="#DejaVuSans-79" x="883.416016"/>
     <use xlink:href="#DejaVuSans-20" x="942.595703"/>
     <use xlink:href="#DejaVuSans-52" x="974.382812"/>
     <use xlink:href="#DejaVuSans-65" x="1039.365234"/>
     <use xlink:href="#DejaVuSans-73" x="1100.888672"/>
     <use xlink:href="#DejaVuSans-70" x="1152.988281"/>
     <use xlink:href="#DejaVuSans-6f" x="1216.464844"/>
     <use xlink:href="#DejaVuSans-6e" x="1277.646484"/>
     <use xlink:href="#DejaVuSans-73" x="1341.025391"/>
     <use xlink:href="#DejaVuSans-65" x="1393.125"/>
    </g>
   </g>
  </g>
 </g>
 <defs>
  <clipPath id="peb57f92545">
   <rect x="54" y="34.56" width="334.8" height="221.76"/>
  </clipPath>
 </defs>
</svg>
